<ttFont>
    <TTGlyph name="A" xMin="-22" yMin="0" xMax="543" yMax="690">
      <contour>
        <pt x="462" y="252" on="1"/>
        <pt x="133" y="252" on="1"/>
        <pt x="6" y="0" on="1"/>
        <pt x="-22" y="0" on="1"/>
        <pt x="322" y="682" on="1"/>
        <pt x="326" y="690" on="0"/>
        <pt x="335" y="690" on="1"/>
        <pt x="378" y="690" on="1"/>
        <pt x="389" y="690" on="0"/>
        <pt x="391" y="680" on="1"/>
        <pt x="543" y="0" on="1"/>
        <pt x="517" y="0" on="1"/>
      </contour>
      <contour>
        <pt x="457" y="274" on="1"/>
        <pt x="382" y="613" on="1"/>
        <pt x="373" y="655" on="0"/>
        <pt x="370" y="667" on="1"/>
        <pt x="341" y="667" on="1"/>
        <pt x="336" y="658" on="0"/>
        <pt x="318" y="620" on="0"/>
        <pt x="313" y="611" on="1"/>
        <pt x="144" y="274" on="1"/>
      </contour>
    </TTGlyph>
    <TTGlyph name="AE" xMin="-30" yMin="0" xMax="902" yMax="690">
      <contour>
        <pt x="900" y="668" on="1"/>
        <pt x="632" y="668" on="1"/>
        <pt x="595" y="668" on="0"/>
        <pt x="543" y="623" on="0"/>
        <pt x="537" y="585" on="1"/>
        <pt x="509" y="380" on="1"/>
        <pt x="817" y="380" on="1"/>
        <pt x="814" y="359" on="1"/>
        <pt x="506" y="359" on="1"/>
        <pt x="470" y="103" on="1"/>
        <pt x="465" y="67" on="0"/>
        <pt x="503" y="22" on="0"/>
        <pt x="539" y="22" on="1"/>
        <pt x="809" y="22" on="1"/>
        <pt x="808" y="4" on="1"/>
        <pt x="715" y="0" on="0"/>
        <pt x="534" y="0" on="1"/>
        <pt x="489" y="0" on="0"/>
        <pt x="438" y="59" on="0"/>
        <pt x="445" y="103" on="1"/>
        <pt x="469" y="272" on="1"/>
        <pt x="217" y="272" on="1"/>
        <pt x="0" y="0" on="1"/>
        <pt x="-30" y="0" on="1"/>
        <pt x="454" y="606" on="1"/>
        <pt x="496" y="657" on="0"/>
        <pt x="574" y="690" on="0"/>
        <pt x="629" y="690" on="1"/>
        <pt x="805" y="690" on="0"/>
        <pt x="902" y="686" on="1"/>
      </contour>
      <contour>
        <pt x="472" y="294" on="1"/>
        <pt x="513" y="588" on="1"/>
        <pt x="516" y="611" on="0"/>
        <pt x="546" y="657" on="0"/>
        <pt x="564" y="664" on="1"/>
        <pt x="560" y="664" on="1"/>
        <pt x="518" y="648" on="0"/>
        <pt x="472" y="591" on="1"/>
        <pt x="235" y="294" on="1"/>
      </contour>
    </TTGlyph>
    <TTGlyph name="Aacute" xMin="-22" yMin="0" xMax="543" yMax="896">
      <contour>
        <pt x="331" y="736" on="1"/>
        <pt x="317" y="750" on="1"/>
        <pt x="486" y="896" on="1"/>
        <pt x="503" y="877" on="1"/>
      </contour>
      <contour>
        <pt x="462" y="252" on="1"/>
        <pt x="133" y="252" on="1"/>
        <pt x="6" y="0" on="1"/>
        <pt x="-22" y="0" on="1"/>
        <pt x="322" y="682" on="1"/>
        <pt x="326" y="690" on="0"/>
        <pt x="335" y="690" on="1"/>
        <pt x="378" y="690" on="1"/>
        <pt x="389" y="690" on="0"/>
        <pt x="391" y="680" on="1"/>
        <pt x="543" y="0" on="1"/>
        <pt x="517" y="0" on="1"/>
      </contour>
      <contour>
        <pt x="457" y="274" on="1"/>
        <pt x="382" y="613" on="1"/>
        <pt x="373" y="655" on="0"/>
        <pt x="370" y="667" on="1"/>
        <pt x="341" y="667" on="1"/>
        <pt x="336" y="658" on="0"/>
        <pt x="318" y="620" on="0"/>
        <pt x="313" y="611" on="1"/>
        <pt x="144" y="274" on="1"/>
      </contour>
    </TTGlyph>
    <TTGlyph name="Abreve" xMin="-22" yMin="0" xMax="543" yMax="874">
      <contour>
        <pt x="501" y="874" on="1"/>
        <pt x="518" y="868" on="1"/>
        <pt x="511" y="815" on="0"/>
        <pt x="431" y="755" on="0"/>
        <pt x="369" y="755" on="1"/>
        <pt x="305" y="755" on="0"/>
        <pt x="239" y="817" on="0"/>
        <pt x="246" y="870" on="1"/>
        <pt x="264" y="872" on="1"/>
        <pt x="257" y="828" on="0"/>
        <pt x="314" y="779" on="0"/>
        <pt x="424" y="779" on="0"/>
        <pt x="495" y="829" on="0"/>
      </contour>
      <contour>
        <pt x="462" y="252" on="1"/>
        <pt x="133" y="252" on="1"/>
        <pt x="6" y="0" on="1"/>
        <pt x="-22" y="0" on="1"/>
        <pt x="322" y="682" on="1"/>
        <pt x="326" y="690" on="0"/>
        <pt x="335" y="690" on="1"/>
        <pt x="378" y="690" on="1"/>
        <pt x="389" y="690" on="0"/>
        <pt x="391" y="680" on="1"/>
        <pt x="543" y="0" on="1"/>
        <pt x="517" y="0" on="1"/>
      </contour>
      <contour>
        <pt x="457" y="274" on="1"/>
        <pt x="382" y="613" on="1"/>
        <pt x="373" y="655" on="0"/>
        <pt x="370" y="667" on="1"/>
        <pt x="341" y="667" on="1"/>
        <pt x="336" y="658" on="0"/>
        <pt x="318" y="620" on="0"/>
        <pt x="313" y="611" on="1"/>
        <pt x="144" y="274" on="1"/>
      </contour>
    </TTGlyph>
    <TTGlyph name="Acircumflex" xMin="-22" yMin="0" xMax="543" yMax="880">
      <contour>
        <pt x="232" y="750" on="1"/>
        <pt x="222" y="763" on="1"/>
        <pt x="374" y="880" on="1"/>
        <pt x="392" y="880" on="1"/>
        <pt x="513" y="763" on="1"/>
        <pt x="501" y="751" on="1"/>
        <pt x="386" y="853" on="1"/>
        <pt x="377" y="853" on="1"/>
      </contour>
      <contour>
        <pt x="462" y="252" on="1"/>
        <pt x="133" y="252" on="1"/>
        <pt x="6" y="0" on="1"/>
        <pt x="-22" y="0" on="1"/>
        <pt x="322" y="682" on="1"/>
        <pt x="326" y="690" on="0"/>
        <pt x="335" y="690" on="1"/>
        <pt x="378" y="690" on="1"/>
        <pt x="389" y="690" on="0"/>
        <pt x="391" y="680" on="1"/>
        <pt x="543" y="0" on="1"/>
        <pt x="517" y="0" on="1"/>
      </contour>
      <contour>
        <pt x="457" y="274" on="1"/>
        <pt x="382" y="613" on="1"/>
        <pt x="373" y="655" on="0"/>
        <pt x="370" y="667" on="1"/>
        <pt x="341" y="667" on="1"/>
        <pt x="336" y="658" on="0"/>
        <pt x="318" y="620" on="0"/>
        <pt x="313" y="611" on="1"/>
        <pt x="144" y="274" on="1"/>
      </contour>
    </TTGlyph>
    <TTGlyph name="Adieresis" xMin="-22" yMin="0" xMax="543" yMax="856">
      <contour>
        <pt x="285" y="778" on="1"/>
        <pt x="278" y="778" on="1"/>
        <pt x="267" y="778" on="0"/>
        <pt x="268" y="790" on="1"/>
        <pt x="276" y="844" on="1"/>
        <pt x="278" y="856" on="0"/>
        <pt x="288" y="856" on="1"/>
        <pt x="297" y="856" on="1"/>
        <pt x="308" y="856" on="0"/>
        <pt x="306" y="844" on="1"/>
        <pt x="298" y="791" on="1"/>
        <pt x="297" y="778" on="0"/>
      </contour>
      <contour>
        <pt x="462" y="778" on="1"/>
        <pt x="455" y="778" on="1"/>
        <pt x="444" y="778" on="0"/>
        <pt x="445" y="790" on="1"/>
        <pt x="453" y="844" on="1"/>
        <pt x="454" y="856" on="0"/>
        <pt x="465" y="856" on="1"/>
        <pt x="474" y="856" on="1"/>
        <pt x="484" y="856" on="0"/>
        <pt x="483" y="844" on="1"/>
        <pt x="475" y="791" on="1"/>
        <pt x="474" y="778" on="0"/>
      </contour>
      <contour>
        <pt x="462" y="252" on="1"/>
        <pt x="133" y="252" on="1"/>
        <pt x="6" y="0" on="1"/>
        <pt x="-22" y="0" on="1"/>
        <pt x="322" y="682" on="1"/>
        <pt x="326" y="690" on="0"/>
        <pt x="335" y="690" on="1"/>
        <pt x="378" y="690" on="1"/>
        <pt x="389" y="690" on="0"/>
        <pt x="391" y="680" on="1"/>
        <pt x="543" y="0" on="1"/>
        <pt x="517" y="0" on="1"/>
      </contour>
      <contour>
        <pt x="457" y="274" on="1"/>
        <pt x="382" y="613" on="1"/>
        <pt x="373" y="655" on="0"/>
        <pt x="370" y="667" on="1"/>
        <pt x="341" y="667" on="1"/>
        <pt x="336" y="658" on="0"/>
        <pt x="318" y="620" on="0"/>
        <pt x="313" y="611" on="1"/>
        <pt x="144" y="274" on="1"/>
      </contour>
    </TTGlyph>
    <TTGlyph name="Agrave" xMin="-22" yMin="0" xMax="543" yMax="895">
      <contour>
        <pt x="390" y="736" on="1"/>
        <pt x="256" y="877" on="1"/>
        <pt x="275" y="895" on="1"/>
        <pt x="404" y="748" on="1"/>
      </contour>
      <contour>
        <pt x="462" y="252" on="1"/>
        <pt x="133" y="252" on="1"/>
        <pt x="6" y="0" on="1"/>
        <pt x="-22" y="0" on="1"/>
        <pt x="322" y="682" on="1"/>
        <pt x="326" y="690" on="0"/>
        <pt x="335" y="690" on="1"/>
        <pt x="378" y="690" on="1"/>
        <pt x="389" y="690" on="0"/>
        <pt x="391" y="680" on="1"/>
        <pt x="543" y="0" on="1"/>
        <pt x="517" y="0" on="1"/>
      </contour>
      <contour>
        <pt x="457" y="274" on="1"/>
        <pt x="382" y="613" on="1"/>
        <pt x="373" y="655" on="0"/>
        <pt x="370" y="667" on="1"/>
        <pt x="341" y="667" on="1"/>
        <pt x="336" y="658" on="0"/>
        <pt x="318" y="620" on="0"/>
        <pt x="313" y="611" on="1"/>
        <pt x="144" y="274" on="1"/>
      </contour>
    </TTGlyph>
    <TTGlyph name="Amacron" xMin="-22" yMin="0" xMax="543" yMax="827">
      <contour>
        <pt x="504" y="804" on="1"/>
        <pt x="244" y="804" on="1"/>
        <pt x="247" y="827" on="1"/>
        <pt x="507" y="827" on="1"/>
      </contour>
      <contour>
        <pt x="462" y="252" on="1"/>
        <pt x="133" y="252" on="1"/>
        <pt x="6" y="0" on="1"/>
        <pt x="-22" y="0" on="1"/>
        <pt x="322" y="682" on="1"/>
        <pt x="326" y="690" on="0"/>
        <pt x="335" y="690" on="1"/>
        <pt x="378" y="690" on="1"/>
        <pt x="389" y="690" on="0"/>
        <pt x="391" y="680" on="1"/>
        <pt x="543" y="0" on="1"/>
        <pt x="517" y="0" on="1"/>
      </contour>
      <contour>
        <pt x="457" y="274" on="1"/>
        <pt x="382" y="613" on="1"/>
        <pt x="373" y="655" on="0"/>
        <pt x="370" y="667" on="1"/>
        <pt x="341" y="667" on="1"/>
        <pt x="336" y="658" on="0"/>
        <pt x="318" y="620" on="0"/>
        <pt x="313" y="611" on="1"/>
        <pt x="144" y="274" on="1"/>
      </contour>
    </TTGlyph>
    <TTGlyph name="Aogonek" xMin="-22" yMin="-202" xMax="543" yMax="690">
      <contour>
        <pt x="391" y="680" on="1"/>
        <pt x="543" y="0" on="1"/>
        <pt x="469" y="-65" on="0"/>
        <pt x="438" y="-128" on="1"/>
        <pt x="416" y="-173" on="0"/>
        <pt x="463" y="-203" on="0"/>
        <pt x="523" y="-182" on="1"/>
        <pt x="526" y="-194" on="1"/>
        <pt x="446" y="-226" on="0"/>
        <pt x="390" y="-177" on="0"/>
        <pt x="417" y="-122" on="1"/>
        <pt x="447" y="-61" on="0"/>
        <pt x="524" y="0" on="1"/>
        <pt x="517" y="0" on="1"/>
        <pt x="462" y="252" on="1"/>
        <pt x="133" y="252" on="1"/>
        <pt x="6" y="0" on="1"/>
        <pt x="-22" y="0" on="1"/>
        <pt x="322" y="682" on="1"/>
        <pt x="326" y="690" on="0"/>
        <pt x="335" y="690" on="1"/>
        <pt x="378" y="690" on="1"/>
        <pt x="389" y="690" on="0"/>
      </contour>
      <contour>
        <pt x="457" y="274" on="1"/>
        <pt x="382" y="613" on="1"/>
        <pt x="373" y="655" on="0"/>
        <pt x="370" y="667" on="1"/>
        <pt x="341" y="667" on="1"/>
        <pt x="336" y="658" on="0"/>
        <pt x="318" y="620" on="0"/>
        <pt x="313" y="611" on="1"/>
        <pt x="144" y="274" on="1"/>
      </contour>
    </TTGlyph>
    <TTGlyph name="Aring" xMin="-22" yMin="0" xMax="543" yMax="909">
      <contour>
        <pt x="408" y="719" on="0"/>
        <pt x="324" y="719" on="0"/>
        <pt x="274" y="775" on="0"/>
        <pt x="279" y="816" on="1"/>
        <pt x="284" y="854" on="0"/>
        <pt x="343" y="909" on="0"/>
        <pt x="384" y="909" on="1"/>
        <pt x="426" y="909" on="0"/>
        <pt x="476" y="852" on="0"/>
        <pt x="471" y="812" on="1"/>
        <pt x="466" y="774" on="0"/>
      </contour>
      <contour>
        <pt x="300" y="812" on="1"/>
        <pt x="296" y="781" on="0"/>
        <pt x="333" y="738" on="0"/>
        <pt x="399" y="738" on="0"/>
        <pt x="446" y="783" on="0"/>
        <pt x="450" y="816" on="1"/>
        <pt x="454" y="847" on="0"/>
        <pt x="418" y="890" on="0"/>
        <pt x="350" y="890" on="0"/>
        <pt x="304" y="845" on="0"/>
      </contour>
      <contour>
        <pt x="462" y="252" on="1"/>
        <pt x="133" y="252" on="1"/>
        <pt x="6" y="0" on="1"/>
        <pt x="-22" y="0" on="1"/>
        <pt x="322" y="682" on="1"/>
        <pt x="326" y="690" on="0"/>
        <pt x="335" y="690" on="1"/>
        <pt x="378" y="690" on="1"/>
        <pt x="389" y="690" on="0"/>
        <pt x="391" y="680" on="1"/>
        <pt x="543" y="0" on="1"/>
        <pt x="517" y="0" on="1"/>
      </contour>
      <contour>
        <pt x="457" y="274" on="1"/>
        <pt x="382" y="613" on="1"/>
        <pt x="373" y="655" on="0"/>
        <pt x="370" y="667" on="1"/>
        <pt x="341" y="667" on="1"/>
        <pt x="336" y="658" on="0"/>
        <pt x="318" y="620" on="0"/>
        <pt x="313" y="611" on="1"/>
        <pt x="144" y="274" on="1"/>
      </contour>
    </TTGlyph>
    <TTGlyph name="Atilde" xMin="-22" yMin="0" xMax="543" yMax="866">
      <contour>
        <pt x="510" y="862" on="1"/>
        <pt x="527" y="860" on="1"/>
        <pt x="523" y="817" on="0"/>
        <pt x="477" y="773" on="0"/>
        <pt x="442" y="776" on="1"/>
        <pt x="406" y="779" on="0"/>
        <pt x="333" y="842" on="0"/>
        <pt x="312" y="844" on="1"/>
        <pt x="253" y="850" on="0"/>
        <pt x="242" y="776" on="1"/>
        <pt x="225" y="778" on="1"/>
        <pt x="230" y="823" on="0"/>
        <pt x="276" y="869" on="0"/>
        <pt x="311" y="866" on="1"/>
        <pt x="341" y="863" on="0"/>
        <pt x="413" y="800" on="0"/>
        <pt x="441" y="798" on="1"/>
        <pt x="472" y="796" on="0"/>
        <pt x="505" y="827" on="0"/>
      </contour>
      <contour>
        <pt x="462" y="252" on="1"/>
        <pt x="133" y="252" on="1"/>
        <pt x="6" y="0" on="1"/>
        <pt x="-22" y="0" on="1"/>
        <pt x="322" y="682" on="1"/>
        <pt x="326" y="690" on="0"/>
        <pt x="335" y="690" on="1"/>
        <pt x="378" y="690" on="1"/>
        <pt x="389" y="690" on="0"/>
        <pt x="391" y="680" on="1"/>
        <pt x="543" y="0" on="1"/>
        <pt x="517" y="0" on="1"/>
      </contour>
      <contour>
        <pt x="457" y="274" on="1"/>
        <pt x="382" y="613" on="1"/>
        <pt x="373" y="655" on="0"/>
        <pt x="370" y="667" on="1"/>
        <pt x="341" y="667" on="1"/>
        <pt x="336" y="658" on="0"/>
        <pt x="318" y="620" on="0"/>
        <pt x="313" y="611" on="1"/>
        <pt x="144" y="274" on="1"/>
      </contour>
    </TTGlyph>
    <TTGlyph name="B" xMin="62" yMin="-8" xMax="551" yMax="698">
      <contour>
        <pt x="62" y="0" on="1"/>
        <pt x="159" y="690" on="1"/>
        <pt x="231" y="698" on="0"/>
        <pt x="353" y="698" on="1"/>
        <pt x="479" y="698" on="0"/>
        <pt x="566" y="621" on="0"/>
        <pt x="551" y="516" on="1"/>
        <pt x="540" y="442" on="0"/>
        <pt x="474" y="366" on="0"/>
        <pt x="412" y="360" on="1"/>
        <pt x="412" y="356" on="1"/>
        <pt x="484" y="349" on="0"/>
        <pt x="535" y="257" on="0"/>
        <pt x="522" y="170" on="1"/>
        <pt x="507" y="66" on="0"/>
        <pt x="407" y="-8" on="0"/>
        <pt x="287" y="-8" on="1"/>
        <pt x="142" y="-8" on="0"/>
      </contour>
      <contour>
        <pt x="139" y="368" on="1"/>
        <pt x="327" y="368" on="1"/>
        <pt x="426" y="369" on="0"/>
        <pt x="513" y="431" on="0"/>
        <pt x="525" y="520" on="1"/>
        <pt x="538" y="613" on="0"/>
        <pt x="464" y="675" on="0"/>
        <pt x="353" y="675" on="1"/>
        <pt x="182" y="675" on="1"/>
      </contour>
      <contour>
        <pt x="136" y="347" on="1"/>
        <pt x="89" y="17" on="1"/>
        <pt x="159" y="15" on="0"/>
        <pt x="286" y="15" on="1"/>
        <pt x="393" y="15" on="0"/>
        <pt x="484" y="80" on="0"/>
        <pt x="497" y="174" on="1"/>
        <pt x="511" y="274" on="0"/>
        <pt x="436" y="345" on="0"/>
        <pt x="326" y="347" on="1"/>
      </contour>
    </TTGlyph>
    <TTGlyph name="C" xMin="83" yMin="-12" xMax="559" yMax="702">
      <contour>
        <pt x="474" y="24" on="1"/>
        <pt x="479" y="6" on="1"/>
        <pt x="396" y="-12" on="0"/>
        <pt x="290" y="-12" on="1"/>
        <pt x="148" y="-12" on="0"/>
        <pt x="55" y="149" on="0"/>
        <pt x="83" y="347" on="1"/>
        <pt x="111" y="544" on="0"/>
        <pt x="245" y="702" on="0"/>
        <pt x="386" y="702" on="1"/>
        <pt x="487" y="702" on="0"/>
        <pt x="559" y="685" on="1"/>
        <pt x="552" y="667" on="1"/>
        <pt x="479" y="679" on="0"/>
        <pt x="387" y="679" on="1"/>
        <pt x="255" y="679" on="0"/>
        <pt x="135" y="532" on="0"/>
        <pt x="108" y="343" on="1"/>
        <pt x="82" y="157" on="0"/>
        <pt x="161" y="11" on="0"/>
        <pt x="289" y="11" on="1"/>
        <pt x="396" y="11" on="0"/>
      </contour>
    </TTGlyph>
    <TTGlyph name="Cacute" xMin="83" yMin="-12" xMax="559" yMax="896">
      <contour>
        <pt x="522" y="877" on="1"/>
        <pt x="350" y="736" on="1"/>
        <pt x="336" y="750" on="1"/>
        <pt x="505" y="896" on="1"/>
      </contour>
      <contour>
        <pt x="474" y="24" on="1"/>
        <pt x="479" y="6" on="1"/>
        <pt x="396" y="-12" on="0"/>
        <pt x="290" y="-12" on="1"/>
        <pt x="148" y="-12" on="0"/>
        <pt x="55" y="149" on="0"/>
        <pt x="83" y="347" on="1"/>
        <pt x="111" y="544" on="0"/>
        <pt x="245" y="702" on="0"/>
        <pt x="386" y="702" on="1"/>
        <pt x="487" y="702" on="0"/>
        <pt x="559" y="685" on="1"/>
        <pt x="552" y="667" on="1"/>
        <pt x="479" y="679" on="0"/>
        <pt x="387" y="679" on="1"/>
        <pt x="255" y="679" on="0"/>
        <pt x="135" y="532" on="0"/>
        <pt x="108" y="343" on="1"/>
        <pt x="82" y="157" on="0"/>
        <pt x="161" y="11" on="0"/>
        <pt x="289" y="11" on="1"/>
        <pt x="396" y="11" on="0"/>
      </contour>
    </TTGlyph>
    <TTGlyph name="Ccaron" xMin="83" yMin="-12" xMax="559" yMax="880">
      <contour>
        <pt x="549" y="868" on="1"/>
        <pt x="395" y="751" on="1"/>
        <pt x="377" y="751" on="1"/>
        <pt x="257" y="868" on="1"/>
        <pt x="268" y="880" on="1"/>
        <pt x="384" y="778" on="1"/>
        <pt x="392" y="778" on="1"/>
        <pt x="538" y="880" on="1"/>
      </contour>
      <contour>
        <pt x="474" y="24" on="1"/>
        <pt x="479" y="6" on="1"/>
        <pt x="396" y="-12" on="0"/>
        <pt x="290" y="-12" on="1"/>
        <pt x="148" y="-12" on="0"/>
        <pt x="55" y="149" on="0"/>
        <pt x="83" y="347" on="1"/>
        <pt x="111" y="544" on="0"/>
        <pt x="245" y="702" on="0"/>
        <pt x="386" y="702" on="1"/>
        <pt x="487" y="702" on="0"/>
        <pt x="559" y="685" on="1"/>
        <pt x="552" y="667" on="1"/>
        <pt x="479" y="679" on="0"/>
        <pt x="387" y="679" on="1"/>
        <pt x="255" y="679" on="0"/>
        <pt x="135" y="532" on="0"/>
        <pt x="108" y="343" on="1"/>
        <pt x="82" y="157" on="0"/>
        <pt x="161" y="11" on="0"/>
        <pt x="289" y="11" on="1"/>
        <pt x="396" y="11" on="0"/>
      </contour>
    </TTGlyph>
    <TTGlyph name="Ccedilla" xMin="83" yMin="-231" xMax="559" yMax="702">
      <contour>
        <pt x="474" y="24" on="1"/>
        <pt x="479" y="6" on="1"/>
        <pt x="396" y="-12" on="0"/>
        <pt x="290" y="-12" on="1"/>
        <pt x="148" y="-12" on="0"/>
        <pt x="55" y="149" on="0"/>
        <pt x="83" y="347" on="1"/>
        <pt x="111" y="544" on="0"/>
        <pt x="245" y="702" on="0"/>
        <pt x="386" y="702" on="1"/>
        <pt x="487" y="702" on="0"/>
        <pt x="559" y="685" on="1"/>
        <pt x="552" y="667" on="1"/>
        <pt x="479" y="679" on="0"/>
        <pt x="387" y="679" on="1"/>
        <pt x="255" y="679" on="0"/>
        <pt x="135" y="532" on="0"/>
        <pt x="108" y="343" on="1"/>
        <pt x="82" y="157" on="0"/>
        <pt x="161" y="11" on="0"/>
        <pt x="289" y="11" on="1"/>
        <pt x="396" y="11" on="0"/>
      </contour>
      <contour>
        <pt x="248" y="-75" on="1"/>
        <pt x="251" y="-61" on="1"/>
        <pt x="291" y="-59" on="0"/>
        <pt x="327" y="-92" on="0"/>
        <pt x="321" y="-128" on="1"/>
        <pt x="313" y="-179" on="0"/>
        <pt x="229" y="-239" on="0"/>
        <pt x="168" y="-231" on="1"/>
        <pt x="173" y="-216" on="1"/>
        <pt x="224" y="-218" on="0"/>
        <pt x="294" y="-164" on="0"/>
        <pt x="300" y="-124" on="1"/>
        <pt x="304" y="-97" on="0"/>
        <pt x="281" y="-76" on="0"/>
      </contour>
    </TTGlyph>
    <TTGlyph name="Cdotaccent" xMin="83" yMin="-12" xMax="559" yMax="860">
      <contour>
        <pt x="395" y="860" on="1"/>
        <pt x="406" y="860" on="1"/>
        <pt x="417" y="860" on="0"/>
        <pt x="416" y="847" on="1"/>
        <pt x="408" y="787" on="1"/>
        <pt x="407" y="774" on="0"/>
        <pt x="394" y="774" on="1"/>
        <pt x="385" y="774" on="1"/>
        <pt x="372" y="774" on="0"/>
        <pt x="374" y="787" on="1"/>
        <pt x="382" y="847" on="1"/>
        <pt x="383" y="860" on="0"/>
      </contour>
      <contour>
        <pt x="474" y="24" on="1"/>
        <pt x="479" y="6" on="1"/>
        <pt x="396" y="-12" on="0"/>
        <pt x="290" y="-12" on="1"/>
        <pt x="148" y="-12" on="0"/>
        <pt x="55" y="149" on="0"/>
        <pt x="83" y="347" on="1"/>
        <pt x="111" y="544" on="0"/>
        <pt x="245" y="702" on="0"/>
        <pt x="386" y="702" on="1"/>
        <pt x="487" y="702" on="0"/>
        <pt x="559" y="685" on="1"/>
        <pt x="552" y="667" on="1"/>
        <pt x="479" y="679" on="0"/>
        <pt x="387" y="679" on="1"/>
        <pt x="255" y="679" on="0"/>
        <pt x="135" y="532" on="0"/>
        <pt x="108" y="343" on="1"/>
        <pt x="82" y="157" on="0"/>
        <pt x="161" y="11" on="0"/>
        <pt x="289" y="11" on="1"/>
        <pt x="396" y="11" on="0"/>
      </contour>
    </TTGlyph>
    <TTGlyph name="D" xMin="62" yMin="-9" xMax="590" yMax="699">
      <contour>
        <pt x="62" y="0" on="1"/>
        <pt x="159" y="690" on="1"/>
        <pt x="280" y="699" on="0"/>
        <pt x="388" y="699" on="1"/>
        <pt x="527" y="699" on="0"/>
        <pt x="617" y="539" on="0"/>
        <pt x="590" y="343" on="1"/>
        <pt x="563" y="146" on="0"/>
        <pt x="431" y="-9" on="0"/>
        <pt x="292" y="-9" on="1"/>
        <pt x="183" y="-9" on="0"/>
      </contour>
      <contour>
        <pt x="182" y="672" on="1"/>
        <pt x="89" y="17" on="1"/>
        <pt x="272" y="14" on="0"/>
        <pt x="291" y="14" on="1"/>
        <pt x="417" y="14" on="0"/>
        <pt x="539" y="160" on="0"/>
        <pt x="565" y="347" on="1"/>
        <pt x="590" y="530" on="0"/>
        <pt x="512" y="676" on="0"/>
        <pt x="388" y="676" on="1"/>
        <pt x="302" y="676" on="0"/>
      </contour>
    </TTGlyph>
    <TTGlyph name="Dcaron" xMin="62" yMin="-9" xMax="590" yMax="880">
      <contour>
        <pt x="371" y="751" on="1"/>
        <pt x="251" y="868" on="1"/>
        <pt x="262" y="880" on="1"/>
        <pt x="378" y="778" on="1"/>
        <pt x="386" y="778" on="1"/>
        <pt x="532" y="880" on="1"/>
        <pt x="543" y="868" on="1"/>
        <pt x="389" y="751" on="1"/>
      </contour>
      <contour>
        <pt x="62" y="0" on="1"/>
        <pt x="159" y="690" on="1"/>
        <pt x="280" y="699" on="0"/>
        <pt x="388" y="699" on="1"/>
        <pt x="527" y="699" on="0"/>
        <pt x="617" y="539" on="0"/>
        <pt x="590" y="343" on="1"/>
        <pt x="563" y="146" on="0"/>
        <pt x="431" y="-9" on="0"/>
        <pt x="292" y="-9" on="1"/>
        <pt x="183" y="-9" on="0"/>
      </contour>
      <contour>
        <pt x="182" y="672" on="1"/>
        <pt x="89" y="17" on="1"/>
        <pt x="272" y="14" on="0"/>
        <pt x="291" y="14" on="1"/>
        <pt x="417" y="14" on="0"/>
        <pt x="539" y="160" on="0"/>
        <pt x="565" y="347" on="1"/>
        <pt x="590" y="530" on="0"/>
        <pt x="512" y="676" on="0"/>
        <pt x="388" y="676" on="1"/>
        <pt x="302" y="676" on="0"/>
      </contour>
    </TTGlyph>
    <TTGlyph name="Dcroat" xMin="30" yMin="-9" xMax="590" yMax="699">
      <contour>
        <pt x="116" y="381" on="1"/>
        <pt x="159" y="690" on="1"/>
        <pt x="280" y="699" on="0"/>
        <pt x="388" y="699" on="1"/>
        <pt x="527" y="699" on="0"/>
        <pt x="617" y="539" on="0"/>
        <pt x="590" y="343" on="1"/>
        <pt x="563" y="146" on="0"/>
        <pt x="431" y="-9" on="0"/>
        <pt x="292" y="-9" on="1"/>
        <pt x="183" y="-9" on="0"/>
        <pt x="62" y="0" on="1"/>
        <pt x="113" y="361" on="1"/>
        <pt x="30" y="361" on="1"/>
        <pt x="33" y="381" on="1"/>
      </contour>
      <contour>
        <pt x="138" y="361" on="1"/>
        <pt x="89" y="17" on="1"/>
        <pt x="272" y="14" on="0"/>
        <pt x="291" y="14" on="1"/>
        <pt x="417" y="14" on="0"/>
        <pt x="539" y="160" on="0"/>
        <pt x="565" y="347" on="1"/>
        <pt x="590" y="530" on="0"/>
        <pt x="512" y="676" on="0"/>
        <pt x="388" y="676" on="1"/>
        <pt x="302" y="676" on="0"/>
        <pt x="182" y="672" on="1"/>
        <pt x="141" y="381" on="1"/>
        <pt x="321" y="381" on="1"/>
        <pt x="318" y="361" on="1"/>
      </contour>
    </TTGlyph>
    <TTGlyph name="Delta" xMin="-6" yMin="0" xMax="537" yMax="690">
      <contour>
        <pt x="537" y="22" on="1"/>
        <pt x="534" y="0" on="1"/>
        <pt x="-6" y="0" on="1"/>
        <pt x="-3" y="22" on="1"/>
        <pt x="347" y="690" on="1"/>
        <pt x="375" y="690" on="1"/>
      </contour>
      <contour>
        <pt x="511" y="22" on="1"/>
        <pt x="374" y="597" on="1"/>
        <pt x="371" y="610" on="0"/>
        <pt x="360" y="656" on="0"/>
        <pt x="358" y="663" on="1"/>
        <pt x="352" y="650" on="0"/>
        <pt x="328" y="603" on="0"/>
        <pt x="324" y="594" on="1"/>
        <pt x="24" y="22" on="1"/>
      </contour>
    </TTGlyph>
    <TTGlyph name="E" xMin="70" yMin="0" xMax="547" yMax="690">
      <contour>
        <pt x="543" y="668" on="1"/>
        <pt x="257" y="668" on="1"/>
        <pt x="217" y="668" on="0"/>
        <pt x="167" y="623" on="0"/>
        <pt x="162" y="585" on="1"/>
        <pt x="134" y="380" on="1"/>
        <pt x="462" y="380" on="1"/>
        <pt x="459" y="359" on="1"/>
        <pt x="131" y="359" on="1"/>
        <pt x="95" y="103" on="1"/>
        <pt x="90" y="67" on="0"/>
        <pt x="128" y="22" on="0"/>
        <pt x="164" y="22" on="1"/>
        <pt x="452" y="22" on="1"/>
        <pt x="453" y="4" on="1"/>
        <pt x="354" y="0" on="0"/>
        <pt x="159" y="0" on="1"/>
        <pt x="114" y="0" on="0"/>
        <pt x="63" y="59" on="0"/>
        <pt x="70" y="103" on="1"/>
        <pt x="138" y="589" on="1"/>
        <pt x="144" y="634" on="0"/>
        <pt x="204" y="690" on="0"/>
        <pt x="252" y="690" on="1"/>
        <pt x="449" y="690" on="0"/>
        <pt x="547" y="686" on="1"/>
      </contour>
    </TTGlyph>
    <TTGlyph name="Eacute" xMin="70" yMin="0" xMax="547" yMax="921">
      <contour>
        <pt x="333" y="761" on="1"/>
        <pt x="319" y="775" on="1"/>
        <pt x="488" y="921" on="1"/>
        <pt x="505" y="902" on="1"/>
      </contour>
      <contour>
        <pt x="543" y="668" on="1"/>
        <pt x="257" y="668" on="1"/>
        <pt x="217" y="668" on="0"/>
        <pt x="167" y="623" on="0"/>
        <pt x="162" y="585" on="1"/>
        <pt x="134" y="380" on="1"/>
        <pt x="462" y="380" on="1"/>
        <pt x="459" y="359" on="1"/>
        <pt x="131" y="359" on="1"/>
        <pt x="95" y="103" on="1"/>
        <pt x="90" y="67" on="0"/>
        <pt x="128" y="22" on="0"/>
        <pt x="164" y="22" on="1"/>
        <pt x="452" y="22" on="1"/>
        <pt x="453" y="4" on="1"/>
        <pt x="354" y="0" on="0"/>
        <pt x="159" y="0" on="1"/>
        <pt x="114" y="0" on="0"/>
        <pt x="63" y="59" on="0"/>
        <pt x="70" y="103" on="1"/>
        <pt x="138" y="589" on="1"/>
        <pt x="144" y="634" on="0"/>
        <pt x="204" y="690" on="0"/>
        <pt x="252" y="690" on="1"/>
        <pt x="449" y="690" on="0"/>
        <pt x="547" y="686" on="1"/>
      </contour>
    </TTGlyph>
    <TTGlyph name="Ecaron" xMin="70" yMin="0" xMax="547" yMax="905">
      <contour>
        <pt x="360" y="776" on="1"/>
        <pt x="240" y="893" on="1"/>
        <pt x="251" y="905" on="1"/>
        <pt x="367" y="803" on="1"/>
        <pt x="375" y="803" on="1"/>
        <pt x="521" y="905" on="1"/>
        <pt x="532" y="893" on="1"/>
        <pt x="378" y="776" on="1"/>
      </contour>
      <contour>
        <pt x="543" y="668" on="1"/>
        <pt x="257" y="668" on="1"/>
        <pt x="217" y="668" on="0"/>
        <pt x="167" y="623" on="0"/>
        <pt x="162" y="585" on="1"/>
        <pt x="134" y="380" on="1"/>
        <pt x="462" y="380" on="1"/>
        <pt x="459" y="359" on="1"/>
        <pt x="131" y="359" on="1"/>
        <pt x="95" y="103" on="1"/>
        <pt x="90" y="67" on="0"/>
        <pt x="128" y="22" on="0"/>
        <pt x="164" y="22" on="1"/>
        <pt x="452" y="22" on="1"/>
        <pt x="453" y="4" on="1"/>
        <pt x="354" y="0" on="0"/>
        <pt x="159" y="0" on="1"/>
        <pt x="114" y="0" on="0"/>
        <pt x="63" y="59" on="0"/>
        <pt x="70" y="103" on="1"/>
        <pt x="138" y="589" on="1"/>
        <pt x="144" y="634" on="0"/>
        <pt x="204" y="690" on="0"/>
        <pt x="252" y="690" on="1"/>
        <pt x="449" y="690" on="0"/>
        <pt x="547" y="686" on="1"/>
      </contour>
    </TTGlyph>
    <TTGlyph name="Ecircumflex" xMin="70" yMin="0" xMax="547" yMax="905">
      <contour>
        <pt x="234" y="775" on="1"/>
        <pt x="224" y="788" on="1"/>
        <pt x="376" y="905" on="1"/>
        <pt x="394" y="905" on="1"/>
        <pt x="515" y="788" on="1"/>
        <pt x="503" y="776" on="1"/>
        <pt x="388" y="878" on="1"/>
        <pt x="379" y="878" on="1"/>
      </contour>
      <contour>
        <pt x="543" y="668" on="1"/>
        <pt x="257" y="668" on="1"/>
        <pt x="217" y="668" on="0"/>
        <pt x="167" y="623" on="0"/>
        <pt x="162" y="585" on="1"/>
        <pt x="134" y="380" on="1"/>
        <pt x="462" y="380" on="1"/>
        <pt x="459" y="359" on="1"/>
        <pt x="131" y="359" on="1"/>
        <pt x="95" y="103" on="1"/>
        <pt x="90" y="67" on="0"/>
        <pt x="128" y="22" on="0"/>
        <pt x="164" y="22" on="1"/>
        <pt x="452" y="22" on="1"/>
        <pt x="453" y="4" on="1"/>
        <pt x="354" y="0" on="0"/>
        <pt x="159" y="0" on="1"/>
        <pt x="114" y="0" on="0"/>
        <pt x="63" y="59" on="0"/>
        <pt x="70" y="103" on="1"/>
        <pt x="138" y="589" on="1"/>
        <pt x="144" y="634" on="0"/>
        <pt x="204" y="690" on="0"/>
        <pt x="252" y="690" on="1"/>
        <pt x="449" y="690" on="0"/>
        <pt x="547" y="686" on="1"/>
      </contour>
    </TTGlyph>
    <TTGlyph name="Edieresis" xMin="70" yMin="0" xMax="547" yMax="881">
      <contour>
        <pt x="287" y="803" on="1"/>
        <pt x="280" y="803" on="1"/>
        <pt x="269" y="803" on="0"/>
        <pt x="270" y="815" on="1"/>
        <pt x="278" y="869" on="1"/>
        <pt x="280" y="881" on="0"/>
        <pt x="290" y="881" on="1"/>
        <pt x="299" y="881" on="1"/>
        <pt x="310" y="881" on="0"/>
        <pt x="308" y="869" on="1"/>
        <pt x="300" y="816" on="1"/>
        <pt x="299" y="803" on="0"/>
      </contour>
      <contour>
        <pt x="464" y="803" on="1"/>
        <pt x="457" y="803" on="1"/>
        <pt x="446" y="803" on="0"/>
        <pt x="447" y="815" on="1"/>
        <pt x="455" y="869" on="1"/>
        <pt x="456" y="881" on="0"/>
        <pt x="467" y="881" on="1"/>
        <pt x="476" y="881" on="1"/>
        <pt x="486" y="881" on="0"/>
        <pt x="485" y="869" on="1"/>
        <pt x="477" y="816" on="1"/>
        <pt x="476" y="803" on="0"/>
      </contour>
      <contour>
        <pt x="543" y="668" on="1"/>
        <pt x="257" y="668" on="1"/>
        <pt x="217" y="668" on="0"/>
        <pt x="167" y="623" on="0"/>
        <pt x="162" y="585" on="1"/>
        <pt x="134" y="380" on="1"/>
        <pt x="462" y="380" on="1"/>
        <pt x="459" y="359" on="1"/>
        <pt x="131" y="359" on="1"/>
        <pt x="95" y="103" on="1"/>
        <pt x="90" y="67" on="0"/>
        <pt x="128" y="22" on="0"/>
        <pt x="164" y="22" on="1"/>
        <pt x="452" y="22" on="1"/>
        <pt x="453" y="4" on="1"/>
        <pt x="354" y="0" on="0"/>
        <pt x="159" y="0" on="1"/>
        <pt x="114" y="0" on="0"/>
        <pt x="63" y="59" on="0"/>
        <pt x="70" y="103" on="1"/>
        <pt x="138" y="589" on="1"/>
        <pt x="144" y="634" on="0"/>
        <pt x="204" y="690" on="0"/>
        <pt x="252" y="690" on="1"/>
        <pt x="449" y="690" on="0"/>
        <pt x="547" y="686" on="1"/>
      </contour>
    </TTGlyph>
    <TTGlyph name="Edotaccent" xMin="70" yMin="0" xMax="547" yMax="885">
      <contour>
        <pt x="377" y="799" on="1"/>
        <pt x="368" y="799" on="1"/>
        <pt x="355" y="799" on="0"/>
        <pt x="357" y="812" on="1"/>
        <pt x="365" y="872" on="1"/>
        <pt x="366" y="885" on="0"/>
        <pt x="378" y="885" on="1"/>
        <pt x="389" y="885" on="1"/>
        <pt x="400" y="885" on="0"/>
        <pt x="399" y="872" on="1"/>
        <pt x="391" y="812" on="1"/>
        <pt x="390" y="799" on="0"/>
      </contour>
      <contour>
        <pt x="543" y="668" on="1"/>
        <pt x="257" y="668" on="1"/>
        <pt x="217" y="668" on="0"/>
        <pt x="167" y="623" on="0"/>
        <pt x="162" y="585" on="1"/>
        <pt x="134" y="380" on="1"/>
        <pt x="462" y="380" on="1"/>
        <pt x="459" y="359" on="1"/>
        <pt x="131" y="359" on="1"/>
        <pt x="95" y="103" on="1"/>
        <pt x="90" y="67" on="0"/>
        <pt x="128" y="22" on="0"/>
        <pt x="164" y="22" on="1"/>
        <pt x="452" y="22" on="1"/>
        <pt x="453" y="4" on="1"/>
        <pt x="354" y="0" on="0"/>
        <pt x="159" y="0" on="1"/>
        <pt x="114" y="0" on="0"/>
        <pt x="63" y="59" on="0"/>
        <pt x="70" y="103" on="1"/>
        <pt x="138" y="589" on="1"/>
        <pt x="144" y="634" on="0"/>
        <pt x="204" y="690" on="0"/>
        <pt x="252" y="690" on="1"/>
        <pt x="449" y="690" on="0"/>
        <pt x="547" y="686" on="1"/>
      </contour>
    </TTGlyph>
    <TTGlyph name="Egrave" xMin="70" yMin="0" xMax="547" yMax="920">
      <contour>
        <pt x="392" y="761" on="1"/>
        <pt x="258" y="902" on="1"/>
        <pt x="277" y="920" on="1"/>
        <pt x="406" y="773" on="1"/>
      </contour>
      <contour>
        <pt x="543" y="668" on="1"/>
        <pt x="257" y="668" on="1"/>
        <pt x="217" y="668" on="0"/>
        <pt x="167" y="623" on="0"/>
        <pt x="162" y="585" on="1"/>
        <pt x="134" y="380" on="1"/>
        <pt x="462" y="380" on="1"/>
        <pt x="459" y="359" on="1"/>
        <pt x="131" y="359" on="1"/>
        <pt x="95" y="103" on="1"/>
        <pt x="90" y="67" on="0"/>
        <pt x="128" y="22" on="0"/>
        <pt x="164" y="22" on="1"/>
        <pt x="452" y="22" on="1"/>
        <pt x="453" y="4" on="1"/>
        <pt x="354" y="0" on="0"/>
        <pt x="159" y="0" on="1"/>
        <pt x="114" y="0" on="0"/>
        <pt x="63" y="59" on="0"/>
        <pt x="70" y="103" on="1"/>
        <pt x="138" y="589" on="1"/>
        <pt x="144" y="634" on="0"/>
        <pt x="204" y="690" on="0"/>
        <pt x="252" y="690" on="1"/>
        <pt x="449" y="690" on="0"/>
        <pt x="547" y="686" on="1"/>
      </contour>
    </TTGlyph>
    <TTGlyph name="Emacron" xMin="70" yMin="0" xMax="547" yMax="852">
      <contour>
        <pt x="506" y="829" on="1"/>
        <pt x="246" y="829" on="1"/>
        <pt x="249" y="852" on="1"/>
        <pt x="509" y="852" on="1"/>
      </contour>
      <contour>
        <pt x="543" y="668" on="1"/>
        <pt x="257" y="668" on="1"/>
        <pt x="217" y="668" on="0"/>
        <pt x="167" y="623" on="0"/>
        <pt x="162" y="585" on="1"/>
        <pt x="134" y="380" on="1"/>
        <pt x="462" y="380" on="1"/>
        <pt x="459" y="359" on="1"/>
        <pt x="131" y="359" on="1"/>
        <pt x="95" y="103" on="1"/>
        <pt x="90" y="67" on="0"/>
        <pt x="128" y="22" on="0"/>
        <pt x="164" y="22" on="1"/>
        <pt x="452" y="22" on="1"/>
        <pt x="453" y="4" on="1"/>
        <pt x="354" y="0" on="0"/>
        <pt x="159" y="0" on="1"/>
        <pt x="114" y="0" on="0"/>
        <pt x="63" y="59" on="0"/>
        <pt x="70" y="103" on="1"/>
        <pt x="138" y="589" on="1"/>
        <pt x="144" y="634" on="0"/>
        <pt x="204" y="690" on="0"/>
        <pt x="252" y="690" on="1"/>
        <pt x="449" y="690" on="0"/>
        <pt x="547" y="686" on="1"/>
      </contour>
    </TTGlyph>
    <TTGlyph name="Eng" xMin="62" yMin="-222" xMax="641" yMax="690">
      <contour>
        <pt x="641" y="690" on="1"/>
        <pt x="530" y="-102" on="1"/>
        <pt x="513" y="-223" on="0"/>
        <pt x="393" y="-222" on="1"/>
        <pt x="363" y="-222" on="0"/>
        <pt x="329" y="-216" on="1"/>
        <pt x="333" y="-200" on="1"/>
        <pt x="390" y="-200" on="1"/>
        <pt x="491" y="-200" on="0"/>
        <pt x="505" y="-99" on="1"/>
        <pt x="519" y="0" on="1"/>
        <pt x="489" y="0" on="1"/>
        <pt x="477" y="0" on="0"/>
        <pt x="472" y="12" on="1"/>
        <pt x="234" y="601" on="1"/>
        <pt x="229" y="613" on="0"/>
        <pt x="210" y="657" on="0"/>
        <pt x="206" y="668" on="1"/>
        <pt x="181" y="668" on="1"/>
        <pt x="172" y="602" on="1"/>
        <pt x="87" y="0" on="1"/>
        <pt x="62" y="0" on="1"/>
        <pt x="157" y="676" on="1"/>
        <pt x="160" y="690" on="0"/>
        <pt x="173" y="690" on="1"/>
        <pt x="211" y="690" on="1"/>
        <pt x="224" y="690" on="0"/>
        <pt x="229" y="678" on="1"/>
        <pt x="462" y="102" on="1"/>
        <pt x="468" y="88" on="0"/>
        <pt x="488" y="34" on="0"/>
        <pt x="494" y="21" on="1"/>
        <pt x="522" y="21" on="1"/>
        <pt x="534" y="103" on="1"/>
        <pt x="616" y="690" on="1"/>
      </contour>
    </TTGlyph>
    <TTGlyph name="Eogonek" xMin="70" yMin="-198" xMax="547" yMax="690">
      <contour>
        <pt x="543" y="668" on="1"/>
        <pt x="257" y="668" on="1"/>
        <pt x="217" y="668" on="0"/>
        <pt x="167" y="623" on="0"/>
        <pt x="162" y="585" on="1"/>
        <pt x="134" y="380" on="1"/>
        <pt x="462" y="380" on="1"/>
        <pt x="459" y="359" on="1"/>
        <pt x="131" y="359" on="1"/>
        <pt x="95" y="103" on="1"/>
        <pt x="90" y="67" on="0"/>
        <pt x="128" y="22" on="0"/>
        <pt x="164" y="22" on="1"/>
        <pt x="452" y="22" on="1"/>
        <pt x="453" y="4" on="1"/>
        <pt x="379" y="-61" on="0"/>
        <pt x="348" y="-124" on="1"/>
        <pt x="326" y="-169" on="0"/>
        <pt x="373" y="-199" on="0"/>
        <pt x="433" y="-178" on="1"/>
        <pt x="436" y="-190" on="1"/>
        <pt x="356" y="-222" on="0"/>
        <pt x="300" y="-173" on="0"/>
        <pt x="327" y="-118" on="1"/>
        <pt x="358" y="-58" on="0"/>
        <pt x="433" y="3" on="1"/>
        <pt x="341" y="0" on="0"/>
        <pt x="159" y="0" on="1"/>
        <pt x="114" y="0" on="0"/>
        <pt x="63" y="59" on="0"/>
        <pt x="70" y="103" on="1"/>
        <pt x="138" y="589" on="1"/>
        <pt x="144" y="634" on="0"/>
        <pt x="204" y="690" on="0"/>
        <pt x="252" y="690" on="1"/>
        <pt x="449" y="690" on="0"/>
        <pt x="547" y="686" on="1"/>
      </contour>
    </TTGlyph>
    <TTGlyph name="Eth" xMin="30" yMin="-9" xMax="590" yMax="699">
      <contour>
        <pt x="116" y="381" on="1"/>
        <pt x="159" y="690" on="1"/>
        <pt x="280" y="699" on="0"/>
        <pt x="388" y="699" on="1"/>
        <pt x="527" y="699" on="0"/>
        <pt x="617" y="539" on="0"/>
        <pt x="590" y="343" on="1"/>
        <pt x="563" y="146" on="0"/>
        <pt x="431" y="-9" on="0"/>
        <pt x="292" y="-9" on="1"/>
        <pt x="183" y="-9" on="0"/>
        <pt x="62" y="0" on="1"/>
        <pt x="113" y="361" on="1"/>
        <pt x="30" y="361" on="1"/>
        <pt x="33" y="381" on="1"/>
      </contour>
      <contour>
        <pt x="138" y="361" on="1"/>
        <pt x="89" y="17" on="1"/>
        <pt x="272" y="14" on="0"/>
        <pt x="291" y="14" on="1"/>
        <pt x="417" y="14" on="0"/>
        <pt x="539" y="160" on="0"/>
        <pt x="565" y="347" on="1"/>
        <pt x="590" y="530" on="0"/>
        <pt x="512" y="676" on="0"/>
        <pt x="388" y="676" on="1"/>
        <pt x="302" y="676" on="0"/>
        <pt x="182" y="672" on="1"/>
        <pt x="141" y="381" on="1"/>
        <pt x="321" y="381" on="1"/>
        <pt x="318" y="361" on="1"/>
      </contour>
    </TTGlyph>
    <TTGlyph name="Euro" xMin="63" yMin="-12" xMax="630" yMax="702">
      <contour>
        <pt x="630" y="685" on="1"/>
        <pt x="623" y="667" on="1"/>
        <pt x="557" y="679" on="0"/>
        <pt x="493" y="679" on="1"/>
        <pt x="378" y="679" on="0"/>
        <pt x="243" y="574" on="0"/>
        <pt x="210" y="436" on="1"/>
        <pt x="500" y="436" on="1"/>
        <pt x="489" y="415" on="1"/>
        <pt x="205" y="415" on="1"/>
        <pt x="199" y="382" on="0"/>
        <pt x="193" y="343" on="1"/>
        <pt x="189" y="310" on="0"/>
        <pt x="188" y="297" on="1"/>
        <pt x="447" y="297" on="1"/>
        <pt x="436" y="276" on="1"/>
        <pt x="186" y="276" on="1"/>
        <pt x="175" y="129" on="0"/>
        <pt x="273" y="11" on="0"/>
        <pt x="392" y="11" on="1"/>
        <pt x="474" y="11" on="0"/>
        <pt x="539" y="24" on="1"/>
        <pt x="544" y="6" on="1"/>
        <pt x="475" y="-12" on="0"/>
        <pt x="391" y="-12" on="1"/>
        <pt x="254" y="-12" on="0"/>
        <pt x="149" y="126" on="0"/>
        <pt x="160" y="276" on="1"/>
        <pt x="63" y="276" on="1"/>
        <pt x="66" y="297" on="1"/>
        <pt x="162" y="297" on="1"/>
        <pt x="164" y="313" on="0"/>
        <pt x="168" y="347" on="1"/>
        <pt x="173" y="384" on="0"/>
        <pt x="180" y="415" on="1"/>
        <pt x="83" y="415" on="1"/>
        <pt x="86" y="436" on="1"/>
        <pt x="184" y="436" on="1"/>
        <pt x="216" y="576" on="0"/>
        <pt x="358" y="702" on="0"/>
        <pt x="490" y="702" on="1"/>
        <pt x="566" y="702" on="0"/>
      </contour>
    </TTGlyph>
    <TTGlyph name="F" xMin="59" yMin="0" xMax="544" yMax="690">
      <contour>
        <pt x="540" y="668" on="1"/>
        <pt x="261" y="668" on="1"/>
        <pt x="223" y="668" on="0"/>
        <pt x="172" y="625" on="0"/>
        <pt x="166" y="585" on="1"/>
        <pt x="137" y="376" on="1"/>
        <pt x="458" y="376" on="1"/>
        <pt x="455" y="355" on="1"/>
        <pt x="134" y="355" on="1"/>
        <pt x="84" y="0" on="1"/>
        <pt x="59" y="0" on="1"/>
        <pt x="142" y="589" on="1"/>
        <pt x="149" y="636" on="0"/>
        <pt x="210" y="690" on="0"/>
        <pt x="256" y="690" on="1"/>
        <pt x="448" y="690" on="0"/>
        <pt x="544" y="686" on="1"/>
      </contour>
    </TTGlyph>
    <TTGlyph name="G" xMin="82" yMin="-12" xMax="583" yMax="702">
      <contour>
        <pt x="583" y="685" on="1"/>
        <pt x="576" y="667" on="1"/>
        <pt x="493" y="679" on="0"/>
        <pt x="389" y="679" on="1"/>
        <pt x="255" y="679" on="0"/>
        <pt x="133" y="532" on="0"/>
        <pt x="107" y="343" on="1"/>
        <pt x="84" y="162" on="0"/>
        <pt x="154" y="11" on="0"/>
        <pt x="263" y="11" on="1"/>
        <pt x="324" y="11" on="0"/>
        <pt x="430" y="75" on="0"/>
        <pt x="494" y="133" on="1"/>
        <pt x="531" y="400" on="1"/>
        <pt x="556" y="400" on="1"/>
        <pt x="498" y="0" on="1"/>
        <pt x="481" y="0" on="1"/>
        <pt x="492" y="107" on="1"/>
        <pt x="379" y="-12" on="0"/>
        <pt x="262" y="-12" on="1"/>
        <pt x="140" y="-12" on="0"/>
        <pt x="57" y="155" on="0"/>
        <pt x="82" y="347" on="1"/>
        <pt x="109" y="544" on="0"/>
        <pt x="246" y="702" on="0"/>
        <pt x="388" y="702" on="1"/>
        <pt x="501" y="702" on="0"/>
      </contour>
    </TTGlyph>
    <TTGlyph name="Gbreve" xMin="82" yMin="-12" xMax="583" yMax="874">
      <contour>
        <pt x="533" y="874" on="1"/>
        <pt x="550" y="868" on="1"/>
        <pt x="543" y="815" on="0"/>
        <pt x="463" y="755" on="0"/>
        <pt x="401" y="755" on="1"/>
        <pt x="337" y="755" on="0"/>
        <pt x="271" y="817" on="0"/>
        <pt x="278" y="870" on="1"/>
        <pt x="296" y="872" on="1"/>
        <pt x="289" y="828" on="0"/>
        <pt x="346" y="779" on="0"/>
        <pt x="456" y="779" on="0"/>
        <pt x="527" y="829" on="0"/>
      </contour>
      <contour>
        <pt x="583" y="685" on="1"/>
        <pt x="576" y="667" on="1"/>
        <pt x="493" y="679" on="0"/>
        <pt x="389" y="679" on="1"/>
        <pt x="255" y="679" on="0"/>
        <pt x="133" y="532" on="0"/>
        <pt x="107" y="343" on="1"/>
        <pt x="84" y="162" on="0"/>
        <pt x="154" y="11" on="0"/>
        <pt x="263" y="11" on="1"/>
        <pt x="324" y="11" on="0"/>
        <pt x="430" y="75" on="0"/>
        <pt x="494" y="133" on="1"/>
        <pt x="531" y="400" on="1"/>
        <pt x="556" y="400" on="1"/>
        <pt x="498" y="0" on="1"/>
        <pt x="481" y="0" on="1"/>
        <pt x="492" y="107" on="1"/>
        <pt x="379" y="-12" on="0"/>
        <pt x="262" y="-12" on="1"/>
        <pt x="140" y="-12" on="0"/>
        <pt x="57" y="155" on="0"/>
        <pt x="82" y="347" on="1"/>
        <pt x="109" y="544" on="0"/>
        <pt x="246" y="702" on="0"/>
        <pt x="388" y="702" on="1"/>
        <pt x="501" y="702" on="0"/>
      </contour>
    </TTGlyph>
    <TTGlyph name="Gcommaaccent" xMin="82" yMin="-248" xMax="583" yMax="702">
      <contour>
        <pt x="583" y="685" on="1"/>
        <pt x="576" y="667" on="1"/>
        <pt x="493" y="679" on="0"/>
        <pt x="389" y="679" on="1"/>
        <pt x="255" y="679" on="0"/>
        <pt x="133" y="532" on="0"/>
        <pt x="107" y="343" on="1"/>
        <pt x="84" y="162" on="0"/>
        <pt x="154" y="11" on="0"/>
        <pt x="263" y="11" on="1"/>
        <pt x="324" y="11" on="0"/>
        <pt x="430" y="75" on="0"/>
        <pt x="494" y="133" on="1"/>
        <pt x="531" y="400" on="1"/>
        <pt x="556" y="400" on="1"/>
        <pt x="498" y="0" on="1"/>
        <pt x="481" y="0" on="1"/>
        <pt x="492" y="107" on="1"/>
        <pt x="379" y="-12" on="0"/>
        <pt x="262" y="-12" on="1"/>
        <pt x="140" y="-12" on="0"/>
        <pt x="57" y="155" on="0"/>
        <pt x="82" y="347" on="1"/>
        <pt x="109" y="544" on="0"/>
        <pt x="246" y="702" on="0"/>
        <pt x="388" y="702" on="1"/>
        <pt x="501" y="702" on="0"/>
      </contour>
      <contour>
        <pt x="267" y="-65" on="1"/>
        <pt x="278" y="-65" on="1"/>
        <pt x="286" y="-65" on="0"/>
        <pt x="285" y="-75" on="1"/>
        <pt x="276" y="-135" on="1"/>
        <pt x="268" y="-187" on="0"/>
        <pt x="242" y="-248" on="1"/>
        <pt x="228" y="-244" on="1"/>
        <pt x="242" y="-198" on="0"/>
        <pt x="251" y="-142" on="1"/>
        <pt x="244" y="-142" on="0"/>
        <pt x="246" y="-133" on="1"/>
        <pt x="255" y="-75" on="1"/>
        <pt x="256" y="-65" on="0"/>
      </contour>
    </TTGlyph>
    <TTGlyph name="Gdotaccent" xMin="82" yMin="-12" xMax="583" yMax="860">
      <contour>
        <pt x="407" y="774" on="1"/>
        <pt x="398" y="774" on="1"/>
        <pt x="385" y="774" on="0"/>
        <pt x="387" y="787" on="1"/>
        <pt x="395" y="847" on="1"/>
        <pt x="396" y="860" on="0"/>
        <pt x="408" y="860" on="1"/>
        <pt x="419" y="860" on="1"/>
        <pt x="430" y="860" on="0"/>
        <pt x="429" y="847" on="1"/>
        <pt x="421" y="787" on="1"/>
        <pt x="420" y="774" on="0"/>
      </contour>
      <contour>
        <pt x="583" y="685" on="1"/>
        <pt x="576" y="667" on="1"/>
        <pt x="493" y="679" on="0"/>
        <pt x="389" y="679" on="1"/>
        <pt x="255" y="679" on="0"/>
        <pt x="133" y="532" on="0"/>
        <pt x="107" y="343" on="1"/>
        <pt x="84" y="162" on="0"/>
        <pt x="154" y="11" on="0"/>
        <pt x="263" y="11" on="1"/>
        <pt x="324" y="11" on="0"/>
        <pt x="430" y="75" on="0"/>
        <pt x="494" y="133" on="1"/>
        <pt x="531" y="400" on="1"/>
        <pt x="556" y="400" on="1"/>
        <pt x="498" y="0" on="1"/>
        <pt x="481" y="0" on="1"/>
        <pt x="492" y="107" on="1"/>
        <pt x="379" y="-12" on="0"/>
        <pt x="262" y="-12" on="1"/>
        <pt x="140" y="-12" on="0"/>
        <pt x="57" y="155" on="0"/>
        <pt x="82" y="347" on="1"/>
        <pt x="109" y="544" on="0"/>
        <pt x="246" y="702" on="0"/>
        <pt x="388" y="702" on="1"/>
        <pt x="501" y="702" on="0"/>
      </contour>
    </TTGlyph>
    <TTGlyph name="H" xMin="62" yMin="0" xMax="610" yMax="690">
      <contour>
        <pt x="610" y="690" on="1"/>
        <pt x="513" y="0" on="1"/>
        <pt x="488" y="0" on="1"/>
        <pt x="538" y="359" on="1"/>
        <pt x="137" y="359" on="1"/>
        <pt x="87" y="0" on="1"/>
        <pt x="62" y="0" on="1"/>
        <pt x="159" y="690" on="1"/>
        <pt x="184" y="690" on="1"/>
        <pt x="141" y="381" on="1"/>
        <pt x="542" y="381" on="1"/>
        <pt x="585" y="690" on="1"/>
      </contour>
    </TTGlyph>
    <TTGlyph name="Hbar" xMin="56" yMin="0" xMax="670" yMax="690">
      <contour>
        <pt x="667" y="525" on="1"/>
        <pt x="587" y="525" on="1"/>
        <pt x="513" y="0" on="1"/>
        <pt x="488" y="0" on="1"/>
        <pt x="538" y="359" on="1"/>
        <pt x="137" y="359" on="1"/>
        <pt x="87" y="0" on="1"/>
        <pt x="62" y="0" on="1"/>
        <pt x="136" y="525" on="1"/>
        <pt x="56" y="525" on="1"/>
        <pt x="59" y="545" on="1"/>
        <pt x="139" y="545" on="1"/>
        <pt x="159" y="690" on="1"/>
        <pt x="184" y="690" on="1"/>
        <pt x="164" y="545" on="1"/>
        <pt x="565" y="545" on="1"/>
        <pt x="585" y="690" on="1"/>
        <pt x="610" y="690" on="1"/>
        <pt x="590" y="545" on="1"/>
        <pt x="670" y="545" on="1"/>
      </contour>
      <contour>
        <pt x="562" y="525" on="1"/>
        <pt x="161" y="525" on="1"/>
        <pt x="141" y="381" on="1"/>
        <pt x="542" y="381" on="1"/>
      </contour>
    </TTGlyph>
    <TTGlyph name="I" xMin="62" yMin="0" xMax="184" yMax="690">
      <contour>
        <pt x="87" y="0" on="1"/>
        <pt x="62" y="0" on="1"/>
        <pt x="159" y="690" on="1"/>
        <pt x="184" y="690" on="1"/>
      </contour>
    </TTGlyph>
    <TTGlyph name="IJ" xMin="62" yMin="-6" xMax="510" yMax="690">
      <contour>
        <pt x="87" y="0" on="1"/>
        <pt x="62" y="0" on="1"/>
        <pt x="159" y="690" on="1"/>
        <pt x="184" y="690" on="1"/>
      </contour>
      <contour>
        <pt x="510" y="690" on="1"/>
        <pt x="429" y="114" on="1"/>
        <pt x="412" y="-7" on="0"/>
        <pt x="292" y="-6" on="1"/>
        <pt x="264" y="-6" on="0"/>
        <pt x="228" y="0" on="1"/>
        <pt x="233" y="16" on="1"/>
        <pt x="290" y="16" on="1"/>
        <pt x="390" y="16" on="0"/>
        <pt x="405" y="117" on="1"/>
        <pt x="485" y="690" on="1"/>
      </contour>
    </TTGlyph>
    <TTGlyph name="Iacute" xMin="62" yMin="0" xMax="316" yMax="896">
      <contour>
        <pt x="316" y="877" on="1"/>
        <pt x="144" y="736" on="1"/>
        <pt x="130" y="750" on="1"/>
        <pt x="299" y="896" on="1"/>
      </contour>
      <contour>
        <pt x="87" y="0" on="1"/>
        <pt x="62" y="0" on="1"/>
        <pt x="159" y="690" on="1"/>
        <pt x="184" y="690" on="1"/>
      </contour>
    </TTGlyph>
    <TTGlyph name="Icircumflex" xMin="35" yMin="0" xMax="326" yMax="880">
      <contour>
        <pt x="326" y="763" on="1"/>
        <pt x="314" y="751" on="1"/>
        <pt x="199" y="853" on="1"/>
        <pt x="190" y="853" on="1"/>
        <pt x="45" y="750" on="1"/>
        <pt x="35" y="763" on="1"/>
        <pt x="187" y="880" on="1"/>
        <pt x="205" y="880" on="1"/>
      </contour>
      <contour>
        <pt x="87" y="0" on="1"/>
        <pt x="62" y="0" on="1"/>
        <pt x="159" y="690" on="1"/>
        <pt x="184" y="690" on="1"/>
      </contour>
    </TTGlyph>
    <TTGlyph name="Idieresis" xMin="62" yMin="0" xMax="296" yMax="856">
      <contour>
        <pt x="101" y="856" on="1"/>
        <pt x="110" y="856" on="1"/>
        <pt x="120" y="856" on="0"/>
        <pt x="119" y="844" on="1"/>
        <pt x="111" y="791" on="1"/>
        <pt x="110" y="778" on="0"/>
        <pt x="98" y="778" on="1"/>
        <pt x="91" y="778" on="1"/>
        <pt x="80" y="778" on="0"/>
        <pt x="81" y="790" on="1"/>
        <pt x="89" y="844" on="1"/>
        <pt x="90" y="856" on="0"/>
      </contour>
      <contour>
        <pt x="278" y="856" on="1"/>
        <pt x="287" y="856" on="1"/>
        <pt x="298" y="856" on="0"/>
        <pt x="296" y="844" on="1"/>
        <pt x="288" y="791" on="1"/>
        <pt x="287" y="778" on="0"/>
        <pt x="275" y="778" on="1"/>
        <pt x="268" y="778" on="1"/>
        <pt x="257" y="778" on="0"/>
        <pt x="258" y="790" on="1"/>
        <pt x="266" y="844" on="1"/>
        <pt x="268" y="856" on="0"/>
      </contour>
      <contour>
        <pt x="87" y="0" on="1"/>
        <pt x="62" y="0" on="1"/>
        <pt x="159" y="690" on="1"/>
        <pt x="184" y="690" on="1"/>
      </contour>
    </TTGlyph>
    <TTGlyph name="Idotaccent" xMin="62" yMin="0" xMax="210" yMax="860">
      <contour>
        <pt x="189" y="860" on="1"/>
        <pt x="200" y="860" on="1"/>
        <pt x="211" y="860" on="0"/>
        <pt x="210" y="847" on="1"/>
        <pt x="202" y="787" on="1"/>
        <pt x="201" y="774" on="0"/>
        <pt x="188" y="774" on="1"/>
        <pt x="179" y="774" on="1"/>
        <pt x="166" y="774" on="0"/>
        <pt x="168" y="787" on="1"/>
        <pt x="176" y="847" on="1"/>
        <pt x="177" y="860" on="0"/>
      </contour>
      <contour>
        <pt x="87" y="0" on="1"/>
        <pt x="62" y="0" on="1"/>
        <pt x="159" y="690" on="1"/>
        <pt x="184" y="690" on="1"/>
      </contour>
    </TTGlyph>
    <TTGlyph name="Igrave" xMin="62" yMin="0" xMax="217" yMax="895">
      <contour>
        <pt x="217" y="748" on="1"/>
        <pt x="203" y="736" on="1"/>
        <pt x="69" y="877" on="1"/>
        <pt x="88" y="895" on="1"/>
      </contour>
      <contour>
        <pt x="87" y="0" on="1"/>
        <pt x="62" y="0" on="1"/>
        <pt x="159" y="690" on="1"/>
        <pt x="184" y="690" on="1"/>
      </contour>
    </TTGlyph>
    <TTGlyph name="Imacron" xMin="57" yMin="0" xMax="320" yMax="827">
      <contour>
        <pt x="317" y="804" on="1"/>
        <pt x="57" y="804" on="1"/>
        <pt x="60" y="827" on="1"/>
        <pt x="320" y="827" on="1"/>
      </contour>
      <contour>
        <pt x="87" y="0" on="1"/>
        <pt x="62" y="0" on="1"/>
        <pt x="159" y="690" on="1"/>
        <pt x="184" y="690" on="1"/>
      </contour>
    </TTGlyph>
    <TTGlyph name="Iogonek" xMin="-39" yMin="-202" xMax="184" yMax="690">
      <contour>
        <pt x="184" y="690" on="1"/>
        <pt x="87" y="0" on="1"/>
        <pt x="13" y="-65" on="0"/>
        <pt x="-18" y="-128" on="1"/>
        <pt x="-40" y="-173" on="0"/>
        <pt x="7" y="-203" on="0"/>
        <pt x="67" y="-182" on="1"/>
        <pt x="70" y="-194" on="1"/>
        <pt x="-10" y="-226" on="0"/>
        <pt x="-66" y="-177" on="0"/>
        <pt x="-39" y="-122" on="1"/>
        <pt x="-9" y="-61" on="0"/>
        <pt x="68" y="0" on="1"/>
        <pt x="62" y="0" on="1"/>
        <pt x="159" y="690" on="1"/>
      </contour>
    </TTGlyph>
    <TTGlyph name="J" xMin="-3" yMin="-6" xMax="279" yMax="690">
      <contour>
        <pt x="279" y="690" on="1"/>
        <pt x="198" y="114" on="1"/>
        <pt x="181" y="-7" on="0"/>
        <pt x="61" y="-6" on="1"/>
        <pt x="33" y="-6" on="0"/>
        <pt x="-3" y="0" on="1"/>
        <pt x="2" y="16" on="1"/>
        <pt x="59" y="16" on="1"/>
        <pt x="159" y="16" on="0"/>
        <pt x="174" y="117" on="1"/>
        <pt x="254" y="690" on="1"/>
      </contour>
    </TTGlyph>
    <TTGlyph name="K" xMin="62" yMin="0" xMax="568" yMax="690">
      <contour>
        <pt x="268" y="361" on="1"/>
        <pt x="268" y="359" on="1"/>
        <pt x="278" y="347" on="0"/>
        <pt x="287" y="331" on="1"/>
        <pt x="488" y="0" on="1"/>
        <pt x="460" y="0" on="1"/>
        <pt x="246" y="349" on="1"/>
        <pt x="133" y="349" on="1"/>
        <pt x="130" y="305" on="0"/>
        <pt x="123" y="262" on="1"/>
        <pt x="86" y="0" on="1"/>
        <pt x="62" y="0" on="1"/>
        <pt x="159" y="690" on="1"/>
        <pt x="183" y="690" on="1"/>
        <pt x="150" y="453" on="1"/>
        <pt x="145" y="415" on="0"/>
        <pt x="136" y="371" on="1"/>
        <pt x="248" y="371" on="1"/>
        <pt x="537" y="690" on="1"/>
        <pt x="568" y="690" on="1"/>
        <pt x="301" y="393" on="1"/>
        <pt x="293" y="384" on="0"/>
      </contour>
    </TTGlyph>
    <TTGlyph name="Kcommaaccent" xMin="62" yMin="-248" xMax="568" yMax="690">
      <contour>
        <pt x="268" y="361" on="1"/>
        <pt x="268" y="359" on="1"/>
        <pt x="278" y="347" on="0"/>
        <pt x="287" y="331" on="1"/>
        <pt x="488" y="0" on="1"/>
        <pt x="460" y="0" on="1"/>
        <pt x="246" y="349" on="1"/>
        <pt x="133" y="349" on="1"/>
        <pt x="130" y="305" on="0"/>
        <pt x="123" y="262" on="1"/>
        <pt x="86" y="0" on="1"/>
        <pt x="62" y="0" on="1"/>
        <pt x="159" y="690" on="1"/>
        <pt x="183" y="690" on="1"/>
        <pt x="150" y="453" on="1"/>
        <pt x="145" y="415" on="0"/>
        <pt x="136" y="371" on="1"/>
        <pt x="248" y="371" on="1"/>
        <pt x="537" y="690" on="1"/>
        <pt x="568" y="690" on="1"/>
        <pt x="301" y="393" on="1"/>
        <pt x="293" y="384" on="0"/>
      </contour>
      <contour>
        <pt x="260" y="-65" on="1"/>
        <pt x="271" y="-65" on="1"/>
        <pt x="279" y="-65" on="0"/>
        <pt x="278" y="-75" on="1"/>
        <pt x="269" y="-135" on="1"/>
        <pt x="261" y="-187" on="0"/>
        <pt x="235" y="-248" on="1"/>
        <pt x="221" y="-244" on="1"/>
        <pt x="235" y="-198" on="0"/>
        <pt x="244" y="-142" on="1"/>
        <pt x="237" y="-142" on="0"/>
        <pt x="239" y="-133" on="1"/>
        <pt x="248" y="-75" on="1"/>
        <pt x="249" y="-65" on="0"/>
      </contour>
    </TTGlyph>
    <TTGlyph name="L" xMin="74" yMin="0" xMax="441" yMax="690">
      <contour>
        <pt x="181" y="690" on="1"/>
        <pt x="99" y="103" on="1"/>
        <pt x="94" y="67" on="0"/>
        <pt x="132" y="22" on="0"/>
        <pt x="168" y="22" on="1"/>
        <pt x="441" y="22" on="1"/>
        <pt x="440" y="4" on="1"/>
        <pt x="347" y="0" on="0"/>
        <pt x="163" y="0" on="1"/>
        <pt x="118" y="0" on="0"/>
        <pt x="67" y="59" on="0"/>
        <pt x="74" y="103" on="1"/>
        <pt x="156" y="690" on="1"/>
      </contour>
    </TTGlyph>
    <TTGlyph name="Lacute" xMin="74" yMin="0" xMax="441" yMax="896">
      <contour>
        <pt x="314" y="877" on="1"/>
        <pt x="142" y="736" on="1"/>
        <pt x="128" y="750" on="1"/>
        <pt x="297" y="896" on="1"/>
      </contour>
      <contour>
        <pt x="181" y="690" on="1"/>
        <pt x="99" y="103" on="1"/>
        <pt x="94" y="67" on="0"/>
        <pt x="132" y="22" on="0"/>
        <pt x="168" y="22" on="1"/>
        <pt x="441" y="22" on="1"/>
        <pt x="440" y="4" on="1"/>
        <pt x="347" y="0" on="0"/>
        <pt x="163" y="0" on="1"/>
        <pt x="118" y="0" on="0"/>
        <pt x="67" y="59" on="0"/>
        <pt x="74" y="103" on="1"/>
        <pt x="156" y="690" on="1"/>
      </contour>
    </TTGlyph>
    <TTGlyph name="Lcaron" xMin="74" yMin="0" xMax="441" yMax="690">
      <contour>
        <pt x="181" y="690" on="1"/>
        <pt x="99" y="103" on="1"/>
        <pt x="94" y="67" on="0"/>
        <pt x="132" y="22" on="0"/>
        <pt x="168" y="22" on="1"/>
        <pt x="441" y="22" on="1"/>
        <pt x="440" y="4" on="1"/>
        <pt x="347" y="0" on="0"/>
        <pt x="163" y="0" on="1"/>
        <pt x="118" y="0" on="0"/>
        <pt x="67" y="59" on="0"/>
        <pt x="74" y="103" on="1"/>
        <pt x="156" y="690" on="1"/>
      </contour>
      <contour>
        <pt x="310" y="686" on="1"/>
        <pt x="321" y="686" on="1"/>
        <pt x="329" y="686" on="0"/>
        <pt x="328" y="676" on="1"/>
        <pt x="319" y="616" on="1"/>
        <pt x="311" y="564" on="0"/>
        <pt x="285" y="503" on="1"/>
        <pt x="271" y="507" on="1"/>
        <pt x="285" y="553" on="0"/>
        <pt x="294" y="609" on="1"/>
        <pt x="287" y="609" on="0"/>
        <pt x="289" y="618" on="1"/>
        <pt x="298" y="676" on="1"/>
        <pt x="299" y="686" on="0"/>
      </contour>
    </TTGlyph>
    <TTGlyph name="Lcommaaccent" xMin="74" yMin="-258" xMax="441" yMax="690">
      <contour>
        <pt x="181" y="690" on="1"/>
        <pt x="99" y="103" on="1"/>
        <pt x="94" y="67" on="0"/>
        <pt x="132" y="22" on="0"/>
        <pt x="168" y="22" on="1"/>
        <pt x="441" y="22" on="1"/>
        <pt x="440" y="4" on="1"/>
        <pt x="347" y="0" on="0"/>
        <pt x="163" y="0" on="1"/>
        <pt x="118" y="0" on="0"/>
        <pt x="67" y="59" on="0"/>
        <pt x="74" y="103" on="1"/>
        <pt x="156" y="690" on="1"/>
      </contour>
      <contour>
        <pt x="245" y="-75" on="1"/>
        <pt x="256" y="-75" on="1"/>
        <pt x="264" y="-75" on="0"/>
        <pt x="263" y="-85" on="1"/>
        <pt x="254" y="-145" on="1"/>
        <pt x="246" y="-197" on="0"/>
        <pt x="220" y="-258" on="1"/>
        <pt x="206" y="-254" on="1"/>
        <pt x="220" y="-208" on="0"/>
        <pt x="229" y="-152" on="1"/>
        <pt x="222" y="-152" on="0"/>
        <pt x="224" y="-143" on="1"/>
        <pt x="233" y="-85" on="1"/>
        <pt x="234" y="-75" on="0"/>
      </contour>
    </TTGlyph>
    <TTGlyph name="Ldot" xMin="74" yMin="0" xMax="441" yMax="690">
      <contour>
        <pt x="181" y="690" on="1"/>
        <pt x="99" y="103" on="1"/>
        <pt x="94" y="67" on="0"/>
        <pt x="132" y="22" on="0"/>
        <pt x="168" y="22" on="1"/>
        <pt x="441" y="22" on="1"/>
        <pt x="440" y="4" on="1"/>
        <pt x="347" y="0" on="0"/>
        <pt x="163" y="0" on="1"/>
        <pt x="118" y="0" on="0"/>
        <pt x="67" y="59" on="0"/>
        <pt x="74" y="103" on="1"/>
        <pt x="156" y="690" on="1"/>
      </contour>
      <contour>
        <pt x="367" y="331" on="1"/>
        <pt x="356" y="331" on="1"/>
        <pt x="345" y="331" on="0"/>
        <pt x="346" y="344" on="1"/>
        <pt x="354" y="404" on="1"/>
        <pt x="355" y="417" on="0"/>
        <pt x="368" y="417" on="1"/>
        <pt x="377" y="417" on="1"/>
        <pt x="390" y="417" on="0"/>
        <pt x="388" y="404" on="1"/>
        <pt x="380" y="344" on="1"/>
        <pt x="379" y="331" on="0"/>
      </contour>
    </TTGlyph>
    <TTGlyph name="Lslash" xMin="31" yMin="0" xMax="441" yMax="690">
      <contour>
        <pt x="441" y="22" on="1"/>
        <pt x="440" y="4" on="1"/>
        <pt x="347" y="0" on="0"/>
        <pt x="163" y="0" on="1"/>
        <pt x="118" y="0" on="0"/>
        <pt x="67" y="59" on="0"/>
        <pt x="74" y="103" on="1"/>
        <pt x="109" y="356" on="1"/>
        <pt x="31" y="323" on="1"/>
        <pt x="33" y="343" on="1"/>
        <pt x="112" y="376" on="1"/>
        <pt x="156" y="690" on="1"/>
        <pt x="181" y="690" on="1"/>
        <pt x="139" y="387" on="1"/>
        <pt x="279" y="445" on="1"/>
        <pt x="276" y="425" on="1"/>
        <pt x="136" y="367" on="1"/>
        <pt x="99" y="103" on="1"/>
        <pt x="94" y="67" on="0"/>
        <pt x="132" y="22" on="0"/>
        <pt x="168" y="22" on="1"/>
      </contour>
    </TTGlyph>
    <TTGlyph name="M" xMin="47" yMin="0" xMax="790" yMax="690">
      <contour>
        <pt x="734" y="690" on="1"/>
        <pt x="776" y="690" on="1"/>
        <pt x="792" y="690" on="0"/>
        <pt x="790" y="674" on="1"/>
        <pt x="725" y="0" on="1"/>
        <pt x="700" y="0" on="1"/>
        <pt x="764" y="668" on="1"/>
        <pt x="740" y="668" on="1"/>
        <pt x="430" y="68" on="1"/>
        <pt x="426" y="60" on="0"/>
        <pt x="417" y="60" on="1"/>
        <pt x="375" y="60" on="1"/>
        <pt x="364" y="60" on="0"/>
        <pt x="362" y="70" on="1"/>
        <pt x="220" y="668" on="1"/>
        <pt x="196" y="668" on="1"/>
        <pt x="72" y="0" on="1"/>
        <pt x="47" y="0" on="1"/>
        <pt x="172" y="676" on="1"/>
        <pt x="175" y="690" on="0"/>
        <pt x="188" y="690" on="1"/>
        <pt x="229" y="690" on="1"/>
        <pt x="240" y="690" on="0"/>
        <pt x="242" y="680" on="1"/>
        <pt x="362" y="175" on="1"/>
        <pt x="366" y="159" on="0"/>
        <pt x="380" y="97" on="0"/>
        <pt x="384" y="81" on="1"/>
        <pt x="411" y="81" on="1"/>
        <pt x="460" y="179" on="1"/>
        <pt x="721" y="682" on="1"/>
        <pt x="725" y="690" on="0"/>
      </contour>
    </TTGlyph>
    <TTGlyph name="N" xMin="62" yMin="0" xMax="641" yMax="690">
      <contour>
        <pt x="641" y="690" on="1"/>
        <pt x="546" y="14" on="1"/>
        <pt x="545" y="0" on="0"/>
        <pt x="530" y="0" on="1"/>
        <pt x="489" y="0" on="1"/>
        <pt x="477" y="0" on="0"/>
        <pt x="472" y="12" on="1"/>
        <pt x="234" y="601" on="1"/>
        <pt x="229" y="613" on="0"/>
        <pt x="210" y="657" on="0"/>
        <pt x="206" y="668" on="1"/>
        <pt x="181" y="668" on="1"/>
        <pt x="179" y="655" on="0"/>
        <pt x="172" y="603" on="0"/>
        <pt x="170" y="590" on="1"/>
        <pt x="87" y="0" on="1"/>
        <pt x="62" y="0" on="1"/>
        <pt x="157" y="676" on="1"/>
        <pt x="160" y="690" on="0"/>
        <pt x="173" y="690" on="1"/>
        <pt x="211" y="690" on="1"/>
        <pt x="224" y="690" on="0"/>
        <pt x="229" y="678" on="1"/>
        <pt x="462" y="102" on="1"/>
        <pt x="468" y="88" on="0"/>
        <pt x="488" y="34" on="0"/>
        <pt x="494" y="21" on="1"/>
        <pt x="522" y="21" on="1"/>
        <pt x="534" y="106" on="1"/>
        <pt x="616" y="690" on="1"/>
      </contour>
    </TTGlyph>
    <TTGlyph name="Nacute" xMin="62" yMin="0" xMax="641" yMax="896">
      <contour>
        <pt x="554" y="877" on="1"/>
        <pt x="382" y="736" on="1"/>
        <pt x="368" y="750" on="1"/>
        <pt x="537" y="896" on="1"/>
      </contour>
      <contour>
        <pt x="641" y="690" on="1"/>
        <pt x="546" y="14" on="1"/>
        <pt x="545" y="0" on="0"/>
        <pt x="530" y="0" on="1"/>
        <pt x="489" y="0" on="1"/>
        <pt x="477" y="0" on="0"/>
        <pt x="472" y="12" on="1"/>
        <pt x="234" y="601" on="1"/>
        <pt x="229" y="613" on="0"/>
        <pt x="210" y="657" on="0"/>
        <pt x="206" y="668" on="1"/>
        <pt x="181" y="668" on="1"/>
        <pt x="179" y="655" on="0"/>
        <pt x="172" y="603" on="0"/>
        <pt x="170" y="590" on="1"/>
        <pt x="87" y="0" on="1"/>
        <pt x="62" y="0" on="1"/>
        <pt x="157" y="676" on="1"/>
        <pt x="160" y="690" on="0"/>
        <pt x="173" y="690" on="1"/>
        <pt x="211" y="690" on="1"/>
        <pt x="224" y="690" on="0"/>
        <pt x="229" y="678" on="1"/>
        <pt x="462" y="102" on="1"/>
        <pt x="468" y="88" on="0"/>
        <pt x="488" y="34" on="0"/>
        <pt x="494" y="21" on="1"/>
        <pt x="522" y="21" on="1"/>
        <pt x="534" y="106" on="1"/>
        <pt x="616" y="690" on="1"/>
      </contour>
    </TTGlyph>
    <TTGlyph name="Ncaron" xMin="62" yMin="0" xMax="641" yMax="880">
      <contour>
        <pt x="581" y="868" on="1"/>
        <pt x="427" y="751" on="1"/>
        <pt x="409" y="751" on="1"/>
        <pt x="289" y="868" on="1"/>
        <pt x="300" y="880" on="1"/>
        <pt x="416" y="778" on="1"/>
        <pt x="424" y="778" on="1"/>
        <pt x="570" y="880" on="1"/>
      </contour>
      <contour>
        <pt x="641" y="690" on="1"/>
        <pt x="546" y="14" on="1"/>
        <pt x="545" y="0" on="0"/>
        <pt x="530" y="0" on="1"/>
        <pt x="489" y="0" on="1"/>
        <pt x="477" y="0" on="0"/>
        <pt x="472" y="12" on="1"/>
        <pt x="234" y="601" on="1"/>
        <pt x="229" y="613" on="0"/>
        <pt x="210" y="657" on="0"/>
        <pt x="206" y="668" on="1"/>
        <pt x="181" y="668" on="1"/>
        <pt x="179" y="655" on="0"/>
        <pt x="172" y="603" on="0"/>
        <pt x="170" y="590" on="1"/>
        <pt x="87" y="0" on="1"/>
        <pt x="62" y="0" on="1"/>
        <pt x="157" y="676" on="1"/>
        <pt x="160" y="690" on="0"/>
        <pt x="173" y="690" on="1"/>
        <pt x="211" y="690" on="1"/>
        <pt x="224" y="690" on="0"/>
        <pt x="229" y="678" on="1"/>
        <pt x="462" y="102" on="1"/>
        <pt x="468" y="88" on="0"/>
        <pt x="488" y="34" on="0"/>
        <pt x="494" y="21" on="1"/>
        <pt x="522" y="21" on="1"/>
        <pt x="534" y="106" on="1"/>
        <pt x="616" y="690" on="1"/>
      </contour>
    </TTGlyph>
    <TTGlyph name="Ncommaaccent" xMin="62" yMin="-248" xMax="641" yMax="690">
      <contour>
        <pt x="641" y="690" on="1"/>
        <pt x="546" y="14" on="1"/>
        <pt x="545" y="0" on="0"/>
        <pt x="530" y="0" on="1"/>
        <pt x="489" y="0" on="1"/>
        <pt x="477" y="0" on="0"/>
        <pt x="472" y="12" on="1"/>
        <pt x="234" y="601" on="1"/>
        <pt x="229" y="613" on="0"/>
        <pt x="210" y="657" on="0"/>
        <pt x="206" y="668" on="1"/>
        <pt x="181" y="668" on="1"/>
        <pt x="179" y="655" on="0"/>
        <pt x="172" y="603" on="0"/>
        <pt x="170" y="590" on="1"/>
        <pt x="87" y="0" on="1"/>
        <pt x="62" y="0" on="1"/>
        <pt x="157" y="676" on="1"/>
        <pt x="160" y="690" on="0"/>
        <pt x="173" y="690" on="1"/>
        <pt x="211" y="690" on="1"/>
        <pt x="224" y="690" on="0"/>
        <pt x="229" y="678" on="1"/>
        <pt x="462" y="102" on="1"/>
        <pt x="468" y="88" on="0"/>
        <pt x="488" y="34" on="0"/>
        <pt x="494" y="21" on="1"/>
        <pt x="522" y="21" on="1"/>
        <pt x="534" y="106" on="1"/>
        <pt x="616" y="690" on="1"/>
      </contour>
      <contour>
        <pt x="295" y="-65" on="1"/>
        <pt x="306" y="-65" on="1"/>
        <pt x="314" y="-65" on="0"/>
        <pt x="313" y="-75" on="1"/>
        <pt x="304" y="-135" on="1"/>
        <pt x="296" y="-187" on="0"/>
        <pt x="270" y="-248" on="1"/>
        <pt x="256" y="-244" on="1"/>
        <pt x="270" y="-198" on="0"/>
        <pt x="279" y="-142" on="1"/>
        <pt x="272" y="-142" on="0"/>
        <pt x="274" y="-133" on="1"/>
        <pt x="283" y="-75" on="1"/>
        <pt x="284" y="-65" on="0"/>
      </contour>
    </TTGlyph>
    <TTGlyph name="Ntilde" xMin="62" yMin="0" xMax="641" yMax="866">
      <contour>
        <pt x="293" y="776" on="1"/>
        <pt x="276" y="778" on="1"/>
        <pt x="281" y="823" on="0"/>
        <pt x="327" y="869" on="0"/>
        <pt x="362" y="866" on="1"/>
        <pt x="392" y="863" on="0"/>
        <pt x="464" y="800" on="0"/>
        <pt x="492" y="798" on="1"/>
        <pt x="523" y="796" on="0"/>
        <pt x="556" y="827" on="0"/>
        <pt x="561" y="862" on="1"/>
        <pt x="578" y="860" on="1"/>
        <pt x="574" y="817" on="0"/>
        <pt x="528" y="773" on="0"/>
        <pt x="493" y="776" on="1"/>
        <pt x="457" y="779" on="0"/>
        <pt x="384" y="842" on="0"/>
        <pt x="363" y="844" on="1"/>
        <pt x="304" y="850" on="0"/>
      </contour>
      <contour>
        <pt x="641" y="690" on="1"/>
        <pt x="546" y="14" on="1"/>
        <pt x="545" y="0" on="0"/>
        <pt x="530" y="0" on="1"/>
        <pt x="489" y="0" on="1"/>
        <pt x="477" y="0" on="0"/>
        <pt x="472" y="12" on="1"/>
        <pt x="234" y="601" on="1"/>
        <pt x="229" y="613" on="0"/>
        <pt x="210" y="657" on="0"/>
        <pt x="206" y="668" on="1"/>
        <pt x="181" y="668" on="1"/>
        <pt x="179" y="655" on="0"/>
        <pt x="172" y="603" on="0"/>
        <pt x="170" y="590" on="1"/>
        <pt x="87" y="0" on="1"/>
        <pt x="62" y="0" on="1"/>
        <pt x="157" y="676" on="1"/>
        <pt x="160" y="690" on="0"/>
        <pt x="173" y="690" on="1"/>
        <pt x="211" y="690" on="1"/>
        <pt x="224" y="690" on="0"/>
        <pt x="229" y="678" on="1"/>
        <pt x="462" y="102" on="1"/>
        <pt x="468" y="88" on="0"/>
        <pt x="488" y="34" on="0"/>
        <pt x="494" y="21" on="1"/>
        <pt x="522" y="21" on="1"/>
        <pt x="534" y="106" on="1"/>
        <pt x="616" y="690" on="1"/>
      </contour>
    </TTGlyph>
    <TTGlyph name="O" xMin="83" yMin="-12" xMax="592" yMax="702">
      <contour>
        <pt x="386" y="702" on="1"/>
        <pt x="528" y="702" on="0"/>
        <pt x="621" y="541" on="0"/>
        <pt x="592" y="343" on="1"/>
        <pt x="565" y="146" on="0"/>
        <pt x="431" y="-12" on="0"/>
        <pt x="290" y="-12" on="1"/>
        <pt x="148" y="-12" on="0"/>
        <pt x="55" y="149" on="0"/>
        <pt x="83" y="347" on="1"/>
        <pt x="111" y="544" on="0"/>
        <pt x="245" y="702" on="0"/>
      </contour>
      <contour>
        <pt x="386" y="679" on="1"/>
        <pt x="256" y="679" on="0"/>
        <pt x="134" y="531" on="0"/>
        <pt x="108" y="343" on="1"/>
        <pt x="83" y="158" on="0"/>
        <pt x="163" y="11" on="0"/>
        <pt x="289" y="11" on="1"/>
        <pt x="419" y="11" on="0"/>
        <pt x="541" y="159" on="0"/>
        <pt x="567" y="347" on="1"/>
        <pt x="593" y="533" on="0"/>
        <pt x="515" y="679" on="0"/>
      </contour>
    </TTGlyph>
    <TTGlyph name="OE" xMin="84" yMin="-12" xMax="886" yMax="702">
      <contour>
        <pt x="884" y="668" on="1"/>
        <pt x="616" y="668" on="1"/>
        <pt x="580" y="668" on="0"/>
        <pt x="526" y="621" on="0"/>
        <pt x="521" y="585" on="1"/>
        <pt x="493" y="380" on="1"/>
        <pt x="801" y="380" on="1"/>
        <pt x="798" y="359" on="1"/>
        <pt x="490" y="359" on="1"/>
        <pt x="454" y="103" on="1"/>
        <pt x="449" y="67" on="0"/>
        <pt x="487" y="22" on="0"/>
        <pt x="523" y="22" on="1"/>
        <pt x="793" y="22" on="1"/>
        <pt x="792" y="4" on="1"/>
        <pt x="699" y="0" on="0"/>
        <pt x="518" y="0" on="1"/>
        <pt x="479" y="0" on="0"/>
        <pt x="455" y="22" on="1"/>
        <pt x="377" y="-12" on="0"/>
        <pt x="299" y="-12" on="1"/>
        <pt x="149" y="-12" on="0"/>
        <pt x="56" y="145" on="0"/>
        <pt x="84" y="347" on="1"/>
        <pt x="112" y="546" on="0"/>
        <pt x="247" y="702" on="0"/>
        <pt x="397" y="702" on="1"/>
        <pt x="477" y="702" on="0"/>
        <pt x="544" y="669" on="1"/>
        <pt x="575" y="690" on="0"/>
        <pt x="611" y="690" on="1"/>
        <pt x="794" y="690" on="0"/>
        <pt x="886" y="686" on="1"/>
      </contour>
      <contour>
        <pt x="429" y="103" on="1"/>
        <pt x="497" y="589" on="1"/>
        <pt x="501" y="625" on="0"/>
        <pt x="526" y="653" on="1"/>
        <pt x="471" y="679" on="0"/>
        <pt x="396" y="679" on="1"/>
        <pt x="259" y="679" on="0"/>
        <pt x="136" y="534" on="0"/>
        <pt x="109" y="343" on="1"/>
        <pt x="82" y="157" on="0"/>
        <pt x="164" y="11" on="0"/>
        <pt x="301" y="11" on="1"/>
        <pt x="369" y="11" on="0"/>
        <pt x="441" y="39" on="1"/>
        <pt x="423" y="67" on="0"/>
      </contour>
    </TTGlyph>
    <TTGlyph name="Oacute" xMin="83" yMin="-12" xMax="592" yMax="896">
      <contour>
        <pt x="537" y="877" on="1"/>
        <pt x="365" y="736" on="1"/>
        <pt x="351" y="750" on="1"/>
        <pt x="520" y="896" on="1"/>
      </contour>
      <contour>
        <pt x="386" y="702" on="1"/>
        <pt x="528" y="702" on="0"/>
        <pt x="621" y="541" on="0"/>
        <pt x="592" y="343" on="1"/>
        <pt x="565" y="146" on="0"/>
        <pt x="431" y="-12" on="0"/>
        <pt x="290" y="-12" on="1"/>
        <pt x="148" y="-12" on="0"/>
        <pt x="55" y="149" on="0"/>
        <pt x="83" y="347" on="1"/>
        <pt x="111" y="544" on="0"/>
        <pt x="245" y="702" on="0"/>
      </contour>
      <contour>
        <pt x="386" y="679" on="1"/>
        <pt x="256" y="679" on="0"/>
        <pt x="134" y="531" on="0"/>
        <pt x="108" y="343" on="1"/>
        <pt x="83" y="158" on="0"/>
        <pt x="163" y="11" on="0"/>
        <pt x="289" y="11" on="1"/>
        <pt x="419" y="11" on="0"/>
        <pt x="541" y="159" on="0"/>
        <pt x="567" y="347" on="1"/>
        <pt x="593" y="533" on="0"/>
        <pt x="515" y="679" on="0"/>
      </contour>
    </TTGlyph>
    <TTGlyph name="Ocircumflex" xMin="83" yMin="-12" xMax="592" yMax="880">
      <contour>
        <pt x="547" y="763" on="1"/>
        <pt x="535" y="751" on="1"/>
        <pt x="420" y="853" on="1"/>
        <pt x="411" y="853" on="1"/>
        <pt x="266" y="750" on="1"/>
        <pt x="256" y="763" on="1"/>
        <pt x="408" y="880" on="1"/>
        <pt x="426" y="880" on="1"/>
      </contour>
      <contour>
        <pt x="386" y="702" on="1"/>
        <pt x="528" y="702" on="0"/>
        <pt x="621" y="541" on="0"/>
        <pt x="592" y="343" on="1"/>
        <pt x="565" y="146" on="0"/>
        <pt x="431" y="-12" on="0"/>
        <pt x="290" y="-12" on="1"/>
        <pt x="148" y="-12" on="0"/>
        <pt x="55" y="149" on="0"/>
        <pt x="83" y="347" on="1"/>
        <pt x="111" y="544" on="0"/>
        <pt x="245" y="702" on="0"/>
      </contour>
      <contour>
        <pt x="386" y="679" on="1"/>
        <pt x="256" y="679" on="0"/>
        <pt x="134" y="531" on="0"/>
        <pt x="108" y="343" on="1"/>
        <pt x="83" y="158" on="0"/>
        <pt x="163" y="11" on="0"/>
        <pt x="289" y="11" on="1"/>
        <pt x="419" y="11" on="0"/>
        <pt x="541" y="159" on="0"/>
        <pt x="567" y="347" on="1"/>
        <pt x="593" y="533" on="0"/>
        <pt x="515" y="679" on="0"/>
      </contour>
    </TTGlyph>
    <TTGlyph name="Odieresis" xMin="83" yMin="-12" xMax="592" yMax="856">
      <contour>
        <pt x="322" y="856" on="1"/>
        <pt x="331" y="856" on="1"/>
        <pt x="342" y="856" on="0"/>
        <pt x="340" y="844" on="1"/>
        <pt x="332" y="791" on="1"/>
        <pt x="331" y="778" on="0"/>
        <pt x="319" y="778" on="1"/>
        <pt x="312" y="778" on="1"/>
        <pt x="301" y="778" on="0"/>
        <pt x="302" y="790" on="1"/>
        <pt x="310" y="844" on="1"/>
        <pt x="312" y="856" on="0"/>
      </contour>
      <contour>
        <pt x="499" y="856" on="1"/>
        <pt x="508" y="856" on="1"/>
        <pt x="518" y="856" on="0"/>
        <pt x="517" y="844" on="1"/>
        <pt x="509" y="791" on="1"/>
        <pt x="508" y="778" on="0"/>
        <pt x="496" y="778" on="1"/>
        <pt x="489" y="778" on="1"/>
        <pt x="478" y="778" on="0"/>
        <pt x="479" y="790" on="1"/>
        <pt x="487" y="844" on="1"/>
        <pt x="488" y="856" on="0"/>
      </contour>
      <contour>
        <pt x="386" y="702" on="1"/>
        <pt x="528" y="702" on="0"/>
        <pt x="621" y="541" on="0"/>
        <pt x="592" y="343" on="1"/>
        <pt x="565" y="146" on="0"/>
        <pt x="431" y="-12" on="0"/>
        <pt x="290" y="-12" on="1"/>
        <pt x="148" y="-12" on="0"/>
        <pt x="55" y="149" on="0"/>
        <pt x="83" y="347" on="1"/>
        <pt x="111" y="544" on="0"/>
        <pt x="245" y="702" on="0"/>
      </contour>
      <contour>
        <pt x="386" y="679" on="1"/>
        <pt x="256" y="679" on="0"/>
        <pt x="134" y="531" on="0"/>
        <pt x="108" y="343" on="1"/>
        <pt x="83" y="158" on="0"/>
        <pt x="163" y="11" on="0"/>
        <pt x="289" y="11" on="1"/>
        <pt x="419" y="11" on="0"/>
        <pt x="541" y="159" on="0"/>
        <pt x="567" y="347" on="1"/>
        <pt x="593" y="533" on="0"/>
        <pt x="515" y="679" on="0"/>
      </contour>
    </TTGlyph>
    <TTGlyph name="Ograve" xMin="83" yMin="-12" xMax="592" yMax="895">
      <contour>
        <pt x="438" y="748" on="1"/>
        <pt x="424" y="736" on="1"/>
        <pt x="290" y="877" on="1"/>
        <pt x="309" y="895" on="1"/>
      </contour>
      <contour>
        <pt x="386" y="702" on="1"/>
        <pt x="528" y="702" on="0"/>
        <pt x="621" y="541" on="0"/>
        <pt x="592" y="343" on="1"/>
        <pt x="565" y="146" on="0"/>
        <pt x="431" y="-12" on="0"/>
        <pt x="290" y="-12" on="1"/>
        <pt x="148" y="-12" on="0"/>
        <pt x="55" y="149" on="0"/>
        <pt x="83" y="347" on="1"/>
        <pt x="111" y="544" on="0"/>
        <pt x="245" y="702" on="0"/>
      </contour>
      <contour>
        <pt x="386" y="679" on="1"/>
        <pt x="256" y="679" on="0"/>
        <pt x="134" y="531" on="0"/>
        <pt x="108" y="343" on="1"/>
        <pt x="83" y="158" on="0"/>
        <pt x="163" y="11" on="0"/>
        <pt x="289" y="11" on="1"/>
        <pt x="419" y="11" on="0"/>
        <pt x="541" y="159" on="0"/>
        <pt x="567" y="347" on="1"/>
        <pt x="593" y="533" on="0"/>
        <pt x="515" y="679" on="0"/>
      </contour>
    </TTGlyph>
    <TTGlyph name="Ohungarumlaut" xMin="83" yMin="-12" xMax="597" yMax="901">
      <contour>
        <pt x="457" y="885" on="1"/>
        <pt x="317" y="734" on="1"/>
        <pt x="303" y="745" on="1"/>
        <pt x="437" y="901" on="1"/>
      </contour>
      <contour>
        <pt x="597" y="885" on="1"/>
        <pt x="457" y="734" on="1"/>
        <pt x="443" y="745" on="1"/>
        <pt x="577" y="901" on="1"/>
      </contour>
      <contour>
        <pt x="386" y="702" on="1"/>
        <pt x="528" y="702" on="0"/>
        <pt x="621" y="541" on="0"/>
        <pt x="592" y="343" on="1"/>
        <pt x="565" y="146" on="0"/>
        <pt x="431" y="-12" on="0"/>
        <pt x="290" y="-12" on="1"/>
        <pt x="148" y="-12" on="0"/>
        <pt x="55" y="149" on="0"/>
        <pt x="83" y="347" on="1"/>
        <pt x="111" y="544" on="0"/>
        <pt x="245" y="702" on="0"/>
      </contour>
      <contour>
        <pt x="386" y="679" on="1"/>
        <pt x="256" y="679" on="0"/>
        <pt x="134" y="531" on="0"/>
        <pt x="108" y="343" on="1"/>
        <pt x="83" y="158" on="0"/>
        <pt x="163" y="11" on="0"/>
        <pt x="289" y="11" on="1"/>
        <pt x="419" y="11" on="0"/>
        <pt x="541" y="159" on="0"/>
        <pt x="567" y="347" on="1"/>
        <pt x="593" y="533" on="0"/>
        <pt x="515" y="679" on="0"/>
      </contour>
    </TTGlyph>
    <TTGlyph name="Omacron" xMin="83" yMin="-12" xMax="592" yMax="827">
      <contour>
        <pt x="538" y="804" on="1"/>
        <pt x="278" y="804" on="1"/>
        <pt x="281" y="827" on="1"/>
        <pt x="541" y="827" on="1"/>
      </contour>
      <contour>
        <pt x="386" y="702" on="1"/>
        <pt x="528" y="702" on="0"/>
        <pt x="621" y="541" on="0"/>
        <pt x="592" y="343" on="1"/>
        <pt x="565" y="146" on="0"/>
        <pt x="431" y="-12" on="0"/>
        <pt x="290" y="-12" on="1"/>
        <pt x="148" y="-12" on="0"/>
        <pt x="55" y="149" on="0"/>
        <pt x="83" y="347" on="1"/>
        <pt x="111" y="544" on="0"/>
        <pt x="245" y="702" on="0"/>
      </contour>
      <contour>
        <pt x="386" y="679" on="1"/>
        <pt x="256" y="679" on="0"/>
        <pt x="134" y="531" on="0"/>
        <pt x="108" y="343" on="1"/>
        <pt x="83" y="158" on="0"/>
        <pt x="163" y="11" on="0"/>
        <pt x="289" y="11" on="1"/>
        <pt x="419" y="11" on="0"/>
        <pt x="541" y="159" on="0"/>
        <pt x="567" y="347" on="1"/>
        <pt x="593" y="533" on="0"/>
        <pt x="515" y="679" on="0"/>
      </contour>
    </TTGlyph>
    <TTGlyph name="Omega" xMin="14" yMin="0" xMax="637" yMax="702">
      <contour>
        <pt x="151" y="22" on="1"/>
        <pt x="214" y="22" on="1"/>
        <pt x="137" y="80" on="0"/>
        <pt x="83" y="238" on="0"/>
        <pt x="100" y="359" on="1"/>
        <pt x="124" y="532" on="0"/>
        <pt x="275" y="702" on="0"/>
        <pt x="417" y="702" on="1"/>
        <pt x="555" y="702" on="0"/>
        <pt x="661" y="529" on="0"/>
        <pt x="637" y="355" on="1"/>
        <pt x="620" y="233" on="0"/>
        <pt x="523" y="80" on="0"/>
        <pt x="430" y="22" on="1"/>
        <pt x="489" y="22" on="1"/>
        <pt x="625" y="22" on="1"/>
        <pt x="622" y="0" on="1"/>
        <pt x="394" y="0" on="1"/>
        <pt x="396" y="22" on="1"/>
        <pt x="496" y="82" on="0"/>
        <pt x="594" y="237" on="0"/>
        <pt x="611" y="357" on="1"/>
        <pt x="634" y="522" on="0"/>
        <pt x="541" y="679" on="0"/>
        <pt x="416" y="679" on="1"/>
        <pt x="286" y="679" on="0"/>
        <pt x="149" y="521" on="0"/>
        <pt x="125" y="352" on="1"/>
        <pt x="108" y="228" on="0"/>
        <pt x="163" y="85" on="0"/>
        <pt x="244" y="22" on="1"/>
        <pt x="242" y="0" on="1"/>
        <pt x="14" y="0" on="1"/>
        <pt x="17" y="22" on="1"/>
      </contour>
    </TTGlyph>
    <TTGlyph name="Oslash" xMin="76" yMin="-51" xMax="599" yMax="741">
      <contour>
        <pt x="585" y="731" on="1"/>
        <pt x="542" y="660" on="1"/>
        <pt x="587" y="623" on="0"/>
        <pt x="611" y="469" on="0"/>
        <pt x="592" y="343" on="1"/>
        <pt x="565" y="146" on="0"/>
        <pt x="431" y="-12" on="0"/>
        <pt x="290" y="-12" on="1"/>
        <pt x="199" y="-12" on="0"/>
        <pt x="150" y="18" on="1"/>
        <pt x="108" y="-51" on="1"/>
        <pt x="89" y="-41" on="1"/>
        <pt x="133" y="31" on="1"/>
        <pt x="88" y="68" on="0"/>
        <pt x="65" y="223" on="0"/>
        <pt x="83" y="347" on="1"/>
        <pt x="111" y="544" on="0"/>
        <pt x="245" y="702" on="0"/>
        <pt x="386" y="702" on="1"/>
        <pt x="475" y="702" on="0"/>
        <pt x="524" y="673" on="1"/>
        <pt x="565" y="741" on="1"/>
      </contour>
      <contour>
        <pt x="146" y="53" on="1"/>
        <pt x="511" y="652" on="1"/>
        <pt x="468" y="679" on="0"/>
        <pt x="386" y="679" on="1"/>
        <pt x="256" y="679" on="0"/>
        <pt x="134" y="531" on="0"/>
        <pt x="108" y="343" on="1"/>
        <pt x="77" y="120" on="0"/>
      </contour>
      <contour>
        <pt x="529" y="639" on="1"/>
        <pt x="163" y="40" on="1"/>
        <pt x="208" y="11" on="0"/>
        <pt x="289" y="11" on="1"/>
        <pt x="419" y="11" on="0"/>
        <pt x="541" y="159" on="0"/>
        <pt x="567" y="347" on="1"/>
        <pt x="584" y="462" on="0"/>
        <pt x="567" y="604" on="0"/>
      </contour>
    </TTGlyph>
    <TTGlyph name="Otilde" xMin="83" yMin="-12" xMax="592" yMax="866">
      <contour>
        <pt x="276" y="776" on="1"/>
        <pt x="259" y="778" on="1"/>
        <pt x="264" y="823" on="0"/>
        <pt x="310" y="869" on="0"/>
        <pt x="345" y="866" on="1"/>
        <pt x="375" y="863" on="0"/>
        <pt x="447" y="800" on="0"/>
        <pt x="475" y="798" on="1"/>
        <pt x="506" y="796" on="0"/>
        <pt x="539" y="827" on="0"/>
        <pt x="544" y="862" on="1"/>
        <pt x="561" y="860" on="1"/>
        <pt x="557" y="817" on="0"/>
        <pt x="511" y="773" on="0"/>
        <pt x="476" y="776" on="1"/>
        <pt x="440" y="779" on="0"/>
        <pt x="367" y="842" on="0"/>
        <pt x="346" y="844" on="1"/>
        <pt x="287" y="850" on="0"/>
      </contour>
      <contour>
        <pt x="386" y="702" on="1"/>
        <pt x="528" y="702" on="0"/>
        <pt x="621" y="541" on="0"/>
        <pt x="592" y="343" on="1"/>
        <pt x="565" y="146" on="0"/>
        <pt x="431" y="-12" on="0"/>
        <pt x="290" y="-12" on="1"/>
        <pt x="148" y="-12" on="0"/>
        <pt x="55" y="149" on="0"/>
        <pt x="83" y="347" on="1"/>
        <pt x="111" y="544" on="0"/>
        <pt x="245" y="702" on="0"/>
      </contour>
      <contour>
        <pt x="386" y="679" on="1"/>
        <pt x="256" y="679" on="0"/>
        <pt x="134" y="531" on="0"/>
        <pt x="108" y="343" on="1"/>
        <pt x="83" y="158" on="0"/>
        <pt x="163" y="11" on="0"/>
        <pt x="289" y="11" on="1"/>
        <pt x="419" y="11" on="0"/>
        <pt x="541" y="159" on="0"/>
        <pt x="567" y="347" on="1"/>
        <pt x="593" y="533" on="0"/>
        <pt x="515" y="679" on="0"/>
      </contour>
    </TTGlyph>
    <TTGlyph name="P" xMin="62" yMin="0" xMax="552" yMax="698">
      <contour>
        <pt x="62" y="0" on="1"/>
        <pt x="159" y="690" on="1"/>
        <pt x="240" y="698" on="0"/>
        <pt x="379" y="698" on="1"/>
        <pt x="491" y="698" on="0"/>
        <pt x="568" y="611" on="0"/>
        <pt x="552" y="494" on="1"/>
        <pt x="535" y="377" on="0"/>
        <pt x="437" y="292" on="0"/>
        <pt x="326" y="292" on="1"/>
        <pt x="195" y="292" on="0"/>
        <pt x="129" y="296" on="1"/>
        <pt x="87" y="0" on="1"/>
      </contour>
      <contour>
        <pt x="131" y="315" on="1"/>
        <pt x="326" y="315" on="1"/>
        <pt x="425" y="317" on="0"/>
        <pt x="511" y="392" on="0"/>
        <pt x="526" y="497" on="1"/>
        <pt x="541" y="601" on="0"/>
        <pt x="477" y="675" on="0"/>
        <pt x="380" y="675" on="1"/>
        <pt x="248" y="675" on="0"/>
        <pt x="182" y="673" on="1"/>
      </contour>
    </TTGlyph>
    <TTGlyph name="Q" xMin="83" yMin="-161" xMax="592" yMax="702">
      <contour>
        <pt x="386" y="702" on="1"/>
        <pt x="528" y="702" on="0"/>
        <pt x="621" y="541" on="0"/>
        <pt x="592" y="343" on="1"/>
        <pt x="565" y="146" on="0"/>
        <pt x="431" y="-12" on="0"/>
        <pt x="290" y="-12" on="1"/>
        <pt x="148" y="-12" on="0"/>
        <pt x="55" y="149" on="0"/>
        <pt x="83" y="347" on="1"/>
        <pt x="111" y="544" on="0"/>
        <pt x="245" y="702" on="0"/>
      </contour>
      <contour>
        <pt x="386" y="679" on="1"/>
        <pt x="256" y="679" on="0"/>
        <pt x="134" y="531" on="0"/>
        <pt x="108" y="343" on="1"/>
        <pt x="83" y="158" on="0"/>
        <pt x="163" y="11" on="0"/>
        <pt x="289" y="11" on="1"/>
        <pt x="419" y="11" on="0"/>
        <pt x="541" y="159" on="0"/>
        <pt x="567" y="347" on="1"/>
        <pt x="593" y="533" on="0"/>
        <pt x="515" y="679" on="0"/>
      </contour>
      <contour>
        <pt x="236" y="-65" on="1"/>
        <pt x="248" y="-51" on="1"/>
        <pt x="329" y="-114" on="0"/>
        <pt x="460" y="-136" on="1"/>
        <pt x="452" y="-161" on="1"/>
        <pt x="318" y="-143" on="0"/>
      </contour>
    </TTGlyph>
    <TTGlyph name="R" xMin="62" yMin="0" xMax="553" yMax="698">
      <contour>
        <pt x="62" y="0" on="1"/>
        <pt x="159" y="690" on="1"/>
        <pt x="240" y="698" on="0"/>
        <pt x="379" y="698" on="1"/>
        <pt x="491" y="698" on="0"/>
        <pt x="568" y="615" on="0"/>
        <pt x="553" y="502" on="1"/>
        <pt x="540" y="411" on="0"/>
        <pt x="469" y="330" on="0"/>
        <pt x="399" y="320" on="1"/>
        <pt x="399" y="316" on="1"/>
        <pt x="447" y="300" on="0"/>
        <pt x="463" y="220" on="1"/>
        <pt x="508" y="0" on="1"/>
        <pt x="481" y="0" on="1"/>
        <pt x="437" y="219" on="1"/>
        <pt x="428" y="267" on="0"/>
        <pt x="379" y="309" on="0"/>
        <pt x="338" y="310" on="1"/>
        <pt x="299" y="311" on="0"/>
        <pt x="202" y="313" on="0"/>
        <pt x="148" y="314" on="0"/>
        <pt x="131" y="314" on="1"/>
        <pt x="87" y="0" on="1"/>
      </contour>
      <contour>
        <pt x="134" y="333" on="1"/>
        <pt x="329" y="333" on="1"/>
        <pt x="427" y="335" on="0"/>
        <pt x="513" y="407" on="0"/>
        <pt x="541" y="605" on="0"/>
        <pt x="477" y="675" on="0"/>
        <pt x="380" y="675" on="1"/>
        <pt x="248" y="675" on="0"/>
        <pt x="182" y="673" on="1"/>
      </contour>
    </TTGlyph>
    <TTGlyph name="Racute" xMin="62" yMin="0" xMax="553" yMax="896">
      <contour>
        <pt x="326" y="736" on="1"/>
        <pt x="312" y="750" on="1"/>
        <pt x="481" y="896" on="1"/>
        <pt x="498" y="877" on="1"/>
      </contour>
      <contour>
        <pt x="62" y="0" on="1"/>
        <pt x="159" y="690" on="1"/>
        <pt x="240" y="698" on="0"/>
        <pt x="379" y="698" on="1"/>
        <pt x="491" y="698" on="0"/>
        <pt x="568" y="615" on="0"/>
        <pt x="553" y="502" on="1"/>
        <pt x="540" y="411" on="0"/>
        <pt x="469" y="330" on="0"/>
        <pt x="399" y="320" on="1"/>
        <pt x="399" y="316" on="1"/>
        <pt x="447" y="300" on="0"/>
        <pt x="463" y="220" on="1"/>
        <pt x="508" y="0" on="1"/>
        <pt x="481" y="0" on="1"/>
        <pt x="437" y="219" on="1"/>
        <pt x="428" y="267" on="0"/>
        <pt x="379" y="309" on="0"/>
        <pt x="338" y="310" on="1"/>
        <pt x="299" y="311" on="0"/>
        <pt x="202" y="313" on="0"/>
        <pt x="148" y="314" on="0"/>
        <pt x="131" y="314" on="1"/>
        <pt x="87" y="0" on="1"/>
      </contour>
      <contour>
        <pt x="134" y="333" on="1"/>
        <pt x="329" y="333" on="1"/>
        <pt x="427" y="335" on="0"/>
        <pt x="513" y="407" on="0"/>
        <pt x="541" y="605" on="0"/>
        <pt x="477" y="675" on="0"/>
        <pt x="380" y="675" on="1"/>
        <pt x="248" y="675" on="0"/>
        <pt x="182" y="673" on="1"/>
      </contour>
    </TTGlyph>
    <TTGlyph name="Rcaron" xMin="62" yMin="0" xMax="553" yMax="880">
      <contour>
        <pt x="353" y="751" on="1"/>
        <pt x="233" y="868" on="1"/>
        <pt x="244" y="880" on="1"/>
        <pt x="360" y="778" on="1"/>
        <pt x="368" y="778" on="1"/>
        <pt x="514" y="880" on="1"/>
        <pt x="525" y="868" on="1"/>
        <pt x="371" y="751" on="1"/>
      </contour>
      <contour>
        <pt x="62" y="0" on="1"/>
        <pt x="159" y="690" on="1"/>
        <pt x="240" y="698" on="0"/>
        <pt x="379" y="698" on="1"/>
        <pt x="491" y="698" on="0"/>
        <pt x="568" y="615" on="0"/>
        <pt x="553" y="502" on="1"/>
        <pt x="540" y="411" on="0"/>
        <pt x="469" y="330" on="0"/>
        <pt x="399" y="320" on="1"/>
        <pt x="399" y="316" on="1"/>
        <pt x="447" y="300" on="0"/>
        <pt x="463" y="220" on="1"/>
        <pt x="508" y="0" on="1"/>
        <pt x="481" y="0" on="1"/>
        <pt x="437" y="219" on="1"/>
        <pt x="428" y="267" on="0"/>
        <pt x="379" y="309" on="0"/>
        <pt x="338" y="310" on="1"/>
        <pt x="299" y="311" on="0"/>
        <pt x="202" y="313" on="0"/>
        <pt x="148" y="314" on="0"/>
        <pt x="131" y="314" on="1"/>
        <pt x="87" y="0" on="1"/>
      </contour>
      <contour>
        <pt x="134" y="333" on="1"/>
        <pt x="329" y="333" on="1"/>
        <pt x="427" y="335" on="0"/>
        <pt x="513" y="407" on="0"/>
        <pt x="541" y="605" on="0"/>
        <pt x="477" y="675" on="0"/>
        <pt x="380" y="675" on="1"/>
        <pt x="248" y="675" on="0"/>
        <pt x="182" y="673" on="1"/>
      </contour>
    </TTGlyph>
    <TTGlyph name="Rcommaaccent" xMin="62" yMin="-248" xMax="553" yMax="698">
      <contour>
        <pt x="62" y="0" on="1"/>
        <pt x="159" y="690" on="1"/>
        <pt x="240" y="698" on="0"/>
        <pt x="379" y="698" on="1"/>
        <pt x="491" y="698" on="0"/>
        <pt x="568" y="615" on="0"/>
        <pt x="553" y="502" on="1"/>
        <pt x="540" y="411" on="0"/>
        <pt x="469" y="330" on="0"/>
        <pt x="399" y="320" on="1"/>
        <pt x="399" y="316" on="1"/>
        <pt x="447" y="300" on="0"/>
        <pt x="463" y="220" on="1"/>
        <pt x="508" y="0" on="1"/>
        <pt x="481" y="0" on="1"/>
        <pt x="437" y="219" on="1"/>
        <pt x="428" y="267" on="0"/>
        <pt x="379" y="309" on="0"/>
        <pt x="338" y="310" on="1"/>
        <pt x="299" y="311" on="0"/>
        <pt x="202" y="313" on="0"/>
        <pt x="148" y="314" on="0"/>
        <pt x="131" y="314" on="1"/>
        <pt x="87" y="0" on="1"/>
      </contour>
      <contour>
        <pt x="134" y="333" on="1"/>
        <pt x="329" y="333" on="1"/>
        <pt x="427" y="335" on="0"/>
        <pt x="513" y="407" on="0"/>
        <pt x="541" y="605" on="0"/>
        <pt x="477" y="675" on="0"/>
        <pt x="380" y="675" on="1"/>
        <pt x="248" y="675" on="0"/>
        <pt x="182" y="673" on="1"/>
      </contour>
      <contour>
        <pt x="276" y="-65" on="1"/>
        <pt x="287" y="-65" on="1"/>
        <pt x="295" y="-65" on="0"/>
        <pt x="294" y="-75" on="1"/>
        <pt x="285" y="-135" on="1"/>
        <pt x="277" y="-187" on="0"/>
        <pt x="251" y="-248" on="1"/>
        <pt x="237" y="-244" on="1"/>
        <pt x="251" y="-198" on="0"/>
        <pt x="260" y="-142" on="1"/>
        <pt x="253" y="-142" on="0"/>
        <pt x="255" y="-133" on="1"/>
        <pt x="264" y="-75" on="1"/>
        <pt x="265" y="-65" on="0"/>
      </contour>
    </TTGlyph>
    <TTGlyph name="S" xMin="37" yMin="-11" xMax="515" yMax="701">
      <contour>
        <pt x="358" y="304" on="1"/>
        <pt x="208" y="367" on="1"/>
        <pt x="136" y="398" on="0"/>
        <pt x="89" y="476" on="0"/>
        <pt x="97" y="546" on="1"/>
        <pt x="103" y="590" on="0"/>
        <pt x="133" y="649" on="0"/>
        <pt x="170" y="682" on="0"/>
        <pt x="232" y="698" on="0"/>
        <pt x="286" y="702" on="0"/>
        <pt x="329" y="701" on="1"/>
        <pt x="426" y="700" on="0"/>
        <pt x="515" y="689" on="1"/>
        <pt x="511" y="670" on="1"/>
        <pt x="392" y="678" on="0"/>
        <pt x="311" y="678" on="1"/>
        <pt x="276" y="678" on="0"/>
        <pt x="237" y="675" on="0"/>
        <pt x="184" y="661" on="0"/>
        <pt x="154" y="634" on="0"/>
        <pt x="128" y="581" on="0"/>
        <pt x="123" y="542" on="1"/>
        <pt x="117" y="484" on="0"/>
        <pt x="151" y="419" on="0"/>
        <pt x="209" y="393" on="1"/>
        <pt x="359" y="330" on="1"/>
        <pt x="437" y="296" on="0"/>
        <pt x="485" y="221" on="0"/>
        <pt x="475" y="147" on="1"/>
        <pt x="469" y="104" on="0"/>
        <pt x="438" y="45" on="0"/>
        <pt x="400" y="11" on="0"/>
        <pt x="335" y="-6" on="0"/>
        <pt x="275" y="-11" on="0"/>
        <pt x="227" y="-11" on="1"/>
        <pt x="129" y="-11" on="0"/>
        <pt x="37" y="0" on="1"/>
        <pt x="41" y="19" on="1"/>
        <pt x="143" y="11" on="0"/>
        <pt x="241" y="12" on="1"/>
        <pt x="344" y="14" on="0"/>
        <pt x="435" y="65" on="0"/>
        <pt x="449" y="151" on="1"/>
        <pt x="458" y="215" on="0"/>
        <pt x="421" y="276" on="0"/>
      </contour>
    </TTGlyph>
    <TTGlyph name="Sacute" xMin="37" yMin="-11" xMax="515" yMax="896">
      <contour>
        <pt x="471" y="877" on="1"/>
        <pt x="299" y="736" on="1"/>
        <pt x="285" y="750" on="1"/>
        <pt x="454" y="896" on="1"/>
      </contour>
      <contour>
        <pt x="358" y="304" on="1"/>
        <pt x="208" y="367" on="1"/>
        <pt x="136" y="398" on="0"/>
        <pt x="89" y="476" on="0"/>
        <pt x="97" y="546" on="1"/>
        <pt x="103" y="590" on="0"/>
        <pt x="133" y="649" on="0"/>
        <pt x="170" y="682" on="0"/>
        <pt x="232" y="698" on="0"/>
        <pt x="286" y="702" on="0"/>
        <pt x="329" y="701" on="1"/>
        <pt x="426" y="700" on="0"/>
        <pt x="515" y="689" on="1"/>
        <pt x="511" y="670" on="1"/>
        <pt x="392" y="678" on="0"/>
        <pt x="311" y="678" on="1"/>
        <pt x="276" y="678" on="0"/>
        <pt x="237" y="675" on="0"/>
        <pt x="184" y="661" on="0"/>
        <pt x="154" y="634" on="0"/>
        <pt x="128" y="581" on="0"/>
        <pt x="123" y="542" on="1"/>
        <pt x="117" y="484" on="0"/>
        <pt x="151" y="419" on="0"/>
        <pt x="209" y="393" on="1"/>
        <pt x="359" y="330" on="1"/>
        <pt x="437" y="296" on="0"/>
        <pt x="485" y="221" on="0"/>
        <pt x="475" y="147" on="1"/>
        <pt x="469" y="104" on="0"/>
        <pt x="438" y="45" on="0"/>
        <pt x="400" y="11" on="0"/>
        <pt x="335" y="-6" on="0"/>
        <pt x="275" y="-11" on="0"/>
        <pt x="227" y="-11" on="1"/>
        <pt x="129" y="-11" on="0"/>
        <pt x="37" y="0" on="1"/>
        <pt x="41" y="19" on="1"/>
        <pt x="143" y="11" on="0"/>
        <pt x="241" y="12" on="1"/>
        <pt x="344" y="14" on="0"/>
        <pt x="435" y="65" on="0"/>
        <pt x="449" y="151" on="1"/>
        <pt x="458" y="215" on="0"/>
        <pt x="421" y="276" on="0"/>
      </contour>
    </TTGlyph>
    <TTGlyph name="Scaron" xMin="37" yMin="-11" xMax="515" yMax="880">
      <contour>
        <pt x="498" y="868" on="1"/>
        <pt x="344" y="751" on="1"/>
        <pt x="326" y="751" on="1"/>
        <pt x="206" y="868" on="1"/>
        <pt x="217" y="880" on="1"/>
        <pt x="333" y="778" on="1"/>
        <pt x="341" y="778" on="1"/>
        <pt x="487" y="880" on="1"/>
      </contour>
      <contour>
        <pt x="358" y="304" on="1"/>
        <pt x="208" y="367" on="1"/>
        <pt x="136" y="398" on="0"/>
        <pt x="89" y="476" on="0"/>
        <pt x="97" y="546" on="1"/>
        <pt x="103" y="590" on="0"/>
        <pt x="133" y="649" on="0"/>
        <pt x="170" y="682" on="0"/>
        <pt x="232" y="698" on="0"/>
        <pt x="286" y="702" on="0"/>
        <pt x="329" y="701" on="1"/>
        <pt x="426" y="700" on="0"/>
        <pt x="515" y="689" on="1"/>
        <pt x="511" y="670" on="1"/>
        <pt x="392" y="678" on="0"/>
        <pt x="311" y="678" on="1"/>
        <pt x="276" y="678" on="0"/>
        <pt x="237" y="675" on="0"/>
        <pt x="184" y="661" on="0"/>
        <pt x="154" y="634" on="0"/>
        <pt x="128" y="581" on="0"/>
        <pt x="123" y="542" on="1"/>
        <pt x="117" y="484" on="0"/>
        <pt x="151" y="419" on="0"/>
        <pt x="209" y="393" on="1"/>
        <pt x="359" y="330" on="1"/>
        <pt x="437" y="296" on="0"/>
        <pt x="485" y="221" on="0"/>
        <pt x="475" y="147" on="1"/>
        <pt x="469" y="104" on="0"/>
        <pt x="438" y="45" on="0"/>
        <pt x="400" y="11" on="0"/>
        <pt x="335" y="-6" on="0"/>
        <pt x="275" y="-11" on="0"/>
        <pt x="227" y="-11" on="1"/>
        <pt x="129" y="-11" on="0"/>
        <pt x="37" y="0" on="1"/>
        <pt x="41" y="19" on="1"/>
        <pt x="143" y="11" on="0"/>
        <pt x="241" y="12" on="1"/>
        <pt x="344" y="14" on="0"/>
        <pt x="435" y="65" on="0"/>
        <pt x="449" y="151" on="1"/>
        <pt x="458" y="215" on="0"/>
        <pt x="421" y="276" on="0"/>
      </contour>
    </TTGlyph>
    <TTGlyph name="Scedilla" xMin="37" yMin="-230" xMax="515" yMax="701">
      <contour>
        <pt x="358" y="304" on="1"/>
        <pt x="208" y="367" on="1"/>
        <pt x="136" y="398" on="0"/>
        <pt x="89" y="476" on="0"/>
        <pt x="97" y="546" on="1"/>
        <pt x="103" y="590" on="0"/>
        <pt x="133" y="649" on="0"/>
        <pt x="170" y="682" on="0"/>
        <pt x="232" y="698" on="0"/>
        <pt x="286" y="702" on="0"/>
        <pt x="329" y="701" on="1"/>
        <pt x="426" y="700" on="0"/>
        <pt x="515" y="689" on="1"/>
        <pt x="511" y="670" on="1"/>
        <pt x="392" y="678" on="0"/>
        <pt x="311" y="678" on="1"/>
        <pt x="276" y="678" on="0"/>
        <pt x="237" y="675" on="0"/>
        <pt x="184" y="661" on="0"/>
        <pt x="154" y="634" on="0"/>
        <pt x="128" y="581" on="0"/>
        <pt x="123" y="542" on="1"/>
        <pt x="117" y="484" on="0"/>
        <pt x="151" y="419" on="0"/>
        <pt x="209" y="393" on="1"/>
        <pt x="359" y="330" on="1"/>
        <pt x="437" y="296" on="0"/>
        <pt x="485" y="221" on="0"/>
        <pt x="475" y="147" on="1"/>
        <pt x="469" y="104" on="0"/>
        <pt x="438" y="45" on="0"/>
        <pt x="400" y="11" on="0"/>
        <pt x="335" y="-6" on="0"/>
        <pt x="275" y="-11" on="0"/>
        <pt x="227" y="-11" on="1"/>
        <pt x="129" y="-11" on="0"/>
        <pt x="37" y="0" on="1"/>
        <pt x="41" y="19" on="1"/>
        <pt x="143" y="11" on="0"/>
        <pt x="241" y="12" on="1"/>
        <pt x="344" y="14" on="0"/>
        <pt x="435" y="65" on="0"/>
        <pt x="449" y="151" on="1"/>
        <pt x="458" y="215" on="0"/>
        <pt x="421" y="276" on="0"/>
      </contour>
      <contour>
        <pt x="219" y="-74" on="1"/>
        <pt x="222" y="-60" on="1"/>
        <pt x="262" y="-58" on="0"/>
        <pt x="298" y="-91" on="0"/>
        <pt x="292" y="-127" on="1"/>
        <pt x="284" y="-178" on="0"/>
        <pt x="200" y="-238" on="0"/>
        <pt x="139" y="-230" on="1"/>
        <pt x="144" y="-215" on="1"/>
        <pt x="195" y="-217" on="0"/>
        <pt x="265" y="-163" on="0"/>
        <pt x="271" y="-123" on="1"/>
        <pt x="275" y="-96" on="0"/>
        <pt x="252" y="-75" on="0"/>
      </contour>
    </TTGlyph>
    <TTGlyph name="Scommaaccent" xMin="37" yMin="-248" xMax="515" yMax="701">
      <contour>
        <pt x="358" y="304" on="1"/>
        <pt x="208" y="367" on="1"/>
        <pt x="136" y="398" on="0"/>
        <pt x="89" y="476" on="0"/>
        <pt x="97" y="546" on="1"/>
        <pt x="103" y="590" on="0"/>
        <pt x="133" y="649" on="0"/>
        <pt x="170" y="682" on="0"/>
        <pt x="232" y="698" on="0"/>
        <pt x="286" y="702" on="0"/>
        <pt x="329" y="701" on="1"/>
        <pt x="426" y="700" on="0"/>
        <pt x="515" y="689" on="1"/>
        <pt x="511" y="670" on="1"/>
        <pt x="392" y="678" on="0"/>
        <pt x="311" y="678" on="1"/>
        <pt x="276" y="678" on="0"/>
        <pt x="237" y="675" on="0"/>
        <pt x="184" y="661" on="0"/>
        <pt x="154" y="634" on="0"/>
        <pt x="128" y="581" on="0"/>
        <pt x="123" y="542" on="1"/>
        <pt x="117" y="484" on="0"/>
        <pt x="151" y="419" on="0"/>
        <pt x="209" y="393" on="1"/>
        <pt x="359" y="330" on="1"/>
        <pt x="437" y="296" on="0"/>
        <pt x="485" y="221" on="0"/>
        <pt x="475" y="147" on="1"/>
        <pt x="469" y="104" on="0"/>
        <pt x="438" y="45" on="0"/>
        <pt x="400" y="11" on="0"/>
        <pt x="335" y="-6" on="0"/>
        <pt x="275" y="-11" on="0"/>
        <pt x="227" y="-11" on="1"/>
        <pt x="129" y="-11" on="0"/>
        <pt x="37" y="0" on="1"/>
        <pt x="41" y="19" on="1"/>
        <pt x="143" y="11" on="0"/>
        <pt x="241" y="12" on="1"/>
        <pt x="344" y="14" on="0"/>
        <pt x="435" y="65" on="0"/>
        <pt x="449" y="151" on="1"/>
        <pt x="458" y="215" on="0"/>
        <pt x="421" y="276" on="0"/>
      </contour>
      <contour>
        <pt x="255" y="-65" on="1"/>
        <pt x="266" y="-65" on="1"/>
        <pt x="274" y="-65" on="0"/>
        <pt x="273" y="-75" on="1"/>
        <pt x="264" y="-135" on="1"/>
        <pt x="256" y="-187" on="0"/>
        <pt x="230" y="-248" on="1"/>
        <pt x="216" y="-244" on="1"/>
        <pt x="230" y="-198" on="0"/>
        <pt x="239" y="-142" on="1"/>
        <pt x="232" y="-142" on="0"/>
        <pt x="234" y="-133" on="1"/>
        <pt x="243" y="-75" on="1"/>
        <pt x="244" y="-65" on="0"/>
      </contour>
    </TTGlyph>
    <TTGlyph name="T" xMin="77" yMin="0" xMax="590" yMax="690">
      <contour>
        <pt x="587" y="668" on="1"/>
        <pt x="344" y="668" on="1"/>
        <pt x="250" y="0" on="1"/>
        <pt x="225" y="0" on="1"/>
        <pt x="319" y="668" on="1"/>
        <pt x="77" y="668" on="1"/>
        <pt x="80" y="690" on="1"/>
        <pt x="590" y="690" on="1"/>
      </contour>
    </TTGlyph>
    <TTGlyph name="Tbar" xMin="77" yMin="0" xMax="590" yMax="690">
      <contour>
        <pt x="344" y="668" on="1"/>
        <pt x="310" y="425" on="1"/>
        <pt x="469" y="425" on="1"/>
        <pt x="466" y="405" on="1"/>
        <pt x="307" y="405" on="1"/>
        <pt x="250" y="0" on="1"/>
        <pt x="225" y="0" on="1"/>
        <pt x="282" y="405" on="1"/>
        <pt x="137" y="405" on="1"/>
        <pt x="140" y="425" on="1"/>
        <pt x="285" y="425" on="1"/>
        <pt x="319" y="668" on="1"/>
        <pt x="77" y="668" on="1"/>
        <pt x="80" y="690" on="1"/>
        <pt x="590" y="690" on="1"/>
        <pt x="587" y="668" on="1"/>
      </contour>
    </TTGlyph>
    <TTGlyph name="Tcaron" xMin="77" yMin="0" xMax="590" yMax="880">
      <contour>
        <pt x="336" y="751" on="1"/>
        <pt x="216" y="868" on="1"/>
        <pt x="227" y="880" on="1"/>
        <pt x="343" y="778" on="1"/>
        <pt x="351" y="778" on="1"/>
        <pt x="497" y="880" on="1"/>
        <pt x="508" y="868" on="1"/>
        <pt x="354" y="751" on="1"/>
      </contour>
      <contour>
        <pt x="587" y="668" on="1"/>
        <pt x="344" y="668" on="1"/>
        <pt x="250" y="0" on="1"/>
        <pt x="225" y="0" on="1"/>
        <pt x="319" y="668" on="1"/>
        <pt x="77" y="668" on="1"/>
        <pt x="80" y="690" on="1"/>
        <pt x="590" y="690" on="1"/>
      </contour>
    </TTGlyph>
    <TTGlyph name="Tcedilla" xMin="77" yMin="-219" xMax="590" yMax="690">
      <contour>
        <pt x="587" y="668" on="1"/>
        <pt x="344" y="668" on="1"/>
        <pt x="250" y="0" on="1"/>
        <pt x="225" y="0" on="1"/>
        <pt x="319" y="668" on="1"/>
        <pt x="77" y="668" on="1"/>
        <pt x="80" y="690" on="1"/>
        <pt x="590" y="690" on="1"/>
      </contour>
      <contour>
        <pt x="198" y="-63" on="1"/>
        <pt x="201" y="-49" on="1"/>
        <pt x="241" y="-47" on="0"/>
        <pt x="277" y="-80" on="0"/>
        <pt x="271" y="-116" on="1"/>
        <pt x="263" y="-167" on="0"/>
        <pt x="179" y="-227" on="0"/>
        <pt x="118" y="-219" on="1"/>
        <pt x="123" y="-204" on="1"/>
        <pt x="174" y="-206" on="0"/>
        <pt x="244" y="-152" on="0"/>
        <pt x="250" y="-112" on="1"/>
        <pt x="254" y="-85" on="0"/>
        <pt x="231" y="-64" on="0"/>
      </contour>
    </TTGlyph>
    <TTGlyph name="Thorn" xMin="63" yMin="0" xMax="532" yMax="690">
      <contour>
        <pt x="185" y="690" on="1"/>
        <pt x="165" y="549" on="1"/>
        <pt x="235" y="555" on="0"/>
        <pt x="360" y="555" on="1"/>
        <pt x="472" y="555" on="0"/>
        <pt x="549" y="467" on="0"/>
        <pt x="532" y="350" on="1"/>
        <pt x="516" y="233" on="0"/>
        <pt x="418" y="149" on="0"/>
        <pt x="307" y="149" on="1"/>
        <pt x="176" y="149" on="0"/>
        <pt x="110" y="153" on="1"/>
        <pt x="88" y="0" on="1"/>
        <pt x="63" y="0" on="1"/>
        <pt x="140" y="546" on="1"/>
        <pt x="140" y="547" on="1"/>
        <pt x="160" y="690" on="1"/>
      </contour>
      <contour>
        <pt x="112" y="172" on="1"/>
        <pt x="306" y="172" on="1"/>
        <pt x="406" y="174" on="0"/>
        <pt x="492" y="247" on="0"/>
        <pt x="507" y="354" on="1"/>
        <pt x="521" y="459" on="0"/>
        <pt x="457" y="532" on="0"/>
        <pt x="361" y="532" on="1"/>
        <pt x="230" y="532" on="0"/>
        <pt x="162" y="530" on="1"/>
      </contour>
    </TTGlyph>
    <TTGlyph name="U" xMin="93" yMin="-12" xMax="625" yMax="690">
      <contour>
        <pt x="625" y="690" on="1"/>
        <pt x="564" y="254" on="1"/>
        <pt x="544" y="109" on="0"/>
        <pt x="422" y="-12" on="0"/>
        <pt x="294" y="-12" on="1"/>
        <pt x="164" y="-12" on="0"/>
        <pt x="73" y="111" on="0"/>
        <pt x="93" y="256" on="1"/>
        <pt x="154" y="690" on="1"/>
        <pt x="179" y="690" on="1"/>
        <pt x="118" y="254" on="1"/>
        <pt x="99" y="120" on="0"/>
        <pt x="178" y="11" on="0"/>
        <pt x="293" y="11" on="1"/>
        <pt x="409" y="11" on="0"/>
        <pt x="520" y="122" on="0"/>
        <pt x="539" y="256" on="1"/>
        <pt x="600" y="690" on="1"/>
      </contour>
    </TTGlyph>
    <TTGlyph name="Uacute" xMin="93" yMin="-12" xMax="625" yMax="896">
      <contour>
        <pt x="536" y="877" on="1"/>
        <pt x="364" y="736" on="1"/>
        <pt x="350" y="750" on="1"/>
        <pt x="519" y="896" on="1"/>
      </contour>
      <contour>
        <pt x="625" y="690" on="1"/>
        <pt x="564" y="254" on="1"/>
        <pt x="544" y="109" on="0"/>
        <pt x="422" y="-12" on="0"/>
        <pt x="294" y="-12" on="1"/>
        <pt x="164" y="-12" on="0"/>
        <pt x="73" y="111" on="0"/>
        <pt x="93" y="256" on="1"/>
        <pt x="154" y="690" on="1"/>
        <pt x="179" y="690" on="1"/>
        <pt x="118" y="254" on="1"/>
        <pt x="99" y="120" on="0"/>
        <pt x="178" y="11" on="0"/>
        <pt x="293" y="11" on="1"/>
        <pt x="409" y="11" on="0"/>
        <pt x="520" y="122" on="0"/>
        <pt x="539" y="256" on="1"/>
        <pt x="600" y="690" on="1"/>
      </contour>
    </TTGlyph>
    <TTGlyph name="Ucircumflex" xMin="93" yMin="-12" xMax="625" yMax="880">
      <contour>
        <pt x="546" y="763" on="1"/>
        <pt x="534" y="751" on="1"/>
        <pt x="419" y="853" on="1"/>
        <pt x="410" y="853" on="1"/>
        <pt x="265" y="750" on="1"/>
        <pt x="255" y="763" on="1"/>
        <pt x="407" y="880" on="1"/>
        <pt x="425" y="880" on="1"/>
      </contour>
      <contour>
        <pt x="625" y="690" on="1"/>
        <pt x="564" y="254" on="1"/>
        <pt x="544" y="109" on="0"/>
        <pt x="422" y="-12" on="0"/>
        <pt x="294" y="-12" on="1"/>
        <pt x="164" y="-12" on="0"/>
        <pt x="73" y="111" on="0"/>
        <pt x="93" y="256" on="1"/>
        <pt x="154" y="690" on="1"/>
        <pt x="179" y="690" on="1"/>
        <pt x="118" y="254" on="1"/>
        <pt x="99" y="120" on="0"/>
        <pt x="178" y="11" on="0"/>
        <pt x="293" y="11" on="1"/>
        <pt x="409" y="11" on="0"/>
        <pt x="520" y="122" on="0"/>
        <pt x="539" y="256" on="1"/>
        <pt x="600" y="690" on="1"/>
      </contour>
    </TTGlyph>
    <TTGlyph name="Udieresis" xMin="93" yMin="-12" xMax="625" yMax="856">
      <contour>
        <pt x="321" y="856" on="1"/>
        <pt x="330" y="856" on="1"/>
        <pt x="340" y="856" on="0"/>
        <pt x="339" y="844" on="1"/>
        <pt x="331" y="791" on="1"/>
        <pt x="330" y="778" on="0"/>
        <pt x="318" y="778" on="1"/>
        <pt x="311" y="778" on="1"/>
        <pt x="300" y="778" on="0"/>
        <pt x="301" y="790" on="1"/>
        <pt x="309" y="844" on="1"/>
        <pt x="310" y="856" on="0"/>
      </contour>
      <contour>
        <pt x="498" y="856" on="1"/>
        <pt x="507" y="856" on="1"/>
        <pt x="518" y="856" on="0"/>
        <pt x="516" y="844" on="1"/>
        <pt x="508" y="791" on="1"/>
        <pt x="507" y="778" on="0"/>
        <pt x="495" y="778" on="1"/>
        <pt x="488" y="778" on="1"/>
        <pt x="477" y="778" on="0"/>
        <pt x="478" y="790" on="1"/>
        <pt x="486" y="844" on="1"/>
        <pt x="488" y="856" on="0"/>
      </contour>
      <contour>
        <pt x="625" y="690" on="1"/>
        <pt x="564" y="254" on="1"/>
        <pt x="544" y="109" on="0"/>
        <pt x="422" y="-12" on="0"/>
        <pt x="294" y="-12" on="1"/>
        <pt x="164" y="-12" on="0"/>
        <pt x="73" y="111" on="0"/>
        <pt x="93" y="256" on="1"/>
        <pt x="154" y="690" on="1"/>
        <pt x="179" y="690" on="1"/>
        <pt x="118" y="254" on="1"/>
        <pt x="99" y="120" on="0"/>
        <pt x="178" y="11" on="0"/>
        <pt x="293" y="11" on="1"/>
        <pt x="409" y="11" on="0"/>
        <pt x="520" y="122" on="0"/>
        <pt x="539" y="256" on="1"/>
        <pt x="600" y="690" on="1"/>
      </contour>
    </TTGlyph>
    <TTGlyph name="Ugrave" xMin="93" yMin="-12" xMax="625" yMax="895">
      <contour>
        <pt x="437" y="748" on="1"/>
        <pt x="423" y="736" on="1"/>
        <pt x="289" y="877" on="1"/>
        <pt x="308" y="895" on="1"/>
      </contour>
      <contour>
        <pt x="625" y="690" on="1"/>
        <pt x="564" y="254" on="1"/>
        <pt x="544" y="109" on="0"/>
        <pt x="422" y="-12" on="0"/>
        <pt x="294" y="-12" on="1"/>
        <pt x="164" y="-12" on="0"/>
        <pt x="73" y="111" on="0"/>
        <pt x="93" y="256" on="1"/>
        <pt x="154" y="690" on="1"/>
        <pt x="179" y="690" on="1"/>
        <pt x="118" y="254" on="1"/>
        <pt x="99" y="120" on="0"/>
        <pt x="178" y="11" on="0"/>
        <pt x="293" y="11" on="1"/>
        <pt x="409" y="11" on="0"/>
        <pt x="520" y="122" on="0"/>
        <pt x="539" y="256" on="1"/>
        <pt x="600" y="690" on="1"/>
      </contour>
    </TTGlyph>
    <TTGlyph name="Uhungarumlaut" xMin="93" yMin="-12" xMax="625" yMax="901">
      <contour>
        <pt x="456" y="885" on="1"/>
        <pt x="316" y="734" on="1"/>
        <pt x="302" y="745" on="1"/>
        <pt x="436" y="901" on="1"/>
      </contour>
      <contour>
        <pt x="596" y="885" on="1"/>
        <pt x="456" y="734" on="1"/>
        <pt x="442" y="745" on="1"/>
        <pt x="576" y="901" on="1"/>
      </contour>
      <contour>
        <pt x="625" y="690" on="1"/>
        <pt x="564" y="254" on="1"/>
        <pt x="544" y="109" on="0"/>
        <pt x="422" y="-12" on="0"/>
        <pt x="294" y="-12" on="1"/>
        <pt x="164" y="-12" on="0"/>
        <pt x="73" y="111" on="0"/>
        <pt x="93" y="256" on="1"/>
        <pt x="154" y="690" on="1"/>
        <pt x="179" y="690" on="1"/>
        <pt x="118" y="254" on="1"/>
        <pt x="99" y="120" on="0"/>
        <pt x="178" y="11" on="0"/>
        <pt x="293" y="11" on="1"/>
        <pt x="409" y="11" on="0"/>
        <pt x="520" y="122" on="0"/>
        <pt x="539" y="256" on="1"/>
        <pt x="600" y="690" on="1"/>
      </contour>
    </TTGlyph>
    <TTGlyph name="Umacron" xMin="93" yMin="-12" xMax="625" yMax="827">
      <contour>
        <pt x="537" y="804" on="1"/>
        <pt x="277" y="804" on="1"/>
        <pt x="280" y="827" on="1"/>
        <pt x="540" y="827" on="1"/>
      </contour>
      <contour>
        <pt x="625" y="690" on="1"/>
        <pt x="564" y="254" on="1"/>
        <pt x="544" y="109" on="0"/>
        <pt x="422" y="-12" on="0"/>
        <pt x="294" y="-12" on="1"/>
        <pt x="164" y="-12" on="0"/>
        <pt x="73" y="111" on="0"/>
        <pt x="93" y="256" on="1"/>
        <pt x="154" y="690" on="1"/>
        <pt x="179" y="690" on="1"/>
        <pt x="118" y="254" on="1"/>
        <pt x="99" y="120" on="0"/>
        <pt x="178" y="11" on="0"/>
        <pt x="293" y="11" on="1"/>
        <pt x="409" y="11" on="0"/>
        <pt x="520" y="122" on="0"/>
        <pt x="539" y="256" on="1"/>
        <pt x="600" y="690" on="1"/>
      </contour>
    </TTGlyph>
    <TTGlyph name="Uogonek" xMin="93" yMin="-211" xMax="625" yMax="690">
      <contour>
        <pt x="625" y="690" on="1"/>
        <pt x="564" y="254" on="1"/>
        <pt x="545" y="119" on="0"/>
        <pt x="438" y="-4" on="0"/>
        <pt x="330" y="-11" on="1"/>
        <pt x="259" y="-73" on="0"/>
        <pt x="227" y="-137" on="1"/>
        <pt x="205" y="-182" on="0"/>
        <pt x="252" y="-212" on="0"/>
        <pt x="312" y="-191" on="1"/>
        <pt x="315" y="-203" on="1"/>
        <pt x="235" y="-235" on="0"/>
        <pt x="179" y="-186" on="0"/>
        <pt x="206" y="-131" on="1"/>
        <pt x="234" y="-74" on="0"/>
        <pt x="309" y="-12" on="1"/>
        <pt x="294" y="-12" on="1"/>
        <pt x="164" y="-12" on="0"/>
        <pt x="73" y="111" on="0"/>
        <pt x="93" y="256" on="1"/>
        <pt x="154" y="690" on="1"/>
        <pt x="179" y="690" on="1"/>
        <pt x="118" y="254" on="1"/>
        <pt x="99" y="120" on="0"/>
        <pt x="178" y="11" on="0"/>
        <pt x="293" y="11" on="1"/>
        <pt x="409" y="11" on="0"/>
        <pt x="520" y="122" on="0"/>
        <pt x="539" y="256" on="1"/>
        <pt x="600" y="690" on="1"/>
      </contour>
    </TTGlyph>
    <TTGlyph name="Uring" xMin="93" yMin="-12" xMax="625" yMax="909">
      <contour>
        <pt x="417" y="909" on="1"/>
        <pt x="459" y="909" on="0"/>
        <pt x="509" y="852" on="0"/>
        <pt x="504" y="812" on="1"/>
        <pt x="499" y="774" on="0"/>
        <pt x="441" y="719" on="0"/>
        <pt x="357" y="719" on="0"/>
        <pt x="307" y="775" on="0"/>
        <pt x="312" y="816" on="1"/>
        <pt x="317" y="854" on="0"/>
        <pt x="376" y="909" on="0"/>
      </contour>
      <contour>
        <pt x="451" y="890" on="0"/>
        <pt x="383" y="890" on="0"/>
        <pt x="337" y="845" on="0"/>
        <pt x="333" y="812" on="1"/>
        <pt x="329" y="781" on="0"/>
        <pt x="366" y="738" on="0"/>
        <pt x="432" y="738" on="0"/>
        <pt x="479" y="783" on="0"/>
        <pt x="483" y="816" on="1"/>
        <pt x="487" y="847" on="0"/>
      </contour>
      <contour>
        <pt x="625" y="690" on="1"/>
        <pt x="564" y="254" on="1"/>
        <pt x="544" y="109" on="0"/>
        <pt x="422" y="-12" on="0"/>
        <pt x="294" y="-12" on="1"/>
        <pt x="164" y="-12" on="0"/>
        <pt x="73" y="111" on="0"/>
        <pt x="93" y="256" on="1"/>
        <pt x="154" y="690" on="1"/>
        <pt x="179" y="690" on="1"/>
        <pt x="118" y="254" on="1"/>
        <pt x="99" y="120" on="0"/>
        <pt x="178" y="11" on="0"/>
        <pt x="293" y="11" on="1"/>
        <pt x="409" y="11" on="0"/>
        <pt x="520" y="122" on="0"/>
        <pt x="539" y="256" on="1"/>
        <pt x="600" y="690" on="1"/>
      </contour>
    </TTGlyph>
    <TTGlyph name="V" xMin="78" yMin="0" xMax="618" yMax="690">
      <contour>
        <pt x="618" y="690" on="1"/>
        <pt x="286" y="8" on="1"/>
        <pt x="283" y="0" on="0"/>
        <pt x="273" y="0" on="1"/>
        <pt x="231" y="0" on="1"/>
        <pt x="221" y="0" on="0"/>
        <pt x="219" y="10" on="1"/>
        <pt x="78" y="690" on="1"/>
        <pt x="104" y="690" on="1"/>
        <pt x="226" y="95" on="1"/>
        <pt x="237" y="41" on="0"/>
        <pt x="240" y="21" on="1"/>
        <pt x="267" y="21" on="1"/>
        <pt x="278" y="45" on="0"/>
        <pt x="303" y="98" on="1"/>
        <pt x="591" y="690" on="1"/>
      </contour>
    </TTGlyph>
    <TTGlyph name="W" xMin="86" yMin="0" xMax="949" yMax="690">
      <contour>
        <pt x="949" y="690" on="1"/>
        <pt x="671" y="9" on="1"/>
        <pt x="666" y="0" on="0"/>
        <pt x="656" y="0" on="1"/>
        <pt x="614" y="0" on="1"/>
        <pt x="603" y="0" on="0"/>
        <pt x="601" y="12" on="1"/>
        <pt x="536" y="592" on="1"/>
        <pt x="528" y="658" on="0"/>
        <pt x="527" y="667" on="1"/>
        <pt x="502" y="667" on="1"/>
        <pt x="487" y="631" on="0"/>
        <pt x="471" y="590" on="1"/>
        <pt x="244" y="10" on="1"/>
        <pt x="240" y="0" on="0"/>
        <pt x="229" y="0" on="1"/>
        <pt x="186" y="0" on="1"/>
        <pt x="175" y="0" on="0"/>
        <pt x="173" y="11" on="1"/>
        <pt x="86" y="690" on="1"/>
        <pt x="111" y="690" on="1"/>
        <pt x="187" y="90" on="1"/>
        <pt x="188" y="79" on="0"/>
        <pt x="193" y="33" on="0"/>
        <pt x="195" y="21" on="1"/>
        <pt x="224" y="21" on="1"/>
        <pt x="228" y="33" on="0"/>
        <pt x="245" y="80" on="0"/>
        <pt x="250" y="91" on="1"/>
        <pt x="482" y="680" on="1"/>
        <pt x="486" y="690" on="0"/>
        <pt x="496" y="690" on="1"/>
        <pt x="535" y="690" on="1"/>
        <pt x="547" y="690" on="0"/>
        <pt x="549" y="678" on="1"/>
        <pt x="616" y="90" on="1"/>
        <pt x="618" y="79" on="0"/>
        <pt x="622" y="33" on="0"/>
        <pt x="623" y="21" on="1"/>
        <pt x="652" y="21" on="1"/>
        <pt x="679" y="91" on="1"/>
        <pt x="923" y="690" on="1"/>
      </contour>
    </TTGlyph>
    <TTGlyph name="Wacute" xMin="86" yMin="0" xMax="949" yMax="896">
      <contour>
        <pt x="663" y="877" on="1"/>
        <pt x="491" y="736" on="1"/>
        <pt x="477" y="750" on="1"/>
        <pt x="646" y="896" on="1"/>
      </contour>
      <contour>
        <pt x="949" y="690" on="1"/>
        <pt x="671" y="9" on="1"/>
        <pt x="666" y="0" on="0"/>
        <pt x="656" y="0" on="1"/>
        <pt x="614" y="0" on="1"/>
        <pt x="603" y="0" on="0"/>
        <pt x="601" y="12" on="1"/>
        <pt x="536" y="592" on="1"/>
        <pt x="528" y="658" on="0"/>
        <pt x="527" y="667" on="1"/>
        <pt x="502" y="667" on="1"/>
        <pt x="487" y="631" on="0"/>
        <pt x="471" y="590" on="1"/>
        <pt x="244" y="10" on="1"/>
        <pt x="240" y="0" on="0"/>
        <pt x="229" y="0" on="1"/>
        <pt x="186" y="0" on="1"/>
        <pt x="175" y="0" on="0"/>
        <pt x="173" y="11" on="1"/>
        <pt x="86" y="690" on="1"/>
        <pt x="111" y="690" on="1"/>
        <pt x="187" y="90" on="1"/>
        <pt x="188" y="79" on="0"/>
        <pt x="193" y="33" on="0"/>
        <pt x="195" y="21" on="1"/>
        <pt x="224" y="21" on="1"/>
        <pt x="228" y="33" on="0"/>
        <pt x="245" y="80" on="0"/>
        <pt x="250" y="91" on="1"/>
        <pt x="482" y="680" on="1"/>
        <pt x="486" y="690" on="0"/>
        <pt x="496" y="690" on="1"/>
        <pt x="535" y="690" on="1"/>
        <pt x="547" y="690" on="0"/>
        <pt x="549" y="678" on="1"/>
        <pt x="616" y="90" on="1"/>
        <pt x="618" y="79" on="0"/>
        <pt x="622" y="33" on="0"/>
        <pt x="623" y="21" on="1"/>
        <pt x="652" y="21" on="1"/>
        <pt x="679" y="91" on="1"/>
        <pt x="923" y="690" on="1"/>
      </contour>
    </TTGlyph>
    <TTGlyph name="Wcircumflex" xMin="86" yMin="0" xMax="949" yMax="880">
      <contour>
        <pt x="673" y="763" on="1"/>
        <pt x="661" y="751" on="1"/>
        <pt x="546" y="853" on="1"/>
        <pt x="537" y="853" on="1"/>
        <pt x="392" y="750" on="1"/>
        <pt x="382" y="763" on="1"/>
        <pt x="534" y="880" on="1"/>
        <pt x="552" y="880" on="1"/>
      </contour>
      <contour>
        <pt x="949" y="690" on="1"/>
        <pt x="671" y="9" on="1"/>
        <pt x="666" y="0" on="0"/>
        <pt x="656" y="0" on="1"/>
        <pt x="614" y="0" on="1"/>
        <pt x="603" y="0" on="0"/>
        <pt x="601" y="12" on="1"/>
        <pt x="536" y="592" on="1"/>
        <pt x="528" y="658" on="0"/>
        <pt x="527" y="667" on="1"/>
        <pt x="502" y="667" on="1"/>
        <pt x="487" y="631" on="0"/>
        <pt x="471" y="590" on="1"/>
        <pt x="244" y="10" on="1"/>
        <pt x="240" y="0" on="0"/>
        <pt x="229" y="0" on="1"/>
        <pt x="186" y="0" on="1"/>
        <pt x="175" y="0" on="0"/>
        <pt x="173" y="11" on="1"/>
        <pt x="86" y="690" on="1"/>
        <pt x="111" y="690" on="1"/>
        <pt x="187" y="90" on="1"/>
        <pt x="188" y="79" on="0"/>
        <pt x="193" y="33" on="0"/>
        <pt x="195" y="21" on="1"/>
        <pt x="224" y="21" on="1"/>
        <pt x="228" y="33" on="0"/>
        <pt x="245" y="80" on="0"/>
        <pt x="250" y="91" on="1"/>
        <pt x="482" y="680" on="1"/>
        <pt x="486" y="690" on="0"/>
        <pt x="496" y="690" on="1"/>
        <pt x="535" y="690" on="1"/>
        <pt x="547" y="690" on="0"/>
        <pt x="549" y="678" on="1"/>
        <pt x="616" y="90" on="1"/>
        <pt x="618" y="79" on="0"/>
        <pt x="622" y="33" on="0"/>
        <pt x="623" y="21" on="1"/>
        <pt x="652" y="21" on="1"/>
        <pt x="679" y="91" on="1"/>
        <pt x="923" y="690" on="1"/>
      </contour>
    </TTGlyph>
    <TTGlyph name="Wdieresis" xMin="86" yMin="0" xMax="949" yMax="856">
      <contour>
        <pt x="448" y="856" on="1"/>
        <pt x="457" y="856" on="1"/>
        <pt x="468" y="856" on="0"/>
        <pt x="466" y="844" on="1"/>
        <pt x="458" y="791" on="1"/>
        <pt x="457" y="778" on="0"/>
        <pt x="445" y="778" on="1"/>
        <pt x="438" y="778" on="1"/>
        <pt x="427" y="778" on="0"/>
        <pt x="428" y="790" on="1"/>
        <pt x="436" y="844" on="1"/>
        <pt x="438" y="856" on="0"/>
      </contour>
      <contour>
        <pt x="625" y="856" on="1"/>
        <pt x="634" y="856" on="1"/>
        <pt x="644" y="856" on="0"/>
        <pt x="643" y="844" on="1"/>
        <pt x="635" y="791" on="1"/>
        <pt x="634" y="778" on="0"/>
        <pt x="622" y="778" on="1"/>
        <pt x="615" y="778" on="1"/>
        <pt x="604" y="778" on="0"/>
        <pt x="605" y="790" on="1"/>
        <pt x="613" y="844" on="1"/>
        <pt x="614" y="856" on="0"/>
      </contour>
      <contour>
        <pt x="949" y="690" on="1"/>
        <pt x="671" y="9" on="1"/>
        <pt x="666" y="0" on="0"/>
        <pt x="656" y="0" on="1"/>
        <pt x="614" y="0" on="1"/>
        <pt x="603" y="0" on="0"/>
        <pt x="601" y="12" on="1"/>
        <pt x="536" y="592" on="1"/>
        <pt x="528" y="658" on="0"/>
        <pt x="527" y="667" on="1"/>
        <pt x="502" y="667" on="1"/>
        <pt x="487" y="631" on="0"/>
        <pt x="471" y="590" on="1"/>
        <pt x="244" y="10" on="1"/>
        <pt x="240" y="0" on="0"/>
        <pt x="229" y="0" on="1"/>
        <pt x="186" y="0" on="1"/>
        <pt x="175" y="0" on="0"/>
        <pt x="173" y="11" on="1"/>
        <pt x="86" y="690" on="1"/>
        <pt x="111" y="690" on="1"/>
        <pt x="187" y="90" on="1"/>
        <pt x="188" y="79" on="0"/>
        <pt x="193" y="33" on="0"/>
        <pt x="195" y="21" on="1"/>
        <pt x="224" y="21" on="1"/>
        <pt x="228" y="33" on="0"/>
        <pt x="245" y="80" on="0"/>
        <pt x="250" y="91" on="1"/>
        <pt x="482" y="680" on="1"/>
        <pt x="486" y="690" on="0"/>
        <pt x="496" y="690" on="1"/>
        <pt x="535" y="690" on="1"/>
        <pt x="547" y="690" on="0"/>
        <pt x="549" y="678" on="1"/>
        <pt x="616" y="90" on="1"/>
        <pt x="618" y="79" on="0"/>
        <pt x="622" y="33" on="0"/>
        <pt x="623" y="21" on="1"/>
        <pt x="652" y="21" on="1"/>
        <pt x="679" y="91" on="1"/>
        <pt x="923" y="690" on="1"/>
      </contour>
    </TTGlyph>
    <TTGlyph name="Wgrave" xMin="86" yMin="0" xMax="949" yMax="895">
      <contour>
        <pt x="564" y="748" on="1"/>
        <pt x="550" y="736" on="1"/>
        <pt x="416" y="877" on="1"/>
        <pt x="435" y="895" on="1"/>
      </contour>
      <contour>
        <pt x="949" y="690" on="1"/>
        <pt x="671" y="9" on="1"/>
        <pt x="666" y="0" on="0"/>
        <pt x="656" y="0" on="1"/>
        <pt x="614" y="0" on="1"/>
        <pt x="603" y="0" on="0"/>
        <pt x="601" y="12" on="1"/>
        <pt x="536" y="592" on="1"/>
        <pt x="528" y="658" on="0"/>
        <pt x="527" y="667" on="1"/>
        <pt x="502" y="667" on="1"/>
        <pt x="487" y="631" on="0"/>
        <pt x="471" y="590" on="1"/>
        <pt x="244" y="10" on="1"/>
        <pt x="240" y="0" on="0"/>
        <pt x="229" y="0" on="1"/>
        <pt x="186" y="0" on="1"/>
        <pt x="175" y="0" on="0"/>
        <pt x="173" y="11" on="1"/>
        <pt x="86" y="690" on="1"/>
        <pt x="111" y="690" on="1"/>
        <pt x="187" y="90" on="1"/>
        <pt x="188" y="79" on="0"/>
        <pt x="193" y="33" on="0"/>
        <pt x="195" y="21" on="1"/>
        <pt x="224" y="21" on="1"/>
        <pt x="228" y="33" on="0"/>
        <pt x="245" y="80" on="0"/>
        <pt x="250" y="91" on="1"/>
        <pt x="482" y="680" on="1"/>
        <pt x="486" y="690" on="0"/>
        <pt x="496" y="690" on="1"/>
        <pt x="535" y="690" on="1"/>
        <pt x="547" y="690" on="0"/>
        <pt x="549" y="678" on="1"/>
        <pt x="616" y="90" on="1"/>
        <pt x="618" y="79" on="0"/>
        <pt x="622" y="33" on="0"/>
        <pt x="623" y="21" on="1"/>
        <pt x="652" y="21" on="1"/>
        <pt x="679" y="91" on="1"/>
        <pt x="923" y="690" on="1"/>
      </contour>
    </TTGlyph>
    <TTGlyph name="X" xMin="-4" yMin="0" xMax="597" yMax="690">
      <contour>
        <pt x="345" y="360" on="1"/>
        <pt x="513" y="0" on="1"/>
        <pt x="486" y="0" on="1"/>
        <pt x="323" y="350" on="1"/>
        <pt x="288" y="350" on="1"/>
        <pt x="26" y="0" on="1"/>
        <pt x="-4" y="0" on="1"/>
        <pt x="266" y="361" on="1"/>
        <pt x="106" y="690" on="1"/>
        <pt x="133" y="690" on="1"/>
        <pt x="287" y="372" on="1"/>
        <pt x="324" y="372" on="1"/>
        <pt x="568" y="690" on="1"/>
        <pt x="597" y="690" on="1"/>
      </contour>
    </TTGlyph>
    <TTGlyph name="Y" xMin="73" yMin="0" xMax="569" yMax="690">
      <contour>
        <pt x="274" y="257" on="1"/>
        <pt x="237" y="0" on="1"/>
        <pt x="212" y="0" on="1"/>
        <pt x="249" y="257" on="1"/>
        <pt x="73" y="690" on="1"/>
        <pt x="99" y="690" on="1"/>
        <pt x="233" y="356" on="1"/>
        <pt x="261" y="287" on="1"/>
        <pt x="267" y="287" on="1"/>
        <pt x="314" y="357" on="1"/>
        <pt x="541" y="690" on="1"/>
        <pt x="569" y="690" on="1"/>
      </contour>
    </TTGlyph>
    <TTGlyph name="Yacute" xMin="73" yMin="0" xMax="569" yMax="896">
      <contour>
        <pt x="295" y="736" on="1"/>
        <pt x="281" y="750" on="1"/>
        <pt x="450" y="896" on="1"/>
        <pt x="467" y="877" on="1"/>
      </contour>
      <contour>
        <pt x="274" y="257" on="1"/>
        <pt x="237" y="0" on="1"/>
        <pt x="212" y="0" on="1"/>
        <pt x="249" y="257" on="1"/>
        <pt x="73" y="690" on="1"/>
        <pt x="99" y="690" on="1"/>
        <pt x="233" y="356" on="1"/>
        <pt x="261" y="287" on="1"/>
        <pt x="267" y="287" on="1"/>
        <pt x="314" y="357" on="1"/>
        <pt x="541" y="690" on="1"/>
        <pt x="569" y="690" on="1"/>
      </contour>
    </TTGlyph>
    <TTGlyph name="Ycircumflex" xMin="73" yMin="0" xMax="569" yMax="880">
      <contour>
        <pt x="196" y="750" on="1"/>
        <pt x="186" y="763" on="1"/>
        <pt x="338" y="880" on="1"/>
        <pt x="356" y="880" on="1"/>
        <pt x="477" y="763" on="1"/>
        <pt x="465" y="751" on="1"/>
        <pt x="350" y="853" on="1"/>
        <pt x="341" y="853" on="1"/>
      </contour>
      <contour>
        <pt x="274" y="257" on="1"/>
        <pt x="237" y="0" on="1"/>
        <pt x="212" y="0" on="1"/>
        <pt x="249" y="257" on="1"/>
        <pt x="73" y="690" on="1"/>
        <pt x="99" y="690" on="1"/>
        <pt x="233" y="356" on="1"/>
        <pt x="261" y="287" on="1"/>
        <pt x="267" y="287" on="1"/>
        <pt x="314" y="357" on="1"/>
        <pt x="541" y="690" on="1"/>
        <pt x="569" y="690" on="1"/>
      </contour>
    </TTGlyph>
    <TTGlyph name="Ydieresis" xMin="73" yMin="0" xMax="569" yMax="856">
      <contour>
        <pt x="249" y="778" on="1"/>
        <pt x="242" y="778" on="1"/>
        <pt x="231" y="778" on="0"/>
        <pt x="232" y="790" on="1"/>
        <pt x="240" y="844" on="1"/>
        <pt x="242" y="856" on="0"/>
        <pt x="252" y="856" on="1"/>
        <pt x="261" y="856" on="1"/>
        <pt x="272" y="856" on="0"/>
        <pt x="270" y="844" on="1"/>
        <pt x="262" y="791" on="1"/>
        <pt x="261" y="778" on="0"/>
      </contour>
      <contour>
        <pt x="426" y="778" on="1"/>
        <pt x="419" y="778" on="1"/>
        <pt x="408" y="778" on="0"/>
        <pt x="409" y="790" on="1"/>
        <pt x="417" y="844" on="1"/>
        <pt x="418" y="856" on="0"/>
        <pt x="429" y="856" on="1"/>
        <pt x="438" y="856" on="1"/>
        <pt x="448" y="856" on="0"/>
        <pt x="447" y="844" on="1"/>
        <pt x="439" y="791" on="1"/>
        <pt x="438" y="778" on="0"/>
      </contour>
      <contour>
        <pt x="274" y="257" on="1"/>
        <pt x="237" y="0" on="1"/>
        <pt x="212" y="0" on="1"/>
        <pt x="249" y="257" on="1"/>
        <pt x="73" y="690" on="1"/>
        <pt x="99" y="690" on="1"/>
        <pt x="233" y="356" on="1"/>
        <pt x="261" y="287" on="1"/>
        <pt x="267" y="287" on="1"/>
        <pt x="314" y="357" on="1"/>
        <pt x="541" y="690" on="1"/>
        <pt x="569" y="690" on="1"/>
      </contour>
    </TTGlyph>
    <TTGlyph name="Ygrave" xMin="73" yMin="0" xMax="569" yMax="895">
      <contour>
        <pt x="354" y="736" on="1"/>
        <pt x="220" y="877" on="1"/>
        <pt x="239" y="895" on="1"/>
        <pt x="368" y="748" on="1"/>
      </contour>
      <contour>
        <pt x="274" y="257" on="1"/>
        <pt x="237" y="0" on="1"/>
        <pt x="212" y="0" on="1"/>
        <pt x="249" y="257" on="1"/>
        <pt x="73" y="690" on="1"/>
        <pt x="99" y="690" on="1"/>
        <pt x="233" y="356" on="1"/>
        <pt x="261" y="287" on="1"/>
        <pt x="267" y="287" on="1"/>
        <pt x="314" y="357" on="1"/>
        <pt x="541" y="690" on="1"/>
        <pt x="569" y="690" on="1"/>
      </contour>
    </TTGlyph>
    <TTGlyph name="Z" xMin="8" yMin="0" xMax="555" yMax="690">
      <contour>
        <pt x="552" y="667" on="1"/>
        <pt x="42" y="23" on="1"/>
        <pt x="467" y="23" on="1"/>
        <pt x="463" y="0" on="1"/>
        <pt x="8" y="0" on="1"/>
        <pt x="12" y="23" on="1"/>
        <pt x="521" y="667" on="1"/>
        <pt x="105" y="667" on="1"/>
        <pt x="108" y="690" on="1"/>
        <pt x="555" y="690" on="1"/>
      </contour>
    </TTGlyph>
    <TTGlyph name="Zacute" xMin="8" yMin="0" xMax="555" yMax="896">
      <contour>
        <pt x="305" y="736" on="1"/>
        <pt x="291" y="750" on="1"/>
        <pt x="460" y="896" on="1"/>
        <pt x="477" y="877" on="1"/>
      </contour>
      <contour>
        <pt x="552" y="667" on="1"/>
        <pt x="42" y="23" on="1"/>
        <pt x="467" y="23" on="1"/>
        <pt x="463" y="0" on="1"/>
        <pt x="8" y="0" on="1"/>
        <pt x="12" y="23" on="1"/>
        <pt x="521" y="667" on="1"/>
        <pt x="105" y="667" on="1"/>
        <pt x="108" y="690" on="1"/>
        <pt x="555" y="690" on="1"/>
      </contour>
    </TTGlyph>
    <TTGlyph name="Zcaron" xMin="8" yMin="0" xMax="555" yMax="880">
      <contour>
        <pt x="332" y="751" on="1"/>
        <pt x="212" y="868" on="1"/>
        <pt x="223" y="880" on="1"/>
        <pt x="339" y="778" on="1"/>
        <pt x="347" y="778" on="1"/>
        <pt x="493" y="880" on="1"/>
        <pt x="504" y="868" on="1"/>
        <pt x="350" y="751" on="1"/>
      </contour>
      <contour>
        <pt x="552" y="667" on="1"/>
        <pt x="42" y="23" on="1"/>
        <pt x="467" y="23" on="1"/>
        <pt x="463" y="0" on="1"/>
        <pt x="8" y="0" on="1"/>
        <pt x="12" y="23" on="1"/>
        <pt x="521" y="667" on="1"/>
        <pt x="105" y="667" on="1"/>
        <pt x="108" y="690" on="1"/>
        <pt x="555" y="690" on="1"/>
      </contour>
    </TTGlyph>
    <TTGlyph name="Zdotaccent" xMin="8" yMin="0" xMax="555" yMax="860">
      <contour>
        <pt x="349" y="774" on="1"/>
        <pt x="340" y="774" on="1"/>
        <pt x="327" y="774" on="0"/>
        <pt x="329" y="787" on="1"/>
        <pt x="337" y="847" on="1"/>
        <pt x="338" y="860" on="0"/>
        <pt x="350" y="860" on="1"/>
        <pt x="361" y="860" on="1"/>
        <pt x="372" y="860" on="0"/>
        <pt x="371" y="847" on="1"/>
        <pt x="363" y="787" on="1"/>
        <pt x="362" y="774" on="0"/>
      </contour>
      <contour>
        <pt x="552" y="667" on="1"/>
        <pt x="42" y="23" on="1"/>
        <pt x="467" y="23" on="1"/>
        <pt x="463" y="0" on="1"/>
        <pt x="8" y="0" on="1"/>
        <pt x="12" y="23" on="1"/>
        <pt x="521" y="667" on="1"/>
        <pt x="105" y="667" on="1"/>
        <pt x="108" y="690" on="1"/>
        <pt x="555" y="690" on="1"/>
      </contour>
    </TTGlyph>
    <TTGlyph name="a" xMin="70" yMin="-12" xMax="498" yMax="492">
      <contour>
        <pt x="412" y="0" on="1"/>
        <pt x="427" y="122" on="1"/>
        <pt x="368" y="57" on="0"/>
        <pt x="233" y="-12" on="0"/>
        <pt x="182" y="-12" on="1"/>
        <pt x="94" y="-12" on="0"/>
        <pt x="46" y="112" on="0"/>
        <pt x="70" y="242" on="1"/>
        <pt x="94" y="393" on="0"/>
        <pt x="190" y="492" on="0"/>
        <pt x="319" y="492" on="1"/>
        <pt x="390" y="492" on="0"/>
        <pt x="498" y="480" on="1"/>
        <pt x="430" y="0" on="1"/>
      </contour>
      <contour>
        <pt x="428" y="151" on="1"/>
        <pt x="471" y="463" on="1"/>
        <pt x="362" y="470" on="0"/>
        <pt x="322" y="470" on="1"/>
        <pt x="271" y="470" on="0"/>
        <pt x="206" y="458" on="0"/>
        <pt x="156" y="430" on="0"/>
        <pt x="125" y="373" on="0"/>
        <pt x="103" y="298" on="0"/>
        <pt x="94" y="238" on="1"/>
        <pt x="72" y="119" on="0"/>
        <pt x="109" y="11" on="0"/>
        <pt x="182" y="11" on="1"/>
        <pt x="232" y="11" on="0"/>
        <pt x="369" y="86" on="0"/>
      </contour>
    </TTGlyph>
    <TTGlyph name="aacute" xMin="70" yMin="-12" xMax="498" yMax="714">
      <contour>
        <pt x="293" y="554" on="1"/>
        <pt x="279" y="568" on="1"/>
        <pt x="448" y="714" on="1"/>
        <pt x="465" y="695" on="1"/>
      </contour>
      <contour>
        <pt x="412" y="0" on="1"/>
        <pt x="427" y="122" on="1"/>
        <pt x="368" y="57" on="0"/>
        <pt x="233" y="-12" on="0"/>
        <pt x="182" y="-12" on="1"/>
        <pt x="94" y="-12" on="0"/>
        <pt x="46" y="112" on="0"/>
        <pt x="70" y="242" on="1"/>
        <pt x="94" y="393" on="0"/>
        <pt x="190" y="492" on="0"/>
        <pt x="319" y="492" on="1"/>
        <pt x="390" y="492" on="0"/>
        <pt x="498" y="480" on="1"/>
        <pt x="430" y="0" on="1"/>
      </contour>
      <contour>
        <pt x="428" y="151" on="1"/>
        <pt x="471" y="463" on="1"/>
        <pt x="362" y="470" on="0"/>
        <pt x="322" y="470" on="1"/>
        <pt x="271" y="470" on="0"/>
        <pt x="206" y="458" on="0"/>
        <pt x="156" y="430" on="0"/>
        <pt x="125" y="373" on="0"/>
        <pt x="103" y="298" on="0"/>
        <pt x="94" y="238" on="1"/>
        <pt x="72" y="119" on="0"/>
        <pt x="109" y="11" on="0"/>
        <pt x="182" y="11" on="1"/>
        <pt x="232" y="11" on="0"/>
        <pt x="369" y="86" on="0"/>
      </contour>
    </TTGlyph>
    <TTGlyph name="abreve" xMin="70" yMin="-12" xMax="498" yMax="692">
      <contour>
        <pt x="463" y="692" on="1"/>
        <pt x="480" y="686" on="1"/>
        <pt x="473" y="633" on="0"/>
        <pt x="393" y="573" on="0"/>
        <pt x="331" y="573" on="1"/>
        <pt x="267" y="573" on="0"/>
        <pt x="201" y="635" on="0"/>
        <pt x="208" y="688" on="1"/>
        <pt x="226" y="690" on="1"/>
        <pt x="219" y="646" on="0"/>
        <pt x="276" y="597" on="0"/>
        <pt x="386" y="597" on="0"/>
        <pt x="457" y="647" on="0"/>
      </contour>
      <contour>
        <pt x="412" y="0" on="1"/>
        <pt x="427" y="122" on="1"/>
        <pt x="368" y="57" on="0"/>
        <pt x="233" y="-12" on="0"/>
        <pt x="182" y="-12" on="1"/>
        <pt x="94" y="-12" on="0"/>
        <pt x="46" y="112" on="0"/>
        <pt x="70" y="242" on="1"/>
        <pt x="94" y="393" on="0"/>
        <pt x="190" y="492" on="0"/>
        <pt x="319" y="492" on="1"/>
        <pt x="390" y="492" on="0"/>
        <pt x="498" y="480" on="1"/>
        <pt x="430" y="0" on="1"/>
      </contour>
      <contour>
        <pt x="428" y="151" on="1"/>
        <pt x="471" y="463" on="1"/>
        <pt x="362" y="470" on="0"/>
        <pt x="322" y="470" on="1"/>
        <pt x="271" y="470" on="0"/>
        <pt x="206" y="458" on="0"/>
        <pt x="156" y="430" on="0"/>
        <pt x="125" y="373" on="0"/>
        <pt x="103" y="298" on="0"/>
        <pt x="94" y="238" on="1"/>
        <pt x="72" y="119" on="0"/>
        <pt x="109" y="11" on="0"/>
        <pt x="182" y="11" on="1"/>
        <pt x="232" y="11" on="0"/>
        <pt x="369" y="86" on="0"/>
      </contour>
    </TTGlyph>
    <TTGlyph name="acircumflex" xMin="70" yMin="-12" xMax="498" yMax="698">
      <contour>
        <pt x="194" y="568" on="1"/>
        <pt x="184" y="581" on="1"/>
        <pt x="336" y="698" on="1"/>
        <pt x="354" y="698" on="1"/>
        <pt x="475" y="581" on="1"/>
        <pt x="463" y="569" on="1"/>
        <pt x="348" y="671" on="1"/>
        <pt x="339" y="671" on="1"/>
      </contour>
      <contour>
        <pt x="412" y="0" on="1"/>
        <pt x="427" y="122" on="1"/>
        <pt x="368" y="57" on="0"/>
        <pt x="233" y="-12" on="0"/>
        <pt x="182" y="-12" on="1"/>
        <pt x="94" y="-12" on="0"/>
        <pt x="46" y="112" on="0"/>
        <pt x="70" y="242" on="1"/>
        <pt x="94" y="393" on="0"/>
        <pt x="190" y="492" on="0"/>
        <pt x="319" y="492" on="1"/>
        <pt x="390" y="492" on="0"/>
        <pt x="498" y="480" on="1"/>
        <pt x="430" y="0" on="1"/>
      </contour>
      <contour>
        <pt x="428" y="151" on="1"/>
        <pt x="471" y="463" on="1"/>
        <pt x="362" y="470" on="0"/>
        <pt x="322" y="470" on="1"/>
        <pt x="271" y="470" on="0"/>
        <pt x="206" y="458" on="0"/>
        <pt x="156" y="430" on="0"/>
        <pt x="125" y="373" on="0"/>
        <pt x="103" y="298" on="0"/>
        <pt x="94" y="238" on="1"/>
        <pt x="72" y="119" on="0"/>
        <pt x="109" y="11" on="0"/>
        <pt x="182" y="11" on="1"/>
        <pt x="232" y="11" on="0"/>
        <pt x="369" y="86" on="0"/>
      </contour>
    </TTGlyph>
    <TTGlyph name="acute" xMin="104" yMin="550" xMax="290" yMax="710">
      <contour>
        <pt x="290" y="691" on="1"/>
        <pt x="118" y="550" on="1"/>
        <pt x="104" y="564" on="1"/>
        <pt x="273" y="710" on="1"/>
      </contour>
    </TTGlyph>
    <TTGlyph name="adieresis" xMin="70" yMin="-12" xMax="498" yMax="674">
      <contour>
        <pt x="247" y="596" on="1"/>
        <pt x="240" y="596" on="1"/>
        <pt x="229" y="596" on="0"/>
        <pt x="230" y="608" on="1"/>
        <pt x="238" y="662" on="1"/>
        <pt x="240" y="674" on="0"/>
        <pt x="250" y="674" on="1"/>
        <pt x="259" y="674" on="1"/>
        <pt x="270" y="674" on="0"/>
        <pt x="268" y="662" on="1"/>
        <pt x="260" y="609" on="1"/>
        <pt x="259" y="596" on="0"/>
      </contour>
      <contour>
        <pt x="424" y="596" on="1"/>
        <pt x="417" y="596" on="1"/>
        <pt x="406" y="596" on="0"/>
        <pt x="407" y="608" on="1"/>
        <pt x="415" y="662" on="1"/>
        <pt x="416" y="674" on="0"/>
        <pt x="427" y="674" on="1"/>
        <pt x="436" y="674" on="1"/>
        <pt x="446" y="674" on="0"/>
        <pt x="445" y="662" on="1"/>
        <pt x="437" y="609" on="1"/>
        <pt x="436" y="596" on="0"/>
      </contour>
      <contour>
        <pt x="412" y="0" on="1"/>
        <pt x="427" y="122" on="1"/>
        <pt x="368" y="57" on="0"/>
        <pt x="233" y="-12" on="0"/>
        <pt x="182" y="-12" on="1"/>
        <pt x="94" y="-12" on="0"/>
        <pt x="46" y="112" on="0"/>
        <pt x="70" y="242" on="1"/>
        <pt x="94" y="393" on="0"/>
        <pt x="190" y="492" on="0"/>
        <pt x="319" y="492" on="1"/>
        <pt x="390" y="492" on="0"/>
        <pt x="498" y="480" on="1"/>
        <pt x="430" y="0" on="1"/>
      </contour>
      <contour>
        <pt x="428" y="151" on="1"/>
        <pt x="471" y="463" on="1"/>
        <pt x="362" y="470" on="0"/>
        <pt x="322" y="470" on="1"/>
        <pt x="271" y="470" on="0"/>
        <pt x="206" y="458" on="0"/>
        <pt x="156" y="430" on="0"/>
        <pt x="125" y="373" on="0"/>
        <pt x="103" y="298" on="0"/>
        <pt x="94" y="238" on="1"/>
        <pt x="72" y="119" on="0"/>
        <pt x="109" y="11" on="0"/>
        <pt x="182" y="11" on="1"/>
        <pt x="232" y="11" on="0"/>
        <pt x="369" y="86" on="0"/>
      </contour>
    </TTGlyph>
    <TTGlyph name="ae" xMin="57" yMin="-12" xMax="815" yMax="492">
      <contour>
        <pt x="764" y="24" on="1"/>
        <pt x="767" y="6" on="1"/>
        <pt x="700" y="-12" on="0"/>
        <pt x="578" y="-12" on="1"/>
        <pt x="492" y="-12" on="0"/>
        <pt x="407" y="47" on="0"/>
        <pt x="400" y="115" on="1"/>
        <pt x="346" y="53" on="0"/>
        <pt x="226" y="-12" on="0"/>
        <pt x="170" y="-12" on="1"/>
        <pt x="113" y="-12" on="0"/>
        <pt x="58" y="50" on="0"/>
        <pt x="56" y="163" on="0"/>
        <pt x="67" y="242" on="1"/>
        <pt x="90" y="393" on="0"/>
        <pt x="188" y="492" on="0"/>
        <pt x="312" y="492" on="1"/>
        <pt x="400" y="492" on="0"/>
        <pt x="524" y="470" on="1"/>
        <pt x="569" y="492" on="0"/>
        <pt x="654" y="492" on="1"/>
        <pt x="750" y="492" on="0"/>
        <pt x="835" y="429" on="0"/>
        <pt x="815" y="344" on="1"/>
        <pt x="801" y="286" on="0"/>
        <pt x="732" y="239" on="0"/>
        <pt x="656" y="231" on="1"/>
        <pt x="425" y="206" on="1"/>
        <pt x="412" y="92" on="0"/>
        <pt x="484" y="10" on="0"/>
        <pt x="588" y="10" on="1"/>
        <pt x="666" y="10" on="0"/>
      </contour>
      <contour>
        <pt x="171" y="11" on="1"/>
        <pt x="222" y="11" on="0"/>
        <pt x="342" y="77" on="0"/>
        <pt x="398" y="140" on="1"/>
        <pt x="397" y="181" on="0"/>
        <pt x="406" y="244" on="1"/>
        <pt x="430" y="402" on="0"/>
        <pt x="496" y="453" on="1"/>
        <pt x="352" y="470" on="0"/>
        <pt x="314" y="470" on="1"/>
        <pt x="196" y="470" on="0"/>
        <pt x="112" y="379" on="0"/>
        <pt x="91" y="238" on="1"/>
        <pt x="70" y="124" on="0"/>
        <pt x="104" y="11" on="0"/>
      </contour>
      <contour>
        <pt x="428" y="227" on="1"/>
        <pt x="657" y="253" on="1"/>
        <pt x="724" y="261" on="0"/>
        <pt x="778" y="298" on="0"/>
        <pt x="791" y="346" on="1"/>
        <pt x="796" y="373" on="0"/>
        <pt x="799" y="413" on="0"/>
        <pt x="781" y="440" on="0"/>
        <pt x="760" y="457" on="0"/>
        <pt x="722" y="467" on="0"/>
        <pt x="686" y="470" on="0"/>
        <pt x="661" y="470" on="1"/>
        <pt x="603" y="470" on="0"/>
        <pt x="534" y="455" on="0"/>
        <pt x="475" y="406" on="0"/>
        <pt x="442" y="316" on="0"/>
        <pt x="430" y="241" on="1"/>
      </contour>
    </TTGlyph>
    <TTGlyph name="agrave" xMin="70" yMin="-12" xMax="498" yMax="713">
      <contour>
        <pt x="352" y="554" on="1"/>
        <pt x="218" y="695" on="1"/>
        <pt x="237" y="713" on="1"/>
        <pt x="366" y="566" on="1"/>
      </contour>
      <contour>
        <pt x="412" y="0" on="1"/>
        <pt x="427" y="122" on="1"/>
        <pt x="368" y="57" on="0"/>
        <pt x="233" y="-12" on="0"/>
        <pt x="182" y="-12" on="1"/>
        <pt x="94" y="-12" on="0"/>
        <pt x="46" y="112" on="0"/>
        <pt x="70" y="242" on="1"/>
        <pt x="94" y="393" on="0"/>
        <pt x="190" y="492" on="0"/>
        <pt x="319" y="492" on="1"/>
        <pt x="390" y="492" on="0"/>
        <pt x="498" y="480" on="1"/>
        <pt x="430" y="0" on="1"/>
      </contour>
      <contour>
        <pt x="428" y="151" on="1"/>
        <pt x="471" y="463" on="1"/>
        <pt x="362" y="470" on="0"/>
        <pt x="322" y="470" on="1"/>
        <pt x="271" y="470" on="0"/>
        <pt x="206" y="458" on="0"/>
        <pt x="156" y="430" on="0"/>
        <pt x="125" y="373" on="0"/>
        <pt x="103" y="298" on="0"/>
        <pt x="94" y="238" on="1"/>
        <pt x="72" y="119" on="0"/>
        <pt x="109" y="11" on="0"/>
        <pt x="182" y="11" on="1"/>
        <pt x="232" y="11" on="0"/>
        <pt x="369" y="86" on="0"/>
      </contour>
    </TTGlyph>
    <TTGlyph name="amacron" xMin="70" yMin="-12" xMax="498" yMax="645">
      <contour>
        <pt x="466" y="622" on="1"/>
        <pt x="206" y="622" on="1"/>
        <pt x="209" y="645" on="1"/>
        <pt x="469" y="645" on="1"/>
      </contour>
      <contour>
        <pt x="412" y="0" on="1"/>
        <pt x="427" y="122" on="1"/>
        <pt x="368" y="57" on="0"/>
        <pt x="233" y="-12" on="0"/>
        <pt x="182" y="-12" on="1"/>
        <pt x="94" y="-12" on="0"/>
        <pt x="46" y="112" on="0"/>
        <pt x="70" y="242" on="1"/>
        <pt x="94" y="393" on="0"/>
        <pt x="190" y="492" on="0"/>
        <pt x="319" y="492" on="1"/>
        <pt x="390" y="492" on="0"/>
        <pt x="498" y="480" on="1"/>
        <pt x="430" y="0" on="1"/>
      </contour>
      <contour>
        <pt x="428" y="151" on="1"/>
        <pt x="471" y="463" on="1"/>
        <pt x="362" y="470" on="0"/>
        <pt x="322" y="470" on="1"/>
        <pt x="271" y="470" on="0"/>
        <pt x="206" y="458" on="0"/>
        <pt x="156" y="430" on="0"/>
        <pt x="125" y="373" on="0"/>
        <pt x="103" y="298" on="0"/>
        <pt x="94" y="238" on="1"/>
        <pt x="72" y="119" on="0"/>
        <pt x="109" y="11" on="0"/>
        <pt x="182" y="11" on="1"/>
        <pt x="232" y="11" on="0"/>
        <pt x="369" y="86" on="0"/>
      </contour>
    </TTGlyph>
    <TTGlyph name="ampersand" xMin="56" yMin="-11" xMax="748" yMax="698">
      <contour>
        <pt x="742" y="347" on="1"/>
        <pt x="596" y="347" on="1"/>
        <pt x="577" y="234" on="0"/>
        <pt x="527" y="151" on="1"/>
        <pt x="475" y="63" on="0"/>
        <pt x="337" y="-8" on="0"/>
        <pt x="241" y="-11" on="1"/>
        <pt x="126" y="-15" on="0"/>
        <pt x="38" y="67" on="0"/>
        <pt x="56" y="176" on="1"/>
        <pt x="72" y="268" on="0"/>
        <pt x="170" y="354" on="0"/>
        <pt x="259" y="356" on="1"/>
        <pt x="259" y="360" on="1"/>
        <pt x="183" y="365" on="0"/>
        <pt x="132" y="447" on="0"/>
        <pt x="145" y="523" on="1"/>
        <pt x="163" y="626" on="0"/>
        <pt x="270" y="698" on="0"/>
        <pt x="388" y="698" on="1"/>
        <pt x="475" y="698" on="0"/>
        <pt x="543" y="675" on="1"/>
        <pt x="539" y="657" on="1"/>
        <pt x="467" y="675" on="0"/>
        <pt x="386" y="675" on="1"/>
        <pt x="280" y="675" on="0"/>
        <pt x="187" y="615" on="0"/>
        <pt x="170" y="522" on="1"/>
        <pt x="154" y="432" on="0"/>
        <pt x="233" y="368" on="0"/>
        <pt x="344" y="368" on="1"/>
        <pt x="575" y="368" on="1"/>
        <pt x="585" y="432" on="0"/>
        <pt x="583" y="521" on="1"/>
        <pt x="607" y="521" on="1"/>
        <pt x="607" y="429" on="0"/>
        <pt x="599" y="368" on="1"/>
        <pt x="748" y="368" on="1"/>
      </contour>
      <contour>
        <pt x="572" y="347" on="1"/>
        <pt x="343" y="347" on="1"/>
        <pt x="277" y="346" on="0"/>
        <pt x="199" y="335" on="0"/>
        <pt x="130" y="299" on="0"/>
        <pt x="92" y="229" on="0"/>
        <pt x="82" y="172" on="1"/>
        <pt x="77" y="142" on="0"/>
        <pt x="77" y="95" on="0"/>
        <pt x="86" y="62" on="0"/>
        <pt x="106" y="37" on="0"/>
        <pt x="130" y="23" on="0"/>
        <pt x="164" y="15" on="0"/>
        <pt x="197" y="12" on="0"/>
        <pt x="219" y="12" on="1"/>
        <pt x="323" y="12" on="0"/>
        <pt x="459" y="82" on="0"/>
        <pt x="507" y="163" on="1"/>
        <pt x="554" y="240" on="0"/>
      </contour>
    </TTGlyph>
    <TTGlyph name="aogonek" xMin="70" yMin="-202" xMax="498" yMax="492">
      <contour>
        <pt x="498" y="480" on="1"/>
        <pt x="430" y="0" on="1"/>
        <pt x="356" y="-65" on="0"/>
        <pt x="325" y="-128" on="1"/>
        <pt x="303" y="-173" on="0"/>
        <pt x="350" y="-203" on="0"/>
        <pt x="410" y="-182" on="1"/>
        <pt x="413" y="-194" on="1"/>
        <pt x="333" y="-226" on="0"/>
        <pt x="277" y="-177" on="0"/>
        <pt x="304" y="-122" on="1"/>
        <pt x="334" y="-61" on="0"/>
        <pt x="412" y="1" on="1"/>
        <pt x="427" y="122" on="1"/>
        <pt x="368" y="57" on="0"/>
        <pt x="233" y="-12" on="0"/>
        <pt x="182" y="-12" on="1"/>
        <pt x="94" y="-12" on="0"/>
        <pt x="46" y="112" on="0"/>
        <pt x="70" y="242" on="1"/>
        <pt x="94" y="393" on="0"/>
        <pt x="190" y="492" on="0"/>
        <pt x="319" y="492" on="1"/>
        <pt x="390" y="492" on="0"/>
      </contour>
      <contour>
        <pt x="428" y="151" on="1"/>
        <pt x="471" y="463" on="1"/>
        <pt x="362" y="470" on="0"/>
        <pt x="322" y="470" on="1"/>
        <pt x="271" y="470" on="0"/>
        <pt x="206" y="458" on="0"/>
        <pt x="156" y="430" on="0"/>
        <pt x="125" y="373" on="0"/>
        <pt x="103" y="298" on="0"/>
        <pt x="94" y="238" on="1"/>
        <pt x="72" y="119" on="0"/>
        <pt x="109" y="11" on="0"/>
        <pt x="182" y="11" on="1"/>
        <pt x="232" y="11" on="0"/>
        <pt x="369" y="86" on="0"/>
      </contour>
    </TTGlyph>
    <TTGlyph name="approxequal" xMin="67" yMin="153" xMax="525" yMax="433">
      <contour>
        <pt x="113" y="343" on="1"/>
        <pt x="94" y="345" on="1"/>
        <pt x="100" y="394" on="0"/>
        <pt x="144" y="433" on="0"/>
        <pt x="181" y="433" on="1"/>
        <pt x="225" y="433" on="0"/>
        <pt x="394" y="367" on="0"/>
        <pt x="440" y="366" on="1"/>
        <pt x="469" y="366" on="0"/>
        <pt x="500" y="391" on="0"/>
        <pt x="506" y="429" on="1"/>
        <pt x="525" y="427" on="1"/>
        <pt x="519" y="382" on="0"/>
        <pt x="478" y="343" on="0"/>
        <pt x="435" y="343" on="1"/>
        <pt x="386" y="343" on="0"/>
        <pt x="219" y="410" on="0"/>
        <pt x="180" y="410" on="1"/>
        <pt x="151" y="410" on="0"/>
        <pt x="119" y="382" on="0"/>
      </contour>
      <contour>
        <pt x="87" y="153" on="1"/>
        <pt x="67" y="155" on="1"/>
        <pt x="73" y="204" on="0"/>
        <pt x="117" y="243" on="0"/>
        <pt x="154" y="243" on="1"/>
        <pt x="198" y="243" on="0"/>
        <pt x="367" y="177" on="0"/>
        <pt x="413" y="176" on="1"/>
        <pt x="442" y="176" on="0"/>
        <pt x="473" y="201" on="0"/>
        <pt x="479" y="239" on="1"/>
        <pt x="499" y="237" on="1"/>
        <pt x="492" y="192" on="0"/>
        <pt x="452" y="153" on="0"/>
        <pt x="409" y="153" on="1"/>
        <pt x="360" y="153" on="0"/>
        <pt x="192" y="220" on="0"/>
        <pt x="153" y="220" on="1"/>
        <pt x="125" y="220" on="0"/>
        <pt x="93" y="192" on="0"/>
      </contour>
    </TTGlyph>
    <TTGlyph name="aring" xMin="70" yMin="-12" xMax="498" yMax="727">
      <contour>
        <pt x="370" y="537" on="0"/>
        <pt x="286" y="537" on="0"/>
        <pt x="236" y="593" on="0"/>
        <pt x="241" y="634" on="1"/>
        <pt x="246" y="672" on="0"/>
        <pt x="305" y="727" on="0"/>
        <pt x="346" y="727" on="1"/>
        <pt x="388" y="727" on="0"/>
        <pt x="438" y="670" on="0"/>
        <pt x="433" y="630" on="1"/>
        <pt x="428" y="592" on="0"/>
      </contour>
      <contour>
        <pt x="262" y="630" on="1"/>
        <pt x="258" y="599" on="0"/>
        <pt x="295" y="556" on="0"/>
        <pt x="361" y="556" on="0"/>
        <pt x="408" y="601" on="0"/>
        <pt x="412" y="634" on="1"/>
        <pt x="416" y="665" on="0"/>
        <pt x="380" y="708" on="0"/>
        <pt x="312" y="708" on="0"/>
        <pt x="266" y="663" on="0"/>
      </contour>
      <contour>
        <pt x="412" y="0" on="1"/>
        <pt x="427" y="122" on="1"/>
        <pt x="368" y="57" on="0"/>
        <pt x="233" y="-12" on="0"/>
        <pt x="182" y="-12" on="1"/>
        <pt x="94" y="-12" on="0"/>
        <pt x="46" y="112" on="0"/>
        <pt x="70" y="242" on="1"/>
        <pt x="94" y="393" on="0"/>
        <pt x="190" y="492" on="0"/>
        <pt x="319" y="492" on="1"/>
        <pt x="390" y="492" on="0"/>
        <pt x="498" y="480" on="1"/>
        <pt x="430" y="0" on="1"/>
      </contour>
      <contour>
        <pt x="428" y="151" on="1"/>
        <pt x="471" y="463" on="1"/>
        <pt x="362" y="470" on="0"/>
        <pt x="322" y="470" on="1"/>
        <pt x="271" y="470" on="0"/>
        <pt x="206" y="458" on="0"/>
        <pt x="156" y="430" on="0"/>
        <pt x="125" y="373" on="0"/>
        <pt x="103" y="298" on="0"/>
        <pt x="94" y="238" on="1"/>
        <pt x="72" y="119" on="0"/>
        <pt x="109" y="11" on="0"/>
        <pt x="182" y="11" on="1"/>
        <pt x="232" y="11" on="0"/>
        <pt x="369" y="86" on="0"/>
      </contour>
    </TTGlyph>
    <TTGlyph name="asciicircum" xMin="49" yMin="366" xMax="382" yMax="575">
      <contour>
        <pt x="382" y="377" on="1"/>
        <pt x="368" y="366" on="1"/>
        <pt x="245" y="548" on="1"/>
        <pt x="237" y="548" on="1"/>
        <pt x="62" y="366" on="1"/>
        <pt x="49" y="378" on="1"/>
        <pt x="234" y="575" on="1"/>
        <pt x="252" y="575" on="1"/>
      </contour>
    </TTGlyph>
    <TTGlyph name="asciitilde" xMin="79" yMin="240" xMax="451" yMax="330">
      <contour>
        <pt x="96" y="240" on="1"/>
        <pt x="79" y="242" on="1"/>
        <pt x="84" y="287" on="0"/>
        <pt x="130" y="333" on="0"/>
        <pt x="165" y="330" on="1"/>
        <pt x="209" y="327" on="0"/>
        <pt x="323" y="264" on="0"/>
        <pt x="365" y="262" on="1"/>
        <pt x="396" y="260" on="0"/>
        <pt x="429" y="290" on="0"/>
        <pt x="434" y="326" on="1"/>
        <pt x="451" y="324" on="1"/>
        <pt x="447" y="281" on="0"/>
        <pt x="400" y="237" on="0"/>
        <pt x="366" y="240" on="1"/>
        <pt x="311" y="243" on="0"/>
        <pt x="200" y="306" on="0"/>
        <pt x="166" y="308" on="1"/>
        <pt x="107" y="314" on="0"/>
      </contour>
    </TTGlyph>
    <TTGlyph name="asterisk" xMin="106" yMin="395" xMax="417" yMax="690">
      <contour>
        <pt x="265" y="536" on="1"/>
        <pt x="342" y="406" on="1"/>
        <pt x="322" y="395" on="1"/>
        <pt x="255" y="520" on="1"/>
        <pt x="153" y="396" on="1"/>
        <pt x="136" y="411" on="1"/>
        <pt x="248" y="537" on="1"/>
        <pt x="268" y="690" on="1"/>
        <pt x="290" y="690" on="1"/>
      </contour>
      <contour>
        <pt x="234" y="548" on="1"/>
        <pt x="232" y="539" on="1"/>
        <pt x="227" y="531" on="1"/>
        <pt x="106" y="569" on="1"/>
        <pt x="115" y="591" on="1"/>
      </contour>
      <contour>
        <pt x="417" y="568" on="1"/>
        <pt x="285" y="531" on="1"/>
        <pt x="282" y="539" on="1"/>
        <pt x="283" y="548" on="1"/>
        <pt x="412" y="590" on="1"/>
      </contour>
    </TTGlyph>
    <TTGlyph name="at" xMin="60" yMin="-12" xMax="658" yMax="613">
      <contour>
        <pt x="127" y="591" on="1"/>
        <pt x="129" y="609" on="1"/>
        <pt x="289" y="613" on="0"/>
        <pt x="418" y="613" on="1"/>
        <pt x="483" y="613" on="0"/>
        <pt x="561" y="607" on="0"/>
        <pt x="623" y="580" on="0"/>
        <pt x="649" y="544" on="0"/>
        <pt x="661" y="466" on="0"/>
        <pt x="655" y="375" on="0"/>
        <pt x="645" y="299" on="1"/>
        <pt x="635" y="231" on="0"/>
        <pt x="623" y="158" on="0"/>
        <pt x="603" y="75" on="0"/>
        <pt x="583" y="36" on="0"/>
        <pt x="551" y="0" on="0"/>
        <pt x="510" y="-12" on="0"/>
        <pt x="481" y="-12" on="1"/>
        <pt x="397" y="-12" on="0"/>
        <pt x="410" y="84" on="1"/>
        <pt x="415" y="117" on="1"/>
        <pt x="301" y="-12" on="0"/>
        <pt x="177" y="-12" on="1"/>
        <pt x="144" y="-12" on="0"/>
        <pt x="98" y="7" on="0"/>
        <pt x="73" y="44" on="0"/>
        <pt x="60" y="86" on="0"/>
        <pt x="60" y="144" on="0"/>
        <pt x="66" y="192" on="0"/>
        <pt x="71" y="222" on="1"/>
        <pt x="94" y="355" on="0"/>
        <pt x="191" y="441" on="0"/>
        <pt x="320" y="441" on="1"/>
        <pt x="392" y="441" on="0"/>
        <pt x="484" y="429" on="1"/>
        <pt x="434" y="82" on="1"/>
        <pt x="429" y="44" on="0"/>
        <pt x="451" y="10" on="0"/>
        <pt x="482" y="10" on="1"/>
        <pt x="510" y="10" on="0"/>
        <pt x="546" y="26" on="0"/>
        <pt x="574" y="58" on="0"/>
        <pt x="594" y="132" on="0"/>
        <pt x="611" y="223" on="0"/>
        <pt x="622" y="302" on="1"/>
        <pt x="630" y="357" on="0"/>
        <pt x="637" y="430" on="0"/>
        <pt x="635" y="495" on="0"/>
        <pt x="628" y="534" on="0"/>
        <pt x="602" y="565" on="0"/>
        <pt x="575" y="579" on="0"/>
        <pt x="518" y="589" on="0"/>
        <pt x="465" y="591" on="0"/>
        <pt x="419" y="591" on="1"/>
      </contour>
      <contour>
        <pt x="419" y="149" on="1"/>
        <pt x="457" y="412" on="1"/>
        <pt x="367" y="419" on="0"/>
        <pt x="325" y="419" on="1"/>
        <pt x="203" y="419" on="0"/>
        <pt x="117" y="342" on="0"/>
        <pt x="95" y="218" on="1"/>
        <pt x="86" y="160" on="0"/>
        <pt x="83" y="67" on="0"/>
        <pt x="129" y="10" on="0"/>
        <pt x="179" y="10" on="1"/>
        <pt x="299" y="10" on="0"/>
      </contour>
    </TTGlyph>
    <TTGlyph name="atilde" xMin="70" yMin="-12" xMax="498" yMax="684">
      <contour>
        <pt x="472" y="680" on="1"/>
        <pt x="489" y="678" on="1"/>
        <pt x="485" y="635" on="0"/>
        <pt x="439" y="591" on="0"/>
        <pt x="404" y="594" on="1"/>
        <pt x="368" y="597" on="0"/>
        <pt x="295" y="660" on="0"/>
        <pt x="274" y="662" on="1"/>
        <pt x="215" y="668" on="0"/>
        <pt x="204" y="594" on="1"/>
        <pt x="187" y="596" on="1"/>
        <pt x="192" y="641" on="0"/>
        <pt x="238" y="687" on="0"/>
        <pt x="273" y="684" on="1"/>
        <pt x="303" y="681" on="0"/>
        <pt x="375" y="618" on="0"/>
        <pt x="403" y="616" on="1"/>
        <pt x="434" y="614" on="0"/>
        <pt x="467" y="645" on="0"/>
      </contour>
      <contour>
        <pt x="412" y="0" on="1"/>
        <pt x="427" y="122" on="1"/>
        <pt x="368" y="57" on="0"/>
        <pt x="233" y="-12" on="0"/>
        <pt x="182" y="-12" on="1"/>
        <pt x="94" y="-12" on="0"/>
        <pt x="46" y="112" on="0"/>
        <pt x="70" y="242" on="1"/>
        <pt x="94" y="393" on="0"/>
        <pt x="190" y="492" on="0"/>
        <pt x="319" y="492" on="1"/>
        <pt x="390" y="492" on="0"/>
        <pt x="498" y="480" on="1"/>
        <pt x="430" y="0" on="1"/>
      </contour>
      <contour>
        <pt x="428" y="151" on="1"/>
        <pt x="471" y="463" on="1"/>
        <pt x="362" y="470" on="0"/>
        <pt x="322" y="470" on="1"/>
        <pt x="271" y="470" on="0"/>
        <pt x="206" y="458" on="0"/>
        <pt x="156" y="430" on="0"/>
        <pt x="125" y="373" on="0"/>
        <pt x="103" y="298" on="0"/>
        <pt x="94" y="238" on="1"/>
        <pt x="72" y="119" on="0"/>
        <pt x="109" y="11" on="0"/>
        <pt x="182" y="11" on="1"/>
        <pt x="232" y="11" on="0"/>
        <pt x="369" y="86" on="0"/>
      </contour>
    </TTGlyph>
    <TTGlyph name="b" xMin="52" yMin="-12" xMax="480" yMax="700">
      <contour>
        <pt x="172" y="700" on="1"/>
        <pt x="142" y="499" on="1"/>
        <pt x="131" y="426" on="0"/>
        <pt x="119" y="364" on="1"/>
        <pt x="265" y="492" on="0"/>
        <pt x="358" y="492" on="1"/>
        <pt x="443" y="492" on="0"/>
        <pt x="500" y="379" on="0"/>
        <pt x="480" y="238" on="1"/>
        <pt x="459" y="85" on="0"/>
        <pt x="366" y="-12" on="0"/>
        <pt x="252" y="-12" on="1"/>
        <pt x="166" y="-12" on="0"/>
        <pt x="53" y="19" on="1"/>
        <pt x="52" y="19" on="1"/>
        <pt x="148" y="700" on="1"/>
      </contour>
      <contour>
        <pt x="121" y="343" on="1"/>
        <pt x="78" y="36" on="1"/>
        <pt x="165" y="11" on="0"/>
        <pt x="248" y="11" on="1"/>
        <pt x="357" y="11" on="0"/>
        <pt x="436" y="103" on="0"/>
        <pt x="455" y="242" on="1"/>
        <pt x="473" y="371" on="0"/>
        <pt x="431" y="469" on="0"/>
        <pt x="354" y="469" on="1"/>
        <pt x="308" y="469" on="0"/>
        <pt x="203" y="410" on="0"/>
      </contour>
    </TTGlyph>
    <TTGlyph name="backslash" xMin="88" yMin="-59" xMax="401" yMax="690">
      <contour>
        <pt x="401" y="-59" on="1"/>
        <pt x="377" y="-59" on="1"/>
        <pt x="88" y="690" on="1"/>
        <pt x="112" y="690" on="1"/>
      </contour>
    </TTGlyph>
    <TTGlyph name="bar" xMin="41" yMin="-169" xMax="196" yMax="781">
      <contour>
        <pt x="63" y="-169" on="1"/>
        <pt x="41" y="-169" on="1"/>
        <pt x="174" y="781" on="1"/>
        <pt x="196" y="781" on="1"/>
      </contour>
    </TTGlyph>
    <TTGlyph name="braceleft" xMin="57" yMin="-165" xMax="316" yMax="768">
      <contour>
        <pt x="316" y="768" on="1"/>
        <pt x="314" y="750" on="1"/>
        <pt x="256" y="750" on="0"/>
        <pt x="202" y="697" on="0"/>
        <pt x="194" y="641" on="1"/>
        <pt x="166" y="436" on="1"/>
        <pt x="157" y="377" on="0"/>
        <pt x="123" y="339" on="0"/>
        <pt x="74" y="328" on="1"/>
        <pt x="120" y="311" on="0"/>
        <pt x="146" y="272" on="0"/>
        <pt x="139" y="222" on="1"/>
        <pt x="103" y="-40" on="1"/>
        <pt x="95" y="-95" on="0"/>
        <pt x="133" y="-147" on="0"/>
        <pt x="191" y="-147" on="1"/>
        <pt x="189" y="-165" on="1"/>
        <pt x="120" y="-165" on="0"/>
        <pt x="69" y="-105" on="0"/>
        <pt x="79" y="-38" on="1"/>
        <pt x="117" y="234" on="1"/>
        <pt x="121" y="262" on="0"/>
        <pt x="107" y="292" on="0"/>
        <pt x="87" y="302" on="0"/>
        <pt x="57" y="314" on="1"/>
        <pt x="62" y="344" on="1"/>
        <pt x="109" y="358" on="0"/>
        <pt x="119" y="367" on="1"/>
        <pt x="134" y="381" on="0"/>
        <pt x="140" y="428" on="1"/>
        <pt x="171" y="643" on="1"/>
        <pt x="180" y="711" on="0"/>
        <pt x="246" y="769" on="0"/>
      </contour>
    </TTGlyph>
    <TTGlyph name="braceright" xMin="-19" yMin="-165" xMax="249" yMax="768">
      <contour>
        <pt x="112" y="750" on="1"/>
        <pt x="114" y="768" on="1"/>
        <pt x="183" y="768" on="0"/>
        <pt x="234" y="708" on="0"/>
        <pt x="224" y="641" on="1"/>
        <pt x="194" y="426" on="1"/>
        <pt x="188" y="381" on="0"/>
        <pt x="205" y="356" on="0"/>
        <pt x="241" y="345" on="1"/>
        <pt x="246" y="343" on="0"/>
        <pt x="249" y="342" on="1"/>
        <pt x="244" y="312" on="1"/>
        <pt x="218" y="303" on="0"/>
        <pt x="202" y="296" on="0"/>
        <pt x="175" y="278" on="0"/>
        <pt x="166" y="253" on="0"/>
        <pt x="163" y="232" on="1"/>
        <pt x="125" y="-40" on="1"/>
        <pt x="115" y="-107" on="0"/>
        <pt x="50" y="-165" on="0"/>
        <pt x="-19" y="-165" on="1"/>
        <pt x="-17" y="-147" on="1"/>
        <pt x="40" y="-147" on="0"/>
        <pt x="93" y="-93" on="0"/>
        <pt x="101" y="-38" on="1"/>
        <pt x="138" y="224" on="1"/>
        <pt x="145" y="275" on="0"/>
        <pt x="180" y="311" on="0"/>
        <pt x="232" y="328" on="1"/>
        <pt x="187" y="339" on="0"/>
        <pt x="163" y="379" on="0"/>
        <pt x="172" y="438" on="1"/>
        <pt x="201" y="643" on="1"/>
        <pt x="209" y="699" on="0"/>
        <pt x="171" y="750" on="0"/>
      </contour>
    </TTGlyph>
    <TTGlyph name="bracketleft" xMin="45" yMin="-165" xMax="327" yMax="768">
      <contour>
        <pt x="324" y="746" on="1"/>
        <pt x="205" y="746" on="1"/>
        <pt x="192" y="746" on="0"/>
        <pt x="190" y="733" on="1"/>
        <pt x="69" y="-132" on="1"/>
        <pt x="67" y="-143" on="0"/>
        <pt x="78" y="-143" on="1"/>
        <pt x="199" y="-143" on="1"/>
        <pt x="196" y="-165" on="1"/>
        <pt x="72" y="-165" on="1"/>
        <pt x="58" y="-165" on="0"/>
        <pt x="43" y="-146" on="0"/>
        <pt x="45" y="-133" on="1"/>
        <pt x="167" y="738" on="1"/>
        <pt x="172" y="768" on="0"/>
        <pt x="201" y="768" on="1"/>
        <pt x="327" y="768" on="1"/>
      </contour>
    </TTGlyph>
    <TTGlyph name="bracketright" xMin="-17" yMin="-165" xMax="266" yMax="768">
      <contour>
        <pt x="114" y="768" on="1"/>
        <pt x="238" y="768" on="1"/>
        <pt x="251" y="768" on="0"/>
        <pt x="268" y="750" on="0"/>
        <pt x="266" y="736" on="1"/>
        <pt x="143" y="-135" on="1"/>
        <pt x="142" y="-148" on="0"/>
        <pt x="123" y="-165" on="0"/>
        <pt x="109" y="-165" on="1"/>
        <pt x="-17" y="-165" on="1"/>
        <pt x="-14" y="-143" on="1"/>
        <pt x="105" y="-143" on="1"/>
        <pt x="118" y="-143" on="0"/>
        <pt x="120" y="-130" on="1"/>
        <pt x="242" y="735" on="1"/>
        <pt x="244" y="746" on="0"/>
        <pt x="232" y="746" on="1"/>
        <pt x="111" y="746" on="1"/>
      </contour>
    </TTGlyph>
    <TTGlyph name="breve" xMin="105" yMin="569" xMax="377" yMax="688">
      <contour>
        <pt x="360" y="688" on="1"/>
        <pt x="377" y="682" on="1"/>
        <pt x="370" y="629" on="0"/>
        <pt x="290" y="569" on="0"/>
        <pt x="228" y="569" on="1"/>
        <pt x="164" y="569" on="0"/>
        <pt x="98" y="631" on="0"/>
        <pt x="105" y="684" on="1"/>
        <pt x="123" y="686" on="1"/>
        <pt x="116" y="642" on="0"/>
        <pt x="173" y="593" on="0"/>
        <pt x="283" y="593" on="0"/>
        <pt x="354" y="643" on="0"/>
      </contour>
    </TTGlyph>
    <TTGlyph name="brevecy" xMin="105" yMin="569" xMax="377" yMax="687">
      <contour>
        <pt x="354" y="687" on="1"/>
        <pt x="377" y="687" on="1"/>
        <pt x="369" y="633" on="0"/>
        <pt x="289" y="569" on="0"/>
        <pt x="228" y="569" on="1"/>
        <pt x="164" y="569" on="0"/>
        <pt x="97" y="634" on="0"/>
        <pt x="105" y="687" on="1"/>
        <pt x="130" y="687" on="1"/>
        <pt x="123" y="639" on="0"/>
        <pt x="176" y="587" on="0"/>
        <pt x="278" y="587" on="0"/>
        <pt x="347" y="639" on="0"/>
      </contour>
    </TTGlyph>
    <TTGlyph name="brokenbar" xMin="41" yMin="-169" xMax="196" yMax="781">
      <contour>
        <pt x="140" y="381" on="1"/>
        <pt x="118" y="381" on="1"/>
        <pt x="174" y="781" on="1"/>
        <pt x="196" y="781" on="1"/>
      </contour>
      <contour>
        <pt x="63" y="-169" on="1"/>
        <pt x="41" y="-169" on="1"/>
        <pt x="97" y="231" on="1"/>
        <pt x="119" y="231" on="1"/>
      </contour>
    </TTGlyph>
    <TTGlyph name="bullet" xMin="102" yMin="198" xMax="243" yMax="337">
      <contour>
        <pt x="177" y="337" on="1"/>
        <pt x="187" y="337" on="1"/>
        <pt x="222" y="337" on="0"/>
        <pt x="247" y="307" on="0"/>
        <pt x="243" y="272" on="1"/>
        <pt x="241" y="257" on="1"/>
        <pt x="237" y="221" on="0"/>
        <pt x="206" y="198" on="0"/>
        <pt x="169" y="198" on="1"/>
        <pt x="159" y="198" on="1"/>
        <pt x="123" y="198" on="0"/>
        <pt x="97" y="228" on="0"/>
        <pt x="102" y="264" on="1"/>
        <pt x="104" y="278" on="1"/>
        <pt x="109" y="314" on="0"/>
        <pt x="139" y="337" on="0"/>
      </contour>
    </TTGlyph>
    <TTGlyph name="c" xMin="61" yMin="-12" xMax="447" yMax="492">
      <contour>
        <pt x="391" y="23" on="1"/>
        <pt x="394" y="5" on="1"/>
        <pt x="318" y="-12" on="0"/>
        <pt x="248" y="-12" on="1"/>
        <pt x="127" y="-12" on="0"/>
        <pt x="42" y="103" on="0"/>
        <pt x="61" y="242" on="1"/>
        <pt x="80" y="380" on="0"/>
        <pt x="194" y="492" on="0"/>
        <pt x="313" y="492" on="1"/>
        <pt x="395" y="492" on="0"/>
        <pt x="447" y="475" on="1"/>
        <pt x="440" y="457" on="1"/>
        <pt x="396" y="469" on="0"/>
        <pt x="318" y="469" on="1"/>
        <pt x="207" y="469" on="0"/>
        <pt x="105" y="370" on="0"/>
        <pt x="86" y="239" on="1"/>
        <pt x="68" y="108" on="0"/>
        <pt x="140" y="11" on="0"/>
        <pt x="250" y="11" on="1"/>
        <pt x="330" y="11" on="0"/>
      </contour>
    </TTGlyph>
    <TTGlyph name="cacute" xMin="61" yMin="-12" xMax="447" yMax="714">
      <contour>
        <pt x="439" y="695" on="1"/>
        <pt x="267" y="554" on="1"/>
        <pt x="253" y="568" on="1"/>
        <pt x="422" y="714" on="1"/>
      </contour>
      <contour>
        <pt x="391" y="23" on="1"/>
        <pt x="394" y="5" on="1"/>
        <pt x="318" y="-12" on="0"/>
        <pt x="248" y="-12" on="1"/>
        <pt x="127" y="-12" on="0"/>
        <pt x="42" y="103" on="0"/>
        <pt x="61" y="242" on="1"/>
        <pt x="80" y="380" on="0"/>
        <pt x="194" y="492" on="0"/>
        <pt x="313" y="492" on="1"/>
        <pt x="395" y="492" on="0"/>
        <pt x="447" y="475" on="1"/>
        <pt x="440" y="457" on="1"/>
        <pt x="396" y="469" on="0"/>
        <pt x="318" y="469" on="1"/>
        <pt x="207" y="469" on="0"/>
        <pt x="105" y="370" on="0"/>
        <pt x="86" y="239" on="1"/>
        <pt x="68" y="108" on="0"/>
        <pt x="140" y="11" on="0"/>
        <pt x="250" y="11" on="1"/>
        <pt x="330" y="11" on="0"/>
      </contour>
    </TTGlyph>
    <TTGlyph name="caron" xMin="114" yMin="575" xMax="406" yMax="704">
      <contour>
        <pt x="406" y="692" on="1"/>
        <pt x="252" y="575" on="1"/>
        <pt x="234" y="575" on="1"/>
        <pt x="114" y="692" on="1"/>
        <pt x="125" y="704" on="1"/>
        <pt x="241" y="602" on="1"/>
        <pt x="249" y="602" on="1"/>
        <pt x="395" y="704" on="1"/>
      </contour>
    </TTGlyph>
    <TTGlyph name="ccaron" xMin="61" yMin="-12" xMax="466" yMax="698">
      <contour>
        <pt x="466" y="686" on="1"/>
        <pt x="312" y="569" on="1"/>
        <pt x="294" y="569" on="1"/>
        <pt x="174" y="686" on="1"/>
        <pt x="185" y="698" on="1"/>
        <pt x="301" y="596" on="1"/>
        <pt x="309" y="596" on="1"/>
        <pt x="455" y="698" on="1"/>
      </contour>
      <contour>
        <pt x="391" y="23" on="1"/>
        <pt x="394" y="5" on="1"/>
        <pt x="318" y="-12" on="0"/>
        <pt x="248" y="-12" on="1"/>
        <pt x="127" y="-12" on="0"/>
        <pt x="42" y="103" on="0"/>
        <pt x="61" y="242" on="1"/>
        <pt x="80" y="380" on="0"/>
        <pt x="194" y="492" on="0"/>
        <pt x="313" y="492" on="1"/>
        <pt x="395" y="492" on="0"/>
        <pt x="447" y="475" on="1"/>
        <pt x="440" y="457" on="1"/>
        <pt x="396" y="469" on="0"/>
        <pt x="318" y="469" on="1"/>
        <pt x="207" y="469" on="0"/>
        <pt x="105" y="370" on="0"/>
        <pt x="86" y="239" on="1"/>
        <pt x="68" y="108" on="0"/>
        <pt x="140" y="11" on="0"/>
        <pt x="250" y="11" on="1"/>
        <pt x="330" y="11" on="0"/>
      </contour>
    </TTGlyph>
    <TTGlyph name="ccedilla" xMin="61" yMin="-231" xMax="447" yMax="492">
      <contour>
        <pt x="391" y="23" on="1"/>
        <pt x="394" y="5" on="1"/>
        <pt x="318" y="-12" on="0"/>
        <pt x="248" y="-12" on="1"/>
        <pt x="127" y="-12" on="0"/>
        <pt x="42" y="103" on="0"/>
        <pt x="61" y="242" on="1"/>
        <pt x="80" y="380" on="0"/>
        <pt x="194" y="492" on="0"/>
        <pt x="313" y="492" on="1"/>
        <pt x="395" y="492" on="0"/>
        <pt x="447" y="475" on="1"/>
        <pt x="440" y="457" on="1"/>
        <pt x="396" y="469" on="0"/>
        <pt x="318" y="469" on="1"/>
        <pt x="207" y="469" on="0"/>
        <pt x="105" y="370" on="0"/>
        <pt x="86" y="239" on="1"/>
        <pt x="68" y="108" on="0"/>
        <pt x="140" y="11" on="0"/>
        <pt x="250" y="11" on="1"/>
        <pt x="330" y="11" on="0"/>
      </contour>
      <contour>
        <pt x="203" y="-75" on="1"/>
        <pt x="206" y="-61" on="1"/>
        <pt x="246" y="-59" on="0"/>
        <pt x="282" y="-92" on="0"/>
        <pt x="276" y="-128" on="1"/>
        <pt x="268" y="-179" on="0"/>
        <pt x="184" y="-239" on="0"/>
        <pt x="123" y="-231" on="1"/>
        <pt x="128" y="-216" on="1"/>
        <pt x="179" y="-218" on="0"/>
        <pt x="249" y="-164" on="0"/>
        <pt x="255" y="-124" on="1"/>
        <pt x="259" y="-97" on="0"/>
        <pt x="236" y="-76" on="0"/>
      </contour>
    </TTGlyph>
    <TTGlyph name="cdotaccent" xMin="61" yMin="-12" xMax="447" yMax="678">
      <contour>
        <pt x="312" y="678" on="1"/>
        <pt x="323" y="678" on="1"/>
        <pt x="334" y="678" on="0"/>
        <pt x="333" y="665" on="1"/>
        <pt x="325" y="605" on="1"/>
        <pt x="324" y="592" on="0"/>
        <pt x="311" y="592" on="1"/>
        <pt x="302" y="592" on="1"/>
        <pt x="289" y="592" on="0"/>
        <pt x="291" y="605" on="1"/>
        <pt x="299" y="665" on="1"/>
        <pt x="300" y="678" on="0"/>
      </contour>
      <contour>
        <pt x="391" y="23" on="1"/>
        <pt x="394" y="5" on="1"/>
        <pt x="318" y="-12" on="0"/>
        <pt x="248" y="-12" on="1"/>
        <pt x="127" y="-12" on="0"/>
        <pt x="42" y="103" on="0"/>
        <pt x="61" y="242" on="1"/>
        <pt x="80" y="380" on="0"/>
        <pt x="194" y="492" on="0"/>
        <pt x="313" y="492" on="1"/>
        <pt x="395" y="492" on="0"/>
        <pt x="447" y="475" on="1"/>
        <pt x="440" y="457" on="1"/>
        <pt x="396" y="469" on="0"/>
        <pt x="318" y="469" on="1"/>
        <pt x="207" y="469" on="0"/>
        <pt x="105" y="370" on="0"/>
        <pt x="86" y="239" on="1"/>
        <pt x="68" y="108" on="0"/>
        <pt x="140" y="11" on="0"/>
        <pt x="250" y="11" on="1"/>
        <pt x="330" y="11" on="0"/>
      </contour>
    </TTGlyph>
    <TTGlyph name="cedilla" xMin="-22" yMin="-219" xMax="131" yMax="-49">
      <contour>
        <pt x="58" y="-63" on="1"/>
        <pt x="61" y="-49" on="1"/>
        <pt x="101" y="-47" on="0"/>
        <pt x="137" y="-80" on="0"/>
        <pt x="131" y="-116" on="1"/>
        <pt x="123" y="-167" on="0"/>
        <pt x="39" y="-227" on="0"/>
        <pt x="-22" y="-219" on="1"/>
        <pt x="-17" y="-204" on="1"/>
        <pt x="34" y="-206" on="0"/>
        <pt x="104" y="-152" on="0"/>
        <pt x="110" y="-112" on="1"/>
        <pt x="114" y="-85" on="0"/>
        <pt x="91" y="-64" on="0"/>
      </contour>
    </TTGlyph>
    <TTGlyph name="cent" xMin="78" yMin="0" xMax="463" yMax="690">
      <contour>
        <pt x="463" y="585" on="1"/>
        <pt x="457" y="567" on="1"/>
        <pt x="420" y="577" on="0"/>
        <pt x="344" y="579" on="1"/>
        <pt x="248" y="121" on="1"/>
        <pt x="266" y="121" on="1"/>
        <pt x="340" y="121" on="0"/>
        <pt x="407" y="133" on="1"/>
        <pt x="410" y="115" on="1"/>
        <pt x="334" y="98" on="0"/>
        <pt x="264" y="98" on="1"/>
        <pt x="243" y="98" on="1"/>
        <pt x="222" y="0" on="1"/>
        <pt x="201" y="0" on="1"/>
        <pt x="222" y="100" on="1"/>
        <pt x="126" y="109" on="0"/>
        <pt x="60" y="225" on="0"/>
        <pt x="78" y="352" on="1"/>
        <pt x="98" y="489" on="0"/>
        <pt x="210" y="602" on="0"/>
        <pt x="328" y="602" on="1"/>
        <pt x="346" y="690" on="1"/>
        <pt x="367" y="690" on="1"/>
        <pt x="349" y="602" on="1"/>
        <pt x="423" y="598" on="0"/>
      </contour>
      <contour>
        <pt x="228" y="123" on="1"/>
        <pt x="323" y="579" on="1"/>
        <pt x="219" y="577" on="0"/>
        <pt x="121" y="478" on="0"/>
        <pt x="103" y="350" on="1"/>
        <pt x="86" y="231" on="0"/>
        <pt x="143" y="130" on="0"/>
      </contour>
    </TTGlyph>
    <TTGlyph name="circumflex" xMin="100" yMin="574" xMax="391" yMax="704">
      <contour>
        <pt x="391" y="587" on="1"/>
        <pt x="379" y="575" on="1"/>
        <pt x="264" y="677" on="1"/>
        <pt x="255" y="677" on="1"/>
        <pt x="110" y="574" on="1"/>
        <pt x="100" y="587" on="1"/>
        <pt x="252" y="704" on="1"/>
        <pt x="270" y="704" on="1"/>
      </contour>
    </TTGlyph>
    <TTGlyph name="colon" xMin="78" yMin="0" xMax="170" yMax="430">
      <contour>
        <pt x="149" y="430" on="1"/>
        <pt x="160" y="430" on="1"/>
        <pt x="172" y="430" on="0"/>
        <pt x="170" y="417" on="1"/>
        <pt x="161" y="355" on="1"/>
        <pt x="160" y="344" on="0"/>
        <pt x="148" y="344" on="1"/>
        <pt x="138" y="344" on="1"/>
        <pt x="125" y="344" on="0"/>
        <pt x="127" y="357" on="1"/>
        <pt x="136" y="418" on="1"/>
        <pt x="138" y="430" on="0"/>
      </contour>
      <contour>
        <pt x="100" y="86" on="1"/>
        <pt x="111" y="86" on="1"/>
        <pt x="123" y="86" on="0"/>
        <pt x="121" y="73" on="1"/>
        <pt x="112" y="11" on="1"/>
        <pt x="111" y="0" on="0"/>
        <pt x="99" y="0" on="1"/>
        <pt x="89" y="0" on="1"/>
        <pt x="76" y="0" on="0"/>
        <pt x="78" y="13" on="1"/>
        <pt x="87" y="74" on="1"/>
        <pt x="88" y="86" on="0"/>
      </contour>
    </TTGlyph>
    <TTGlyph name="comma" xMin="28" yMin="-116" xMax="90" yMax="86">
      <contour>
        <pt x="70" y="86" on="1"/>
        <pt x="82" y="86" on="1"/>
        <pt x="91" y="86" on="0"/>
        <pt x="90" y="75" on="1"/>
        <pt x="80" y="9" on="1"/>
        <pt x="73" y="-44" on="0"/>
        <pt x="43" y="-116" on="1"/>
        <pt x="28" y="-111" on="1"/>
        <pt x="42" y="-64" on="0"/>
        <pt x="53" y="1" on="1"/>
        <pt x="45" y="1" on="0"/>
        <pt x="47" y="11" on="1"/>
        <pt x="57" y="75" on="1"/>
        <pt x="58" y="86" on="0"/>
      </contour>
    </TTGlyph>
    <TTGlyph name="copyright" xMin="79" yMin="-12" xMax="792" yMax="702">
      <contour>
        <pt x="484" y="702" on="1"/>
        <pt x="636" y="702" on="0"/>
        <pt x="814" y="503" on="0"/>
        <pt x="792" y="343" on="1"/>
        <pt x="770" y="185" on="0"/>
        <pt x="555" y="-12" on="0"/>
        <pt x="388" y="-12" on="1"/>
        <pt x="236" y="-12" on="0"/>
        <pt x="58" y="187" on="0"/>
        <pt x="79" y="347" on="1"/>
        <pt x="100" y="505" on="0"/>
        <pt x="318" y="702" on="0"/>
      </contour>
      <contour>
        <pt x="483" y="683" on="1"/>
        <pt x="325" y="683" on="0"/>
        <pt x="119" y="494" on="0"/>
        <pt x="99" y="343" on="1"/>
        <pt x="79" y="193" on="0"/>
        <pt x="247" y="7" on="0"/>
        <pt x="388" y="7" on="1"/>
        <pt x="546" y="7" on="0"/>
        <pt x="752" y="196" on="0"/>
        <pt x="792" y="498" on="0"/>
        <pt x="627" y="683" on="0"/>
      </contour>
      <contour>
        <pt x="552" y="144" on="1"/>
        <pt x="555" y="128" on="1"/>
        <pt x="494" y="116" on="0"/>
        <pt x="411" y="116" on="1"/>
        <pt x="302" y="116" on="0"/>
        <pt x="228" y="222" on="0"/>
        <pt x="246" y="350" on="1"/>
        <pt x="264" y="477" on="0"/>
        <pt x="365" y="580" on="0"/>
        <pt x="472" y="580" on="1"/>
        <pt x="553" y="580" on="0"/>
        <pt x="604" y="568" on="1"/>
        <pt x="599" y="554" on="1"/>
        <pt x="549" y="560" on="0"/>
        <pt x="473" y="560" on="1"/>
        <pt x="376" y="560" on="0"/>
        <pt x="285" y="467" on="0"/>
        <pt x="268" y="346" on="1"/>
        <pt x="251" y="230" on="0"/>
        <pt x="314" y="136" on="0"/>
        <pt x="409" y="136" on="1"/>
        <pt x="497" y="136" on="0"/>
      </contour>
    </TTGlyph>
    <TTGlyph name="currency" xMin="69" yMin="127" xMax="542" yMax="582">
      <contour>
        <pt x="542" y="554" on="1"/>
        <pt x="463" y="485" on="1"/>
        <pt x="506" y="431" on="0"/>
        <pt x="498" y="350" on="1"/>
        <pt x="491" y="272" on="0"/>
        <pt x="438" y="219" on="1"/>
        <pt x="507" y="139" on="1"/>
        <pt x="492" y="127" on="1"/>
        <pt x="424" y="207" on="1"/>
        <pt x="370" y="162" on="0"/>
        <pt x="291" y="162" on="1"/>
        <pt x="208" y="162" on="0"/>
        <pt x="161" y="212" on="1"/>
        <pt x="82" y="142" on="1"/>
        <pt x="69" y="156" on="1"/>
        <pt x="149" y="226" on="1"/>
        <pt x="110" y="277" on="0"/>
        <pt x="118" y="354" on="1"/>
        <pt x="128" y="440" on="0"/>
        <pt x="182" y="490" on="1"/>
        <pt x="113" y="569" on="1"/>
        <pt x="127" y="582" on="1"/>
        <pt x="196" y="502" on="1"/>
        <pt x="250" y="543" on="0"/>
        <pt x="327" y="543" on="1"/>
        <pt x="403" y="543" on="0"/>
        <pt x="450" y="499" on="1"/>
        <pt x="530" y="569" on="1"/>
      </contour>
      <contour>
        <pt x="283" y="181" on="1"/>
        <pt x="363" y="178" on="0"/>
        <pt x="470" y="275" on="0"/>
        <pt x="478" y="354" on="1"/>
        <pt x="485" y="427" on="0"/>
        <pt x="406" y="524" on="0"/>
        <pt x="328" y="524" on="1"/>
        <pt x="247" y="524" on="0"/>
        <pt x="146" y="427" on="0"/>
        <pt x="138" y="350" on="1"/>
        <pt x="130" y="278" on="0"/>
        <pt x="210" y="184" on="0"/>
      </contour>
    </TTGlyph>
    <TTGlyph name="d" xMin="68" yMin="-12" xMax="527" yMax="700">
      <contour>
        <pt x="496" y="480" on="1"/>
        <pt x="428" y="0" on="1"/>
        <pt x="410" y="0" on="1"/>
        <pt x="424" y="121" on="1"/>
        <pt x="300" y="-12" on="0"/>
        <pt x="171" y="-12" on="1"/>
        <pt x="90" y="-12" on="0"/>
        <pt x="46" y="119" on="0"/>
        <pt x="68" y="242" on="1"/>
        <pt x="90" y="393" on="0"/>
        <pt x="189" y="492" on="0"/>
        <pt x="319" y="492" on="1"/>
        <pt x="383" y="492" on="0"/>
        <pt x="475" y="482" on="1"/>
        <pt x="477" y="519" on="0"/>
        <pt x="485" y="574" on="1"/>
        <pt x="503" y="700" on="1"/>
        <pt x="527" y="700" on="1"/>
      </contour>
      <contour>
        <pt x="426" y="150" on="1"/>
        <pt x="469" y="463" on="1"/>
        <pt x="360" y="470" on="0"/>
        <pt x="321" y="470" on="1"/>
        <pt x="199" y="470" on="0"/>
        <pt x="113" y="382" on="0"/>
        <pt x="92" y="238" on="1"/>
        <pt x="72" y="125" on="0"/>
        <pt x="106" y="11" on="0"/>
        <pt x="173" y="11" on="1"/>
        <pt x="231" y="11" on="0"/>
        <pt x="365" y="83" on="0"/>
      </contour>
    </TTGlyph>
    <TTGlyph name="dagger" xMin="74" yMin="-110" xMax="400" yMax="691">
      <contour>
        <pt x="168" y="-110" on="1"/>
        <pt x="144" y="-110" on="1"/>
        <pt x="224" y="464" on="1"/>
        <pt x="226" y="475" on="1"/>
        <pt x="255" y="691" on="1"/>
        <pt x="281" y="691" on="1"/>
        <pt x="250" y="475" on="1"/>
        <pt x="248" y="464" on="1"/>
      </contour>
      <contour>
        <pt x="74" y="454" on="1"/>
        <pt x="78" y="480" on="1"/>
        <pt x="212" y="480" on="1"/>
        <pt x="209" y="459" on="1"/>
      </contour>
      <contour>
        <pt x="400" y="480" on="1"/>
        <pt x="396" y="454" on="1"/>
        <pt x="263" y="459" on="1"/>
        <pt x="266" y="480" on="1"/>
      </contour>
    </TTGlyph>
    <TTGlyph name="daggerdbl" xMin="44" yMin="-110" xMax="420" yMax="691">
      <contour>
        <pt x="218" y="104" on="1"/>
        <pt x="189" y="-110" on="1"/>
        <pt x="163" y="-110" on="1"/>
        <pt x="194" y="104" on="1"/>
        <pt x="247" y="479" on="1"/>
        <pt x="275" y="691" on="1"/>
        <pt x="301" y="691" on="1"/>
      </contour>
      <contour>
        <pt x="229" y="459" on="1"/>
        <pt x="94" y="454" on="1"/>
        <pt x="98" y="480" on="1"/>
        <pt x="232" y="480" on="1"/>
      </contour>
      <contour>
        <pt x="416" y="454" on="1"/>
        <pt x="283" y="459" on="1"/>
        <pt x="286" y="480" on="1"/>
        <pt x="420" y="480" on="1"/>
      </contour>
      <contour>
        <pt x="181" y="122" on="1"/>
        <pt x="178" y="101" on="1"/>
        <pt x="44" y="101" on="1"/>
        <pt x="48" y="127" on="1"/>
      </contour>
      <contour>
        <pt x="366" y="101" on="1"/>
        <pt x="232" y="101" on="1"/>
        <pt x="235" y="122" on="1"/>
        <pt x="370" y="127" on="1"/>
      </contour>
    </TTGlyph>
    <TTGlyph name="dcaron" xMin="68" yMin="-12" xMax="648" yMax="700">
      <contour>
        <pt x="630" y="700" on="1"/>
        <pt x="641" y="700" on="1"/>
        <pt x="649" y="700" on="0"/>
        <pt x="648" y="690" on="1"/>
        <pt x="639" y="630" on="1"/>
        <pt x="631" y="578" on="0"/>
        <pt x="605" y="517" on="1"/>
        <pt x="591" y="521" on="1"/>
        <pt x="605" y="567" on="0"/>
        <pt x="614" y="623" on="1"/>
        <pt x="607" y="623" on="0"/>
        <pt x="609" y="632" on="1"/>
        <pt x="618" y="690" on="1"/>
        <pt x="619" y="700" on="0"/>
      </contour>
      <contour>
        <pt x="527" y="700" on="1"/>
        <pt x="496" y="480" on="1"/>
        <pt x="428" y="0" on="1"/>
        <pt x="410" y="0" on="1"/>
        <pt x="424" y="121" on="1"/>
        <pt x="300" y="-12" on="0"/>
        <pt x="171" y="-12" on="1"/>
        <pt x="90" y="-12" on="0"/>
        <pt x="46" y="119" on="0"/>
        <pt x="68" y="242" on="1"/>
        <pt x="90" y="393" on="0"/>
        <pt x="189" y="492" on="0"/>
        <pt x="319" y="492" on="1"/>
        <pt x="383" y="492" on="0"/>
        <pt x="475" y="482" on="1"/>
        <pt x="477" y="519" on="0"/>
        <pt x="485" y="574" on="1"/>
        <pt x="503" y="700" on="1"/>
      </contour>
      <contour>
        <pt x="426" y="150" on="1"/>
        <pt x="469" y="463" on="1"/>
        <pt x="360" y="470" on="0"/>
        <pt x="321" y="470" on="1"/>
        <pt x="199" y="470" on="0"/>
        <pt x="113" y="382" on="0"/>
        <pt x="92" y="238" on="1"/>
        <pt x="72" y="125" on="0"/>
        <pt x="106" y="11" on="0"/>
        <pt x="173" y="11" on="1"/>
        <pt x="231" y="11" on="0"/>
        <pt x="365" y="83" on="0"/>
      </contour>
    </TTGlyph>
</ttFont>
